  0
SECTION
  2
HEADER
  9
$ACADVER
  1
AC1006
  9
$EXTMIN
 10
0.000000
 20
0.000000
 30
0.000000
  9
$EXTMAX
 10
513.000000
 20
174.000000
 30
0.000000
  0
ENDSEC
  0
SECTION
  2
ENTITIES
  0
POLYLINE
  8
0
 66
1
 70
1
  0
VERTEX
  8
0
 10
471.413527
 20
149.635083
 42
0.031303
  0
VERTEX
  8
0
 10
469.764714
 20
147.110839
 42
0.053740
  0
VERTEX
  8
0
 10
468.767085
 20
144.807013
 42
0.041993
  0
VERTEX
  8
0
 10
468.141687
 20
141.974974
 42
0.012405
  0
VERTEX
  8
0
 10
467.659796
 20
137.554995
 42
-0.009259
  0
VERTEX
  8
0
 10
467.169504
 20
132.779306
 42
-0.057610
  0
VERTEX
  8
0
 10
466.595248
 20
130.390483
 42
-0.088983
  0
VERTEX
  8
0
 10
465.592454
 20
128.673116
 42
-0.038431
  0
VERTEX
  8
0
 10
463.717352
 20
126.788356
 42
0.000000
  0
VERTEX
  8
0
 10
460.442165
 20
123.966722
 42
0.000000
  0
VERTEX
  8
0
 10
428.165109
 20
123.733361
 42
0.000000
  0
VERTEX
  8
0
 10
395.888052
 20
123.500000
 42
0.000000
  0
VERTEX
  8
0
 10
398.694026
 20
125.778684
 42
-0.035894
  0
VERTEX
  8
0
 10
401.111709
 20
127.469558
 42
-0.015285
  0
VERTEX
  8
0
 10
404.564878
 20
129.391982
 42
-0.008123
  0
VERTEX
  8
0
 10
410.093533
 20
132.139202
 42
-0.001414
  0
VERTEX
  8
0
 10
420.624954
 20
137.124177
 42
0.024083
  0
VERTEX
  8
0
 10
426.157153
 20
140.056705
 42
0.021648
  0
VERTEX
  8
0
 10
431.588468
 20
143.606357
 42
0.015403
  0
VERTEX
  8
0
 10
436.127500
 20
147.078206
 42
0.222526
  0
VERTEX
  8
0
 10
436.984806
 20
148.856989
 42
0.099623
  0
VERTEX
  8
0
 10
436.894217
 20
149.334731
 42
0.147661
  0
VERTEX
  8
0
 10
436.628349
 20
149.664051
 42
0.148177
  0
VERTEX
  8
0
 10
436.225447
 20
149.790536
 42
0.100550
  0
VERTEX
  8
0
 10
435.750000
 20
149.698876
 42
0.006344
  0
VERTEX
  8
0
 10
421.010999
 20
143.405282
 42
0.015477
  0
VERTEX
  8
0
 10
410.365570
 20
138.299603
 42
0.020561
  0
VERTEX
  8
0
 10
402.194851
 20
133.629247
 42
0.029274
  0
VERTEX
  8
0
 10
395.386209
 20
128.779570
 42
0.000000
  0
VERTEX
  8
0
 10
388.201788
 20
123.000000
 42
0.000000
  0
VERTEX
  8
0
 10
378.100894
 20
123.000000
 42
0.000000
  0
VERTEX
  8
0
 10
368.000000
 20
123.000000
 42
0.000000
  0
VERTEX
  8
0
 10
368.010844
 20
126.250000
 42
-0.084019
  0
VERTEX
  8
0
 10
368.365824
 20
128.305864
 42
-0.020283
  0
VERTEX
  8
0
 10
369.648842
 20
131.525717
 42
-0.017040
  0
VERTEX
  8
0
 10
371.663614
 20
135.656194
 42
-0.008200
  0
VERTEX
  8
0
 10
374.510844
 20
140.815141
 42
0.001432
  0
VERTEX
  8
0
 10
376.998496
 20
145.181797
 42
0.002295
  0
VERTEX
  8
0
 10
379.093810
 20
148.924361
 42
0.000426
  0
VERTEX
  8
0
 10
380.923509
 20
152.234620
 42
0.126694
  0
VERTEX
  8
0
 10
381.000000
 20
152.531649
 42
0.589008
  0
VERTEX
  8
0
 10
380.870491
 20
152.603447
 42
0.002250
  0
VERTEX
  8
0
 10
379.090625
 20
151.480367
 42
0.006781
  0
VERTEX
  8
0
 10
376.993132
 20
150.103282
 42
0.003892
  0
VERTEX
  8
0
 10
374.500000
 20
148.389192
 42
0.000000
  0
VERTEX
  8
0
 10
368.000000
 20
143.845368
 42
0.000000
  0
VERTEX
  8
0
 10
367.973099
 20
147.672684
 42
0.000000
  0
VERTEX
  8
0
 10
367.946198
 20
151.500000
 42
0.000000
  0
VERTEX
  8
0
 10
365.000000
 20
148.000000
 42
0.026358
  0
VERTEX
  8
0
 10
363.870423
 20
146.504807
 42
0.026810
  0
VERTEX
  8
0
 10
362.911345
 20
144.907303
 42
0.027799
  0
VERTEX
  8
0
 10
362.233075
 20
143.434181
 42
0.091046
  0
VERTEX
  8
0
 10
362.026901
 20
142.386564
 42
-0.137751
  0
VERTEX
  8
0
 10
361.685767
 20
141.228659
 42
-0.083826
  0
VERTEX
  8
0
 10
360.730532
 20
140.155981
 42
-0.049462
  0
VERTEX
  8
0
 10
358.987814
 20
139.021312
 42
-0.014118
  0
VERTEX
  8
0
 10
356.078567
 20
137.615746
 42
-0.025068
  0
VERTEX
  8
0
 10
350.751476
 20
135.539089
 42
-0.011135
  0
VERTEX
  8
0
 10
343.544223
 20
133.315043
 42
-0.009814
  0
VERTEX
  8
0
 10
336.525896
 20
131.467415
 42
-0.051914
  0
VERTEX
  8
0
 10
332.590037
 20
130.936614
 42
0.008421
  0
VERTEX
  8
0
 10
331.351194
 20
130.878145
 42
0.503352
  0
VERTEX
  8
0
 10
331.246283
 20
130.715952
 42
0.204278
  0
VERTEX
  8
0
 10
331.460951
 20
130.490780
 42
0.003803
  0
VERTEX
  8
0
 10
333.000000
 20
129.842514
 42
0.067414
  0
VERTEX
  8
0
 10
334.392169
 20
129.477486
 42
0.016922
  0
VERTEX
  8
0
 10
336.734998
 20
129.270872
 42
0.016970
  0
VERTEX
  8
0
 10
339.454199
 20
129.215979
 42
0.016363
  0
VERTEX
  8
0
 10
342.204247
 20
129.343882
 42
0.000000
  0
VERTEX
  8
0
 10
348.908494
 20
129.875964
 42
0.000000
  0
VERTEX
  8
0
 10
347.269035
 20
126.437982
 42
0.000000
  0
VERTEX
  8
0
 10
345.629575
 20
123.000000
 42
0.000000
  0
VERTEX
  8
0
 10
323.982515
 20
123.000000
 42
0.000000
  0
VERTEX
  8
0
 10
302.335455
 20
123.000000
 42
0.000000
  0
VERTEX
  8
0
 10
302.754764
 20
128.250000
 42
0.017003
  0
VERTEX
  8
0
 10
302.885007
 20
131.098184
 42
0.058928
  0
VERTEX
  8
0
 10
302.690100
 20
132.929569
 42
0.080495
  0
VERTEX
  8
0
 10
302.116453
 20
134.347687
 42
0.053058
  0
VERTEX
  8
0
 10
301.048081
 20
135.750000
 42
0.034558
  0
VERTEX
  8
0
 10
300.113860
 20
136.611013
 42
0.034130
  0
VERTEX
  8
0
 10
299.066213
 20
137.339063
 42
0.036161
  0
VERTEX
  8
0
 10
298.062220
 20
137.845017
 42
0.098948
  0
VERTEX
  8
0
 10
297.286731
 20
138.000000
 42
-0.103916
  0
VERTEX
  8
0
 10
296.616946
 20
138.140722
 42
-0.377689
  0
VERTEX
  8
0
 10
296.448571
 20
138.503667
 42
-0.105882
  0
VERTEX
  8
0
 10
296.819258
 20
139.184041
 42
-0.011087
  0
VERTEX
  8
0
 10
298.039446
 20
140.541989
 42
0.000000
  0
VERTEX
  8
0
 10
300.427521
 20
143.083978
 42
0.000000
  0
VERTEX
  8
0
 10
297.463760
 20
145.466700
 42
0.000000
  0
VERTEX
  8
0
 10
294.500000
 20
147.849422
 42
0.000000
  0
VERTEX
  8
0
 10
291.686101
 20
145.176401
 42
0.000000
  0
VERTEX
  8
0
 10
288.872202
 20
142.503379
 42
0.000000
  0
VERTEX
  8
0
 10
291.705694
 20
139.971655
 42
0.000000
  0
VERTEX
  8
0
 10
294.539185
 20
137.439930
 42
0.000000
  0
VERTEX
  8
0
 10
292.223973
 20
134.004387
 42
0.058663
  0
VERTEX
  8
0
 10
290.765714
 20
131.174395
 42
0.090499
  0
VERTEX
  8
0
 10
290.279366
 20
128.472645
 42
0.113405
  0
VERTEX
  8
0
 10
290.804921
 20
126.210207
 42
0.140231
  0
VERTEX
  8
0
 10
292.246544
 20
124.608157
 42
0.057411
  0
VERTEX
  8
0
 10
293.179595
 20
124.163506
 42
0.092743
  0
VERTEX
  8
0
 10
294.047472
 20
124.036718
 42
0.086119
  0
VERTEX
  8
0
 10
294.947504
 20
124.230159
 42
0.043710
  0
VERTEX
  8
0
 10
295.982975
 20
124.757295
 42
-0.014142
  0
VERTEX
  8
0
 10
297.675851
 20
125.749100
 42
-0.147751
  0
VERTEX
  8
0
 10
298.454577
 20
125.913699
 42
-0.321560
  0
VERTEX
  8
0
 10
298.871881
 20
125.556961
 42
-0.060386
  0
VERTEX
  8
0
 10
299.000000
 20
124.500000
 42
-0.281225
  0
VERTEX
  8
0
 10
298.534664
 20
123.738096
 42
-0.079811
  0
VERTEX
  8
0
 10
297.156831
 20
123.289230
 42
-0.033443
  0
VERTEX
  8
0
 10
294.535415
 20
123.055861
 42
-0.005482
  0
VERTEX
  8
0
 10
289.440983
 20
123.000000
 42
-0.007698
  0
VERTEX
  8
0
 10
285.808412
 20
123.055929
 42
-0.013825
  0
VERTEX
  8
0
 10
282.832112
 20
123.230059
 42
-0.008876
  0
VERTEX
  8
0
 10
280.515737
 20
123.471459
 42
-0.547205
  0
VERTEX
  8
0
 10
280.365998
 20
123.783180
 42
0.149770
  0
VERTEX
  8
0
 10
280.506986
 20
124.321295
 42
0.013485
  0
VERTEX
  8
0
 10
280.411146
 20
125.727434
 42
0.016582
  0
VERTEX
  8
0
 10
280.191557
 20
127.431124
 42
0.012197
  0
VERTEX
  8
0
 10
279.839988
 20
129.302133
 42
0.066847
  0
VERTEX
  8
0
 10
278.312955
 20
133.569720
 42
0.062238
  0
VERTEX
  8
0
 10
275.685621
 20
137.398273
 42
0.068613
  0
VERTEX
  8
0
 10
272.531488
 20
140.098572
 42
0.143733
  0
VERTEX
  8
0
 10
269.460506
 20
141.000000
 42
0.153336
  0
VERTEX
  8
0
 10
266.605366
 20
140.103325
 42
0.041481
  0
VERTEX
  8
0
 10
262.909925
 20
137.043899
 42
0.039076
  0
VERTEX
  8
0
 10
259.192974
 20
132.790993
 42
0.037403
  0
VERTEX
  8
0
 10
256.122358
 20
127.951212
 42
0.000000
  0
VERTEX
  8
0
 10
253.744717
 20
123.500000
 42
0.000000
  0
VERTEX
  8
0
 10
258.213321
 20
128.250000
 42
-0.036745
  0
VERTEX
  8
0
 10
261.846710
 20
131.584015
 42
-0.126556
  0
VERTEX
  8
0
 10
264.747333
 20
132.869719
 42
-0.168613
  0
VERTEX
  8
0
 10
267.407101
 20
132.416906
 42
-0.079542
  0
VERTEX
  8
0
 10
270.190722
 20
130.250000
 42
-0.024886
  0
VERTEX
  8
0
 10
272.249088
 20
127.810307
 42
-0.039169
  0
VERTEX
  8
0
 10
273.733845
 20
125.507909
 42
-0.046120
  0
VERTEX
  8
0
 10
274.537425
 20
123.619333
 42
-0.280938
  0
VERTEX
  8
0
 10
274.298150
 20
122.631483
 42
-0.097921
  0
VERTEX
  8
0
 10
273.460259
 20
122.070252
 42
-0.213803
  0
VERTEX
  8
0
 10
272.703698
 20
122.090159
 42
-0.195592
  0
VERTEX
  8
0
 10
272.167589
 20
122.680938
 42
-0.083303
  0
VERTEX
  8
0
 10
271.968197
 20
123.750000
 42
0.011517
  0
VERTEX
  8
0
 10
271.923317
 20
124.838561
 42
0.395521
  0
VERTEX
  8
0
 10
271.751160
 20
125.000000
 42
0.228450
  0
VERTEX
  8
0
 10
271.477084
 20
124.867880
 42
0.005777
  0
VERTEX
  8
0
 10
270.607954
 20
123.750000
 42
-0.172634
  0
VERTEX
  8
0
 10
269.111013
 20
122.770120
 42
-0.039728
  0
VERTEX
  8
0
 10
266.084144
 20
122.286975
 42
-0.017665
  0
VERTEX
  8
0
 10
260.646647
 20
122.050055
 42
-0.002055
  0
VERTEX
  8
0
 10
248.465443
 20
122.000000
 42
0.000000
  0
VERTEX
  8
0
 10
227.651372
 20
122.000000
 42
0.000000
  0
VERTEX
  8
0
 10
229.825686
 20
124.314451
 42
0.020981
  0
VERTEX
  8
0
 10
231.521162
 20
126.278130
 42
0.206220
  0
VERTEX
  8
0
 10
231.799684
 20
127.310408
 42
0.187427
  0
VERTEX
  8
0
 10
231.253950
 20
128.277508
 42
0.016929
  0
VERTEX
  8
0
 10
229.006578
 20
129.995316
 42
0.000000
  0
VERTEX
  8
0
 10
226.013155
 20
132.126821
 42
0.000000
  0
VERTEX
  8
0
 10
223.535901
 20
129.313411
 42
0.000000
  0
VERTEX
  8
0
 10
221.058646
 20
126.500000
 42
0.000000
  0
VERTEX
  8
0
 10
223.779323
 20
124.254967
 42
0.000000
  0
VERTEX
  8
0
 10
226.500000
 20
122.009934
 42
0.000000
  0
VERTEX
  8
0
 10
221.218615
 20
122.004967
 42
-0.016895
  0
VERTEX
  8
0
 10
218.936663
 20
122.079949
 42
-0.037932
  0
VERTEX
  8
0
 10
217.222414
 20
122.325828
 42
-0.051587
  0
VERTEX
  8
0
 10
216.061208
 20
122.712408
 42
-0.225517
  0
VERTEX
  8
0
 10
215.605887
 20
123.250000
 42
-0.004417
  0
VERTEX
  8
0
 10
215.398365
 20
124.061770
 42
-0.000361
  0
VERTEX
  8
0
 10
214.876149
 20
126.189063
 42
-0.000485
  0
VERTEX
  8
0
 10
214.257469
 20
128.727855
 42
-0.000373
  0
VERTEX
  8
0
 10
213.586962
 20
131.500000
 42
0.023649
  0
VERTEX
  8
0
 10
211.949339
 20
137.113387
 42
0.018908
  0
VERTEX
  8
0
 10
209.676687
 20
142.990957
 42
0.010765
  0
VERTEX
  8
0
 10
207.288695
 20
148.221317
 42
0.287817
  0
VERTEX
  8
0
 10
206.048013
 20
149.000000
 42
0.366881
  0
VERTEX
  8
0
 10
205.208728
 20
148.288379
 42
0.005188
  0
VERTEX
  8
0
 10
204.118499
 20
141.259674
 42
0.013541
  0
VERTEX
  8
0
 10
203.274221
 20
134.041035
 42
0.022341
  0
VERTEX
  8
0
 10
203.000000
 20
127.906892
 42
0.000000
  0
VERTEX
  8
0
 10
203.000000
 20
121.895481
 42
0.000000
  0
VERTEX
  8
0
 10
197.818936
 20
122.197740
 42
0.000000
  0
VERTEX
  8
0
 10
192.637871
 20
122.500000
 42
0.000000
  0
VERTEX
  8
0
 10
190.842357
 20
129.822765
 42
0.021315
  0
VERTEX
  8
0
 10
189.103107
 20
135.801890
 42
0.015608
  0
VERTEX
  8
0
 10
186.688187
 20
142.278281
 42
0.007353
  0
VERTEX
  8
0
 10
184.139138
 20
148.260114
 42
0.296579
  0
VERTEX
  8
0
 10
183.001489
 20
149.000000
 42
0.358389
  0
VERTEX
  8
0
 10
182.040235
 20
148.209456
 42
0.009737
  0
VERTEX
  8
0
 10
181.024461
 20
142.458037
 42
0.018183
  0
VERTEX
  8
0
 10
180.256155
 20
136.030869
 42
0.020657
  0
VERTEX
  8
0
 10
180.000000
 20
129.833219
 42
0.000000
  0
VERTEX
  8
0
 10
180.000000
 20
122.000000
 42
0.000000
  0
VERTEX
  8
0
 10
173.519052
 20
122.000000
 42
-0.007447
  0
VERTEX
  8
0
 10
169.424398
 20
122.060990
 42
-0.085137
  0
VERTEX
  8
0
 10
167.848010
 20
122.379971
 42
-0.184668
  0
VERTEX
  8
0
 10
166.995974
 20
123.149775
 42
-0.062411
  0
VERTEX
  8
0
 10
166.418771
 20
124.750000
 42
0.006302
  0
VERTEX
  8
0
 10
165.081822
 20
130.355804
 42
0.016267
  0
VERTEX
  8
0
 10
163.935226
 20
134.354414
 42
0.018445
  0
VERTEX
  8
0
 10
162.620600
 20
137.970730
 42
0.010464
  0
VERTEX
  8
0
 10
160.778533
 20
142.250000
 42
0.008441
  0
VERTEX
  8
0
 10
159.546938
 20
144.837163
 42
0.013172
  0
VERTEX
  8
0
 10
158.391071
 20
147.017188
 42
0.007291
  0
VERTEX
  8
0
 10
157.363651
 20
148.776971
 42
0.262750
  0
VERTEX
  8
0
 10
156.968539
 20
149.000000
 42
0.343869
  0
VERTEX
  8
0
 10
156.125650
 20
148.342575
 42
0.022702
  0
VERTEX
  8
0
 10
155.470605
 20
145.120871
 42
0.019154
  0
VERTEX
  8
0
 10
154.883679
 20
140.122509
 42
0.005324
  0
VERTEX
  8
0
 10
154.348013
 20
132.250000
 42
0.000000
  0
VERTEX
  8
0
 10
153.702791
 20
121.000000
 42
0.000000
  0
VERTEX
  8
0
 10
105.101395
 20
120.952788
 42
0.000909
  0
VERTEX
  8
0
 10
85.938984
 20
120.899334
 42
0.001220
  0
VERTEX
  8
0
 10
68.573535
 20
120.776942
 42
0.000837
  0
VERTEX
  8
0
 10
54.005149
 20
120.614325
 42
0.012940
  0
VERTEX
  8
0
 10
49.000000
 20
120.420461
 42
0.018416
  0
VERTEX
  8
0
 10
40.630996
 20
119.568757
 42
0.027087
  0
VERTEX
  8
0
 10
33.377208
 20
118.155579
 42
0.031428
  0
VERTEX
  8
0
 10
27.456838
 20
116.263004
 42
0.065558
  0
VERTEX
  8
0
 10
23.222959
 20
113.932578
 42
0.103373
  0
VERTEX
  8
0
 10
17.766010
 20
107.843274
 42
0.106260
  0
VERTEX
  8
0
 10
15.272600
 20
100.137531
 42
0.106740
  0
VERTEX
  8
0
 10
16.170374
 20
92.115980
 42
0.105176
  0
VERTEX
  8
0
 10
20.297728
 20
85.131302
 42
0.069824
  0
VERTEX
  8
0
 10
23.235442
 20
82.716168
 42
0.030148
  0
VERTEX
  8
0
 10
27.719476
 20
80.333758
 42
0.029824
  0
VERTEX
  8
0
 10
32.708219
 20
78.407567
 42
0.043792
  0
VERTEX
  8
0
 10
37.292624
 20
77.376073
 42
0.000000
  0
VERTEX
  8
0
 10
42.085249
 20
76.731030
 42
0.000000
  0
VERTEX
  8
0
 10
41.792624
 20
70.115515
 42
0.000000
  0
VERTEX
  8
0
 10
41.500000
 20
63.500000
 42
0.000000
  0
VERTEX
  8
0
 10
34.342913
 20
62.942567
 42
0.037116
  0
VERTEX
  8
0
 10
28.855619
 20
62.102430
 42
0.066230
  0
VERTEX
  8
0
 10
24.586791
 20
60.503467
 42
0.070885
  0
VERTEX
  8
0
 10
21.078252
 20
57.933540
 42
0.049124
  0
VERTEX
  8
0
 10
17.909824
 20
54.163446
 42
0.038073
  0
VERTEX
  8
0
 10
16.689354
 20
52.054516
 42
0.054476
  0
VERTEX
  8
0
 10
15.969928
 20
50.018579
 42
0.042927
  0
VERTEX
  8
0
 10
15.607437
 20
47.536592
 42
0.014807
  0
VERTEX
  8
0
 10
15.500000
 20
43.909411
 42
0.014910
  0
VERTEX
  8
0
 10
15.614880
 20
40.057862
 42
0.051791
  0
VERTEX
  8
0
 10
16.018923
 20
37.602998
 42
0.060824
  0
VERTEX
  8
0
 10
16.881102
 20
35.494230
 42
0.026349
  0
VERTEX
  8
0
 10
18.500000
 20
32.925201
 42
0.032800
  0
VERTEX
  8
0
 10
19.940260
 20
31.146206
 42
0.022253
  0
VERTEX
  8
0
 10
21.793750
 20
29.312037
 42
0.022472
  0
VERTEX
  8
0
 10
23.751064
 20
27.694209
 42
0.041145
  0
VERTEX
  8
0
 10
25.500000
 20
26.589059
 42
0.000000
  0
VERTEX
  8
0
 10
29.500000
 20
24.500000
 42
0.000000
  0
VERTEX
  8
0
 10
258.500000
 20
24.206752
 42
0.000262
  0
VERTEX
  8
0
 10
365.727143
 20
24.125582
 42
0.000912
  0
VERTEX
  8
0
 10
434.965212
 20
24.235757
 42
0.000202
  0
VERTEX
  8
0
 10
487.328296
 20
24.435792
 42
0.069377
  0
VERTEX
  8
0
 10
491.266580
 20
25.001861
 42
0.066100
  0
VERTEX
  8
0
 10
494.858356
 20
26.577057
 42
0.041863
  0
VERTEX
  8
0
 10
498.561013
 20
29.270949
 42
0.042144
  0
VERTEX
  8
0
 10
501.719086
 20
32.502509
 42
0.073602
  0
VERTEX
  8
0
 10
503.648956
 20
35.702258
 42
0.084435
  0
VERTEX
  8
0
 10
504.964686
 20
41.390536
 42
0.062067
  0
VERTEX
  8
0
 10
504.542663
 20
47.860284
 42
0.063510
  0
VERTEX
  8
0
 10
502.582756
 20
53.855451
 42
0.102258
  0
VERTEX
  8
0
 10
499.356410
 20
58.129411
 42
0.046145
  0
VERTEX
  8
0
 10
496.557953
 20
60.161863
 42
0.040839
  0
VERTEX
  8
0
 10
493.320024
 20
61.743116
 42
0.040967
  0
VERTEX
  8
0
 10
489.879461
 20
62.772697
 42
0.047237
  0
VERTEX
  8
0
 10
486.478236
 20
63.163758
 42
0.000000
  0
VERTEX
  8
0
 10
482.000000
 20
63.253646
 42
0.000000
  0
VERTEX
  8
0
 10
482.000000
 20
68.298082
 42
-0.022664
  0
VERTEX
  8
0
 10
482.104357
 20
70.599150
 42
-0.036783
  0
VERTEX
  8
0
 10
482.424117
 20
72.529322
 42
-0.044328
  0
VERTEX
  8
0
 10
482.946076
 20
74.071753
 42
-0.080338
  0
VERTEX
  8
0
 10
483.669031
 20
75.186777
 42
-0.028076
  0
VERTEX
  8
0
 10
484.752271
 20
76.256448
 42
-0.205460
  0
VERTEX
  8
0
 10
485.429405
 20
76.479100
 42
-0.153776
  0
VERTEX
  8
0
 10
486.168895
 20
76.172737
 42
-0.014067
  0
VERTEX
  8
0
 10
487.675765
 20
74.834878
 42
0.000000
  0
VERTEX
  8
0
 10
490.013467
 20
72.638720
 42
0.000000
  0
VERTEX
  8
0
 10
493.069726
 20
75.566801
 42
0.000000
  0
VERTEX
  8
0
 10
496.125984
 20
78.494883
 42
0.000000
  0
VERTEX
  8
0
 10
493.447608
 20
80.798724
 42
-0.012827
  0
VERTEX
  8
0
 10
492.446827
 20
81.705245
 42
-0.021729
  0
VERTEX
  8
0
 10
491.663337
 20
82.520265
 42
-0.017764
  0
VERTEX
  8
0
 10
491.111683
 20
83.193175
 42
-0.393717
  0
VERTEX
  8
0
 10
491.134616
 20
83.424106
 42
-0.052592
  0
VERTEX
  8
0
 10
491.403448
 20
83.614640
 42
-0.002784
  0
VERTEX
  8
0
 10
492.324197
 20
84.124745
 42
-0.004355
  0
VERTEX
  8
0
 10
493.429792
 20
84.716787
 42
-0.003154
  0
VERTEX
  8
0
 10
494.671162
 20
85.357735
 42
0.069608
  0
VERTEX
  8
0
 10
497.697822
 20
87.469988
 42
0.063841
  0
VERTEX
  8
0
 10
500.131552
 20
90.388957
 42
0.052930
  0
VERTEX
  8
0
 10
502.086854
 20
94.318472
 42
0.028512
  0
VERTEX
  8
0
 10
503.681824
 20
99.493818
 42
0.015276
  0
VERTEX
  8
0
 10
504.457309
 20
103.107511
 42
0.033172
  0
VERTEX
  8
0
 10
504.781516
 20
105.926127
 42
0.035925
  0
VERTEX
  8
0
 10
504.717896
 20
108.619225
 42
0.021249
  0
VERTEX
  8
0
 10
504.275681
 20
111.804936
 42
-0.012666
  0
VERTEX
  8
0
 10
503.881234
 20
114.327818
 42
-0.030453
  0
VERTEX
  8
0
 10
503.751133
 20
116.213771
 42
-0.039185
  0
VERTEX
  8
0
 10
503.844675
 20
117.541393
 42
-0.217913
  0
VERTEX
  8
0
 10
504.225195
 20
118.125000
 42
0.434344
  0
VERTEX
  8
0
 10
504.361856
 20
118.845727
 42
0.167303
  0
VERTEX
  8
0
 10
503.423091
 20
119.497849
 42
0.032187
  0
VERTEX
  8
0
 10
500.373669
 20
120.151778
 42
0.004278
  0
VERTEX
  8
0
 10
493.843042
 20
121.061002
 42
-0.006481
  0
VERTEX
  8
0
 10
489.085422
 20
121.744759
 42
-0.030339
  0
VERTEX
  8
0
 10
486.384542
 20
122.338424
 42
-0.062571
  0
VERTEX
  8
0
 10
484.951149
 20
122.947839
 42
-0.367927
  0
VERTEX
  8
0
 10
484.700031
 20
123.660677
 42
0.417630
  0
VERTEX
  8
0
 10
484.267202
 20
124.617498
 42
0.083462
  0
VERTEX
  8
0
 10
482.221567
 20
125.007136
 42
0.056283
  0
VERTEX
  8
0
 10
479.317500
 20
124.742819
 42
0.056137
  0
VERTEX
  8
0
 10
476.542827
 20
123.837559
 42
-0.023071
  0
VERTEX
  8
0
 10
475.527584
 20
123.430418
 42
-0.032464
  0
VERTEX
  8
0
 10
474.587647
 20
123.169925
 42
-0.033834
  0
VERTEX
  8
0
 10
473.825267
 20
123.064195
 42
-0.217213
  0
VERTEX
  8
0
 10
473.469541
 20
123.197125
 42
-0.207489
  0
VERTEX
  8
0
 10
473.279448
 20
123.678320
 42
-0.001799
  0
VERTEX
  8
0
 10
473.427154
 20
127.718510
 42
-0.005865
  0
VERTEX
  8
0
 10
473.670168
 20
132.399309
 42
-0.003702
  0
VERTEX
  8
0
 10
474.058275
 20
137.856045
 42
0.002653
  0
VERTEX
  8
0
 10
474.459756
 20
143.338277
 42
0.004045
  0
VERTEX
  8
0
 10
474.744473
 20
148.101267
 42
0.001516
  0
VERTEX
  8
0
 10
474.943482
 20
152.194235
 42
0.101745
  0
VERTEX
  8
0
 10
474.834507
 20
152.881562
 42
0.492941
  0
VERTEX
  8
0
 10
474.518777
 20
152.977431
 42
0.034528
  0
VERTEX
  8
0
 10
473.691610
 20
152.294458
 42
0.027992
  0
VERTEX
  8
0
 10
472.621822
 20
151.158925
 42
0.014607
  0
SEQEND
  0
POLYLINE
  8
0
 66
1
 70
1
  0
VERTEX
  8
0
 10
370.233821
 20
136.338864
 42
-0.004876
  0
VERTEX
  8
0
 10
369.148172
 20
134.103040
 42
-0.137880
  0
VERTEX
  8
0
 10
368.719825
 20
133.629967
 42
-0.509983
  0
VERTEX
  8
0
 10
368.407852
 20
133.755392
 42
-0.024977
  0
VERTEX
  8
0
 10
368.155030
 20
135.032836
 42
-0.065210
  0
VERTEX
  8
0
 10
368.139075
 20
136.081993
 42
-0.065085
  0
VERTEX
  8
0
 10
368.393767
 20
137.100598
 42
-0.066644
  0
VERTEX
  8
0
 10
368.893701
 20
137.998373
 42
-0.074698
  0
VERTEX
  8
0
 10
369.596160
 20
138.693972
 42
-0.010356
  0
VERTEX
  8
0
 10
371.267322
 20
139.863625
 42
-0.513113
  0
VERTEX
  8
0
 10
371.590903
 20
139.742488
 42
-0.175028
  0
VERTEX
  8
0
 10
371.542213
 20
139.150973
 42
-0.003402
  0
SEQEND
  0
POLYLINE
  8
0
 66
1
 70
1
  0
VERTEX
  8
0
 10
159.317378
 20
128.662108
 42
-0.006070
  0
VERTEX
  8
0
 10
160.665116
 20
124.198319
 42
-0.081183
  0
VERTEX
  8
0
 10
160.867902
 20
122.503338
 42
-0.264363
  0
VERTEX
  8
0
 10
160.344582
 20
121.668330
 42
-0.105102
  0
VERTEX
  8
0
 10
159.000000
 20
121.274953
 42
-0.081189
  0
VERTEX
  8
0
 10
157.990342
 20
121.362851
 42
-0.191796
  0
VERTEX
  8
0
 10
157.389558
 20
121.798917
 42
-0.118294
  0
VERTEX
  8
0
 10
157.080545
 20
122.705629
 42
-0.023246
  0
VERTEX
  8
0
 10
157.000000
 20
124.437149
 42
0.015044
  0
VERTEX
  8
0
 10
156.955006
 20
125.932256
 42
0.009153
  0
VERTEX
  8
0
 10
156.816406
 20
127.694819
 42
0.009169
  0
VERTEX
  8
0
 10
156.614716
 20
129.439141
 42
0.015987
  0
VERTEX
  8
0
 10
156.375000
 20
130.875000
 42
-0.047820
  0
VERTEX
  8
0
 10
156.105073
 20
133.516634
 42
-0.620659
  0
VERTEX
  8
0
 10
156.780456
 20
133.856411
 42
-0.133891
  0
VERTEX
  8
0
 10
157.995021
 20
132.290717
 42
-0.022056
  0
SEQEND
  0
POLYLINE
  8
0
 66
1
 70
1
  0
VERTEX
  8
0
 10
185.317378
 20
128.662108
 42
-0.004201
  0
VERTEX
  8
0
 10
186.713054
 20
124.101232
 42
-0.103023
  0
VERTEX
  8
0
 10
186.822455
 20
122.789987
 42
-0.322948
  0
VERTEX
  8
0
 10
186.253378
 20
122.175230
 42
-0.049845
  0
VERTEX
  8
0
 10
184.500000
 20
122.000000
 42
-0.072846
  0
VERTEX
  8
0
 10
183.064029
 20
122.210324
 42
-0.224968
  0
VERTEX
  8
0
 10
182.354167
 20
122.850000
 42
-0.091609
  0
VERTEX
  8
0
 10
182.055253
 20
124.238228
 42
-0.007344
  0
VERTEX
  8
0
 10
182.000000
 20
128.000000
 42
-0.012794
  0
VERTEX
  8
0
 10
182.058869
 20
130.300309
 42
-0.021059
  0
VERTEX
  8
0
 10
182.240105
 20
132.237500
 42
-0.016430
  0
VERTEX
  8
0
 10
182.494722
 20
133.736486
 42
-0.356464
  0
VERTEX
  8
0
 10
182.817378
 20
134.000000
 42
-0.274433
  0
VERTEX
  8
0
 10
183.214216
 20
133.764449
 42
-0.015359
  0
VERTEX
  8
0
 10
183.888921
 20
132.431994
 42
-0.020122
  0
VERTEX
  8
0
 10
184.613368
 20
130.707803
 42
-0.013043
  0
SEQEND
  0
POLYLINE
  8
0
 66
1
 70
1
  0
VERTEX
  8
0
 10
207.863263
 20
129.628753
 42
0.004130
  0
VERTEX
  8
0
 10
208.330521
 20
127.835773
 42
0.004216
  0
VERTEX
  8
0
 10
208.824224
 20
126.063113
 42
0.004095
  0
VERTEX
  8
0
 10
209.278604
 20
124.530665
 42
0.017494
  0
VERTEX
  8
0
 10
209.588967
 20
123.628753
 42
-0.068479
  0
VERTEX
  8
0
 10
209.765370
 20
122.874212
 42
-0.201158
  0
VERTEX
  8
0
 10
209.608848
 20
122.375468
 42
-0.171233
  0
VERTEX
  8
0
 10
209.116387
 20
122.086593
 42
-0.047869
  0
VERTEX
  8
0
 10
208.213978
 20
122.000000
 42
-0.142913
  0
VERTEX
  8
0
 10
206.692366
 20
122.443986
 42
-0.151657
  0
VERTEX
  8
0
 10
205.690448
 20
123.628769
 42
-0.080520
  0
VERTEX
  8
0
 10
205.148960
 20
125.839073
 42
-0.019892
  0
VERTEX
  8
0
 10
205.000000
 20
129.581787
 42
-0.020695
  0
VERTEX
  8
0
 10
205.146982
 20
133.131439
 42
-0.385457
  0
VERTEX
  8
0
 10
205.900058
 20
133.836124
 42
-0.327375
  0
VERTEX
  8
0
 10
206.825933
 20
133.180216
 42
-0.018755
  0
SEQEND
  0
POLYLINE
  8
0
 66
1
 70
1
  0
VERTEX
  8
0
 10
361.802260
 20
128.750000
 42
-0.010537
  0
VERTEX
  8
0
 10
361.537007
 20
125.381497
 42
-0.122106
  0
VERTEX
  8
0
 10
361.095579
 20
124.144095
 42
-0.191399
  0
VERTEX
  8
0
 10
360.192108
 20
123.516802
 42
-0.033382
  0
VERTEX
  8
0
 10
358.104865
 20
123.175817
 42
-0.060510
  0
VERTEX
  8
0
 10
355.674655
 20
123.238229
 42
-0.160624
  0
VERTEX
  8
0
 10
354.141242
 20
124.007675
 42
-0.147814
  0
VERTEX
  8
0
 10
353.289632
 20
125.590187
 42
-0.048692
  0
VERTEX
  8
0
 10
353.015313
 20
128.247132
 42
-0.058834
  0
VERTEX
  8
0
 10
353.175426
 20
129.671271
 42
-0.108028
  0
VERTEX
  8
0
 10
353.675241
 20
130.720091
 42
-0.091365
  0
VERTEX
  8
0
 10
354.633618
 20
131.575413
 42
-0.033551
  0
VERTEX
  8
0
 10
356.250000
 20
132.415558
 42
-0.018170
  0
VERTEX
  8
0
 10
359.826373
 20
133.827131
 42
-0.234960
  0
VERTEX
  8
0
 10
361.208660
 20
133.657707
 42
-0.246185
  0
VERTEX
  8
0
 10
361.868642
 20
132.462491
 42
-0.019818
  0
SEQEND
  0
POLYLINE
  8
0
 66
1
 70
1
  0
VERTEX
  8
0
 10
498.581997
 20
115.085587
 42
0.040610
  0
VERTEX
  8
0
 10
497.344759
 20
113.564357
 42
0.061550
  0
VERTEX
  8
0
 10
496.560099
 20
112.052317
 42
0.057786
  0
VERTEX
  8
0
 10
496.136796
 20
110.324758
 42
0.031223
  0
VERTEX
  8
0
 10
496.000000
 20
108.136264
 42
0.018443
  0
VERTEX
  8
0
 10
496.063331
 20
106.419878
 42
0.048691
  0
VERTEX
  8
0
 10
496.272446
 20
105.209413
 42
0.100442
  0
VERTEX
  8
0
 10
496.595508
 20
104.571189
 42
0.380854
  0
VERTEX
  8
0
 10
497.000000
 20
104.500000
 42
-0.356292
  0
VERTEX
  8
0
 10
497.605053
 20
104.420303
 42
-0.133447
  0
VERTEX
  8
0
 10
498.037285
 20
103.609885
 42
-0.062254
  0
VERTEX
  8
0
 10
498.194656
 20
102.046004
 42
-0.028561
  0
VERTEX
  8
0
 10
498.028229
 20
100.000000
 42
-0.204180
  0
VERTEX
  8
0
 10
495.398575
 20
95.623921
 42
-0.078578
  0
VERTEX
  8
0
 10
488.947592
 20
92.346659
 42
-0.073517
  0
VERTEX
  8
0
 10
481.263015
 20
91.055674
 42
-0.124874
  0
VERTEX
  8
0
 10
474.950340
 20
92.525680
 42
-0.073734
  0
VERTEX
  8
0
 10
473.058023
 20
93.889381
 42
-0.142241
  0
VERTEX
  8
0
 10
472.143464
 20
95.499531
 42
-0.060920
  0
VERTEX
  8
0
 10
471.837182
 20
98.215936
 42
-0.005619
  0
VERTEX
  8
0
 10
471.977291
 20
105.000000
 42
-0.030246
  0
VERTEX
  8
0
 10
472.409272
 20
109.663828
 42
-0.090190
  0
VERTEX
  8
0
 10
473.452554
 20
112.682821
 42
-0.140550
  0
VERTEX
  8
0
 10
475.170714
 20
114.378820
 42
-0.125563
  0
VERTEX
  8
0
 10
477.605297
 20
115.000000
 42
0.057485
  0
VERTEX
  8
0
 10
478.543789
 20
115.108257
 42
0.052166
  0
VERTEX
  8
0
 10
479.465994
 20
115.428186
 42
0.055545
  0
VERTEX
  8
0
 10
480.236148
 20
115.899459
 42
0.100455
  0
VERTEX
  8
0
 10
480.716365
 20
116.457655
 42
-0.180589
  0
VERTEX
  8
0
 10
481.555701
 20
117.169316
 42
-0.042331
  0
VERTEX
  8
0
 10
483.366520
 20
117.653605
 42
-0.027865
  0
VERTEX
  8
0
 10
486.176075
 20
117.995229
 42
-0.008189
  0
VERTEX
  8
0
 10
490.516055
 20
118.207655
 42
-0.004004
  0
VERTEX
  8
0
 10
494.018733
 20
118.293565
 42
-0.005844
  0
VERTEX
  8
0
 10
497.105365
 20
118.308463
 42
-0.003048
  0
VERTEX
  8
0
 10
499.712344
 20
118.274685
 42
-0.097560
  0
VERTEX
  8
0
 10
500.331997
 20
118.140306
 42
-0.384202
  0
VERTEX
  8
0
 10
500.478508
 20
117.820094
 42
-0.053984
  0
VERTEX
  8
0
 10
500.161134
 20
117.094608
 42
-0.039405
  0
VERTEX
  8
0
 10
499.512907
 20
116.145087
 42
-0.021553
  0
SEQEND
  0
POLYLINE
  8
0
 66
1
 70
1
  0
VERTEX
  8
0
 10
449.000000
 20
112.441817
 42
-0.015065
  0
VERTEX
  8
0
 10
443.681007
 20
107.246995
 42
-0.015928
  0
VERTEX
  8
0
 10
438.154209
 20
102.481079
 42
-0.008637
  0
VERTEX
  8
0
 10
433.150682
 20
98.577886
 42
-0.512457
  0
VERTEX
  8
0
 10
432.209683
 20
98.870951
 42
0.121630
  0
VERTEX
  8
0
 10
431.630365
 20
99.787178
 42
0.287607
  0
VERTEX
  8
0
 10
430.871960
 20
99.944713
 42
0.217958
  0
VERTEX
  8
0
 10
430.225245
 20
99.299169
 42
0.089513
  0
VERTEX
  8
0
 10
430.000000
 20
98.051082
 42
-0.166864
  0
VERTEX
  8
0
 10
429.625198
 20
96.959278
 42
-0.063970
  0
VERTEX
  8
0
 10
428.470555
 20
95.813220
 42
-0.039645
  0
VERTEX
  8
0
 10
426.455424
 20
94.508319
 42
-0.012450
  0
VERTEX
  8
0
 10
423.250000
 20
92.878032
 42
-0.018712
  0
VERTEX
  8
0
 10
419.186172
 20
91.120513
 42
-0.039387
  0
VERTEX
  8
0
 10
415.895877
 20
90.131348
 42
-0.032722
  0
VERTEX
  8
0
 10
412.127196
 20
89.569926
 42
-0.009452
  0
VERTEX
  8
0
 10
406.250000
 20
89.195869
 42
-0.004600
  0
VERTEX
  8
0
 10
402.319634
 20
89.056452
 42
-0.007685
  0
VERTEX
  8
0
 10
399.010938
 20
89.020424
 42
-0.002361
  0
VERTEX
  8
0
 10
396.192738
 20
89.046360
 42
-0.410141
  0
VERTEX
  8
0
 10
396.000000
 20
89.241801
 42
-0.092690
  0
VERTEX
  8
0
 10
396.065289
 20
89.590964
 42
-0.002699
  0
VERTEX
  8
0
 10
396.618451
 20
90.995835
 42
-0.005345
  0
VERTEX
  8
0
 10
397.298656
 20
92.645024
 42
-0.003648
  0
VERTEX
  8
0
 10
398.105365
 20
94.505290
 42
0.026811
  0
VERTEX
  8
0
 10
399.130892
 20
97.206357
 42
0.041254
  0
VERTEX
  8
0
 10
399.692760
 20
99.641182
 42
0.036696
  0
VERTEX
  8
0
 10
399.884180
 20
102.333742
 42
0.016446
  0
VERTEX
  8
0
 10
399.758948
 20
105.882408
 42
0.008696
  0
VERTEX
  8
0
 10
399.530777
 20
108.542843
 42
0.010094
  0
VERTEX
  8
0
 10
399.218734
 20
111.064218
 42
0.009216
  0
VERTEX
  8
0
 10
398.873215
 20
113.181673
 42
0.057639
  0
VERTEX
  8
0
 10
398.554337
 20
114.229824
 42
-0.420273
  0
VERTEX
  8
0
 10
398.948818
 20
115.202657
 42
-0.072790
  0
VERTEX
  8
0
 10
401.091711
 20
115.737329
 42
-0.019954
  0
VERTEX
  8
0
 10
405.919598
 20
116.023912
 42
-0.001607
  0
VERTEX
  8
0
 10
418.650754
 20
116.229824
 42
0.000925
  0
VERTEX
  8
0
 10
427.146217
 20
116.355634
 42
0.000997
  0
VERTEX
  8
0
 10
435.431784
 20
116.510195
 42
0.000940
  0
VERTEX
  8
0
 10
442.542012
 20
116.670390
 42
0.004780
  0
VERTEX
  8
0
 10
446.500000
 20
116.804883
 42
0.000000
  0
VERTEX
  8
0
 10
453.500000
 20
117.109766
 42
0.000000
  0
SEQEND
  0
POLYLINE
  8
0
 66
1
 70
1
  0
VERTEX
  8
0
 10
466.000000
 20
114.424260
 42
-0.154519
  0
VERTEX
  8
0
 10
464.759017
 20
110.504511
 42
-0.012116
  0
VERTEX
  8
0
 10
458.157924
 20
101.591337
 42
-0.016309
  0
VERTEX
  8
0
 10
451.078419
 20
93.088406
 42
-0.069789
  0
VERTEX
  8
0
 10
446.062906
 20
88.824939
 42
-0.026102
  0
VERTEX
  8
0
 10
442.438937
 20
86.783628
 42
-0.105917
  0
VERTEX
  8
0
 10
439.998637
 20
86.161186
 42
-0.134749
  0
VERTEX
  8
0
 10
437.840157
 20
86.664735
 42
-0.053373
  0
VERTEX
  8
0
 10
435.311249
 20
88.408698
 42
0.000000
  0
VERTEX
  8
0
 10
432.510971
 20
90.817396
 42
0.000000
  0
VERTEX
  8
0
 10
437.505485
 20
95.148471
 42
0.007414
  0
VERTEX
  8
0
 10
443.422353
 20
100.435108
 42
0.003284
  0
VERTEX
  8
0
 10
451.082735
 20
107.580091
 42
0.000797
  0
VERTEX
  8
0
 10
459.037929
 20
115.122387
 42
0.098370
  0
VERTEX
  8
0
 10
459.833333
 20
116.250000
 42
-0.199787
  0
VERTEX
  8
0
 10
460.140494
 20
116.540884
 42
-0.034266
  0
VERTEX
  8
0
 10
460.925521
 20
116.779687
 42
-0.032715
  0
VERTEX
  8
0
 10
461.942023
 20
116.945183
 42
-0.024001
  0
VERTEX
  8
0
 10
463.083333
 20
117.000000
 42
-0.032124
  0
VERTEX
  8
0
 10
464.651579
 20
116.899140
 42
-0.149845
  0
VERTEX
  8
0
 10
465.466910
 20
116.529222
 42
-0.169496
  0
VERTEX
  8
0
 10
465.879220
 20
115.794855
 42
-0.043976
  0
SEQEND
  0
POLYLINE
  8
0
 66
1
 70
1
  0
VERTEX
  8
0
 10
340.980185
 20
108.917400
 42
0.006795
  0
VERTEX
  8
0
 10
339.908866
 20
104.168025
 42
0.437010
  0
VERTEX
  8
0
 10
340.349189
 20
103.545644
 42
0.352333
  0
VERTEX
  8
0
 10
341.098513
 20
104.001390
 42
0.006471
  0
VERTEX
  8
0
 10
342.724161
 20
108.687500
 42
-0.015766
  0
VERTEX
  8
0
 10
343.746398
 20
111.466296
 42
-0.047497
  0
VERTEX
  8
0
 10
344.676088
 20
113.256613
 42
-0.075208
  0
VERTEX
  8
0
 10
345.622317
 20
114.326771
 42
-0.138209
  0
VERTEX
  8
0
 10
346.675308
 20
114.799499
 42
-0.141483
  0
VERTEX
  8
0
 10
347.770109
 20
114.652125
 42
-0.212171
  0
VERTEX
  8
0
 10
348.408994
 20
113.949255
 42
-0.066523
  0
VERTEX
  8
0
 10
348.724287
 20
112.280663
 42
-0.006179
  0
VERTEX
  8
0
 10
348.898889
 20
108.080749
 42
-0.022237
  0
VERTEX
  8
0
 10
348.825984
 20
103.308237
 42
-0.058699
  0
VERTEX
  8
0
 10
348.225164
 20
99.949395
 42
-0.069361
  0
VERTEX
  8
0
 10
346.934876
 20
97.156423
 42
-0.041880
  0
VERTEX
  8
0
 10
344.710327
 20
94.260223
 42
-0.089938
  0
VERTEX
  8
0
 10
341.871336
 20
92.089834
 42
-0.030138
  0
VERTEX
  8
0
 10
337.070661
 20
89.985817
 42
-0.029334
  0
VERTEX
  8
0
 10
331.457167
 20
88.285264
 42
-0.032852
  0
VERTEX
  8
0
 10
325.891081
 20
87.330827
 42
0.000000
  0
VERTEX
  8
0
 10
320.000000
 20
86.715087
 42
0.000000
  0
VERTEX
  8
0
 10
320.000000
 20
89.702556
 42
-0.054562
  0
VERTEX
  8
0
 10
320.143085
 20
91.009871
 42
-0.044266
  0
VERTEX
  8
0
 10
320.568830
 20
92.355128
 42
-0.045127
  0
VERTEX
  8
0
 10
321.211118
 20
93.573418
 42
-0.065058
  0
VERTEX
  8
0
 10
322.000000
 20
94.500000
 42
0.056471
  0
VERTEX
  8
0
 10
322.765536
 20
95.368603
 42
0.041323
  0
VERTEX
  8
0
 10
323.412500
 20
96.480453
 42
0.042024
  0
VERTEX
  8
0
 10
323.854314
 20
97.652836
 42
0.069209
  0
VERTEX
  8
0
 10
324.000000
 20
98.700301
 42
0.044317
  0
VERTEX
  8
0
 10
323.880671
 20
100.043966
 42
0.237765
  0
VERTEX
  8
0
 10
323.452614
 20
100.614099
 42
0.147375
  0
VERTEX
  8
0
 10
322.584759
 20
100.760640
 42
0.015021
  0
VERTEX
  8
0
 10
320.500000
 20
100.434022
 42
-0.022267
  0
VERTEX
  8
0
 10
319.065231
 20
100.230486
 42
-0.048892
  0
VERTEX
  8
0
 10
317.957804
 20
100.231939
 42
-0.076931
  0
VERTEX
  8
0
 10
317.240048
 20
100.417184
 42
-0.299682
  0
VERTEX
  8
0
 10
317.000000
 20
100.781720
 42
-0.218015
  0
VERTEX
  8
0
 10
317.380575
 20
101.613052
 42
-0.075288
  0
VERTEX
  8
0
 10
318.525721
 20
102.333999
 42
-0.059214
  0
VERTEX
  8
0
 10
320.177985
 20
102.832988
 42
-0.043779
  0
VERTEX
  8
0
 10
322.081787
 20
103.000000
 42
0.020545
  0
VERTEX
  8
0
 10
322.817011
 20
103.030223
 42
0.033136
  0
VERTEX
  8
0
 10
323.436525
 20
103.122850
 42
0.035925
  0
VERTEX
  8
0
 10
323.887277
 20
103.255635
 42
0.312762
  0
VERTEX
  8
0
 10
324.000000
 20
103.418213
 42
-0.067273
  0
VERTEX
  8
0
 10
324.034180
 20
103.671099
 42
-0.007770
  0
VERTEX
  8
0
 10
324.195175
 20
104.222193
 42
-0.009241
  0
VERTEX
  8
0
 10
324.410001
 20
104.874273
 42
-0.007419
  0
VERTEX
  8
0
 10
324.664425
 20
105.567889
 42
0.049149
  0
VERTEX
  8
0
 10
324.910827
 20
106.464518
 42
0.323733
  0
VERTEX
  8
0
 10
324.717474
 20
106.858534
 42
0.169460
  0
VERTEX
  8
0
 10
324.127542
 20
106.949320
 42
0.015719
  0
VERTEX
  8
0
 10
322.664425
 20
106.630624
 42
-0.025205
  0
VERTEX
  8
0
 10
321.173002
 20
106.335269
 42
-0.178511
  0
VERTEX
  8
0
 10
320.462785
 20
106.485306
 42
-0.216967
  0
VERTEX
  8
0
 10
320.098206
 20
107.039361
 42
-0.038689
  0
VERTEX
  8
0
 10
320.000000
 20
108.306634
 42
-0.133808
  0
VERTEX
  8
0
 10
320.808398
 20
111.273285
 42
-0.138722
  0
VERTEX
  8
0
 10
323.002411
 20
113.371319
 42
-0.085635
  0
VERTEX
  8
0
 10
326.920855
 20
114.654652
 42
-0.027752
  0
VERTEX
  8
0
 10
333.017402
 20
115.205799
 42
-0.008711
  0
VERTEX
  8
0
 10
336.293502
 20
115.262312
 42
-0.013666
  0
VERTEX
  8
0
 10
339.108956
 20
115.184858
 42
-0.007687
  0
VERTEX
  8
0
 10
341.422225
 20
115.022181
 42
-0.274178
  0
VERTEX
  8
0
 10
341.842874
 20
114.721377
 42
-0.131940
  0
VERTEX
  8
0
 10
341.924449
 20
114.190415
 42
-0.009409
  0
VERTEX
  8
0
 10
341.730895
 20
112.695277
 42
-0.012727
  0
VERTEX
  8
0
 10
341.416996
 20
110.899083
 42
-0.009246
  0
SEQEND
  0
POLYLINE
  8
0
 66
1
 70
1
  0
VERTEX
  8
0
 10
361.000000
 20
108.758744
 42
-0.017650
  0
VERTEX
  8
0
 10
360.843505
 20
104.326879
 42
-0.071577
  0
VERTEX
  8
0
 10
360.272651
 20
101.693891
 42
-0.056229
  0
VERTEX
  8
0
 10
358.925332
 20
99.033307
 42
-0.008198
  0
VERTEX
  8
0
 10
355.510824
 20
94.015359
 42
-0.015652
  0
VERTEX
  8
0
 10
350.411183
 20
87.239687
 42
-0.046663
  0
VERTEX
  8
0
 10
346.374220
 20
83.074350
 42
-0.071030
  0
VERTEX
  8
0
 10
342.766964
 20
80.782676
 42
-0.106436
  0
VERTEX
  8
0
 10
339.131870
 20
80.000000
 42
-0.017934
  0
VERTEX
  8
0
 10
335.733901
 20
80.121917
 42
-0.275053
  0
VERTEX
  8
0
 10
334.809394
 20
80.766091
 42
-0.384691
  0
VERTEX
  8
0
 10
335.095212
 20
81.661216
 42
-0.024429
  0
VERTEX
  8
0
 10
337.754429
 20
83.040211
 42
0.077867
  0
VERTEX
  8
0
 10
343.639578
 20
86.937872
 42
0.066170
  0
VERTEX
  8
0
 10
348.435442
 20
92.651809
 42
0.061940
  0
VERTEX
  8
0
 10
351.822144
 20
99.801112
 42
0.053807
  0
VERTEX
  8
0
 10
353.560882
 20
107.912451
 42
-0.003260
  0
VERTEX
  8
0
 10
353.844130
 20
110.473001
 42
-0.004838
  0
VERTEX
  8
0
 10
354.128551
 20
112.711782
 42
-0.002245
  0
VERTEX
  8
0
 10
354.397243
 20
114.611166
 42
-0.093501
  0
VERTEX
  8
0
 10
354.531071
 20
115.000000
 42
-0.203802
  0
VERTEX
  8
0
 10
354.795742
 20
115.201522
 42
-0.017743
  0
VERTEX
  8
0
 10
355.640569
 20
115.384404
 42
-0.021062
  0
VERTEX
  8
0
 10
356.702760
 20
115.529308
 42
-0.014761
  0
VERTEX
  8
0
 10
357.907993
 20
115.606481
 42
0.000000
  0
VERTEX
  8
0
 10
361.000000
 20
115.712962
 42
0.000000
  0
SEQEND
  0
POLYLINE
  8
0
 66
1
 70
1
  0
VERTEX
  8
0
 10
369.767927
 20
114.000000
 42
-0.039831
  0
VERTEX
  8
0
 10
368.744193
 20
112.618880
 42
-0.155474
  0
VERTEX
  8
0
 10
367.846491
 20
112.074859
 42
-0.343630
  0
VERTEX
  8
0
 10
367.242646
 20
112.348604
 42
-0.121389
  0
VERTEX
  8
0
 10
367.000000
 20
113.333333
 42
-0.078970
  0
VERTEX
  8
0
 10
367.179035
 20
114.459821
 42
-0.118489
  0
VERTEX
  8
0
 10
367.698012
 20
115.304199
 42
-0.118239
  0
VERTEX
  8
0
 10
368.544978
 20
115.821647
 42
-0.078421
  0
VERTEX
  8
0
 10
369.675141
 20
116.000000
 42
-0.079755
  0
VERTEX
  8
0
 10
370.290833
 20
115.901162
 42
-0.311005
  0
VERTEX
  8
0
 10
370.511841
 20
115.610081
 42
-0.135791
  0
VERTEX
  8
0
 10
370.389107
 20
115.070285
 42
-0.016188
  0
SEQEND
  0
POLYLINE
  8
0
 66
1
 70
1
  0
VERTEX
  8
0
 10
383.358408
 20
113.250000
 42
0.051471
  0
VERTEX
  8
0
 10
383.024850
 20
111.602074
 42
0.008084
  0
VERTEX
  8
0
 10
382.757561
 20
108.296875
 42
0.008910
  0
VERTEX
  8
0
 10
382.574291
 20
104.375944
 42
0.007671
  0
VERTEX
  8
0
 10
382.518394
 20
100.250000
 42
0.000000
  0
VERTEX
  8
0
 10
382.536789
 20
90.000000
 42
0.000000
  0
VERTEX
  8
0
 10
377.691471
 20
90.000000
 42
-0.024060
  0
VERTEX
  8
0
 10
375.034519
 20
90.127928
 42
-0.066013
  0
VERTEX
  8
0
 10
373.208917
 20
90.551639
 42
-0.072627
  0
VERTEX
  8
0
 10
371.657591
 20
91.409008
 42
-0.033890
  0
VERTEX
  8
0
 10
369.923077
 20
92.923077
 42
-0.106365
  0
VERTEX
  8
0
 10
367.424599
 20
96.791480
 42
-0.130079
  0
VERTEX
  8
0
 10
366.984047
 20
101.060757
 42
-0.148864
  0
VERTEX
  8
0
 10
368.693094
 20
104.585837
 42
-0.153080
  0
VERTEX
  8
0
 10
372.058749
 20
106.512903
 42
0.043323
  0
VERTEX
  8
0
 10
373.285889
 20
106.896264
 42
0.043051
  0
VERTEX
  8
0
 10
374.431350
 20
107.485972
 42
0.046547
  0
VERTEX
  8
0
 10
375.336997
 20
108.180916
 42
0.110174
  0
VERTEX
  8
0
 10
375.817066
 20
108.876947
 42
-0.048453
  0
VERTEX
  8
0
 10
377.117342
 20
111.367480
 42
-0.041791
  0
VERTEX
  8
0
 10
378.931206
 20
113.697282
 42
-0.043089
  0
VERTEX
  8
0
 10
380.841439
 20
115.440148
 42
-0.160503
  0
VERTEX
  8
0
 10
382.358408
 20
115.968575
 42
-0.063220
  0
VERTEX
  8
0
 10
383.299686
 20
115.865221
 42
-0.250735
  0
VERTEX
  8
0
 10
383.719993
 20
115.491362
 42
-0.145443
  0
VERTEX
  8
0
 10
383.766553
 20
114.760500
 42
-0.019333
  0
SEQEND
  0
POLYLINE
  8
0
 66
1
 70
1
  0
VERTEX
  8
0
 10
394.000000
 20
115.122445
 42
-0.117955
  0
VERTEX
  8
0
 10
393.899069
 20
114.700558
 42
-0.036411
  0
VERTEX
  8
0
 10
393.559375
 20
114.136985
 42
-0.034151
  0
VERTEX
  8
0
 10
393.074049
 20
113.541110
 42
-0.031583
  0
VERTEX
  8
0
 10
392.500000
 20
113.000000
 42
0.175979
  0
VERTEX
  8
0
 10
391.470473
 20
111.241598
 42
0.030368
  0
VERTEX
  8
0
 10
390.998588
 20
107.346962
 42
0.037119
  0
VERTEX
  8
0
 10
391.048095
 20
103.896216
 42
0.557988
  0
VERTEX
  8
0
 10
391.928004
 20
103.455504
 42
-0.205325
  0
VERTEX
  8
0
 10
392.330938
 20
103.515806
 42
-0.119955
  0
VERTEX
  8
0
 10
392.767704
 20
103.279895
 42
-0.082745
  0
VERTEX
  8
0
 10
393.175251
 20
102.767251
 42
-0.049850
  0
VERTEX
  8
0
 10
393.483403
 20
102.052293
 42
-0.102051
  0
VERTEX
  8
0
 10
393.658782
 20
100.370951
 42
-0.072038
  0
VERTEX
  8
0
 10
393.199829
 20
98.521896
 42
-0.065292
  0
VERTEX
  8
0
 10
392.167701
 20
96.708832
 42
-0.057602
  0
VERTEX
  8
0
 10
390.663576
 20
95.135756
 42
-0.497778
  0
VERTEX
  8
0
 10
388.684149
 20
95.601340
 42
-0.069256
  0
VERTEX
  8
0
 10
387.330328
 20
100.349468
 42
-0.048489
  0
VERTEX
  8
0
 10
387.046862
 20
107.005153
 42
-0.073290
  0
VERTEX
  8
0
 10
388.200888
 20
112.679002
 42
-0.033165
  0
VERTEX
  8
0
 10
388.893088
 20
114.257426
 42
-0.083203
  0
VERTEX
  8
0
 10
389.647050
 20
115.258301
 42
-0.107517
  0
VERTEX
  8
0
 10
390.555176
 20
115.808787
 42
-0.082874
  0
VERTEX
  8
0
 10
391.700888
 20
116.000000
 42
-0.036337
  0
VERTEX
  8
0
 10
392.581408
 20
115.935924
 42
-0.054890
  0
VERTEX
  8
0
 10
393.324636
 20
115.742218
 42
-0.071900
  0
VERTEX
  8
0
 10
393.833571
 20
115.458756
 42
-0.233896
  0
SEQEND
  0
POLYLINE
  8
0
 66
1
 70
1
  0
VERTEX
  8
0
 10
250.522425
 20
108.725134
 42
-0.043926
  0
VERTEX
  8
0
 10
249.095390
 20
105.053590
 42
-0.142503
  0
VERTEX
  8
0
 10
247.348009
 20
103.146022
 42
-0.113846
  0
VERTEX
  8
0
 10
244.604318
 20
102.238672
 42
-0.023171
  0
VERTEX
  8
0
 10
239.456787
 20
102.000000
 42
-0.040366
  0
VERTEX
  8
0
 10
236.099262
 20
102.271501
 42
-0.113999
  0
VERTEX
  8
0
 10
233.935085
 20
103.157039
 42
-0.101994
  0
VERTEX
  8
0
 10
232.240568
 20
104.968343
 42
-0.028620
  0
VERTEX
  8
0
 10
230.402298
 20
108.401594
 42
0.000000
  0
VERTEX
  8
0
 10
228.037074
 20
113.500000
 42
0.000000
  0
VERTEX
  8
0
 10
239.768537
 20
114.000000
 42
-0.001239
  0
VERTEX
  8
0
 10
244.288182
 20
114.181406
 42
-0.001989
  0
VERTEX
  8
0
 10
248.144705
 20
114.311261
 42
-0.000348
  0
VERTEX
  8
0
 10
251.552239
 20
114.410055
 42
-0.115562
  0
VERTEX
  8
0
 10
251.809182
 20
114.357485
 42
-0.351015
  0
VERTEX
  8
0
 10
251.898660
 20
114.178561
 42
-0.003292
  0
VERTEX
  8
0
 10
251.558734
 20
112.644194
 42
-0.009059
  0
VERTEX
  8
0
 10
251.112066
 20
110.840228
 42
-0.005518
  0
SEQEND
  0
POLYLINE
  8
0
 66
1
 70
1
  0
VERTEX
  8
0
 10
259.428571
 20
113.428571
 42
-0.043839
  0
VERTEX
  8
0
 10
260.732329
 20
111.873689
 42
-0.249508
  0
VERTEX
  8
0
 10
260.858404
 20
110.837883
 42
-0.259725
  0
VERTEX
  8
0
 10
260.073446
 20
110.183850
 42
-0.046645
  0
VERTEX
  8
0
 10
258.106989
 20
110.000000
 42
-0.080715
  0
VERTEX
  8
0
 10
256.125310
 20
110.322000
 42
-0.155851
  0
VERTEX
  8
0
 10
254.841378
 20
111.260840
 42
-0.211322
  0
VERTEX
  8
0
 10
254.561933
 20
112.548578
 42
-0.146682
  0
VERTEX
  8
0
 10
255.278145
 20
113.878145
 42
-0.057080
  0
VERTEX
  8
0
 10
256.328829
 20
114.712887
 42
-0.167857
  0
VERTEX
  8
0
 10
257.216609
 20
114.915811
 42
-0.136857
  0
VERTEX
  8
0
 10
258.158158
 20
114.539829
 42
-0.033375
  0
SEQEND
  0
POLYLINE
  8
0
 66
1
 70
1
  0
VERTEX
  8
0
 10
267.000000
 20
114.298150
 42
-0.124541
  0
VERTEX
  8
0
 10
266.939642
 20
114.059586
 42
-0.005614
  0
VERTEX
  8
0
 10
266.525591
 20
113.313845
 42
-0.009119
  0
VERTEX
  8
0
 10
266.003733
 20
112.435921
 42
-0.006374
  0
VERTEX
  8
0
 10
265.384990
 20
111.464817
 42
-0.036620
  0
VERTEX
  8
0
 10
264.117905
 20
109.809230
 42
-0.130306
  0
VERTEX
  8
0
 10
263.014102
 20
109.077836
 42
-0.452008
  0
VERTEX
  8
0
 10
262.473554
 20
109.389495
 42
-0.126048
  0
VERTEX
  8
0
 10
262.531385
 20
110.500000
 42
0.000583
  0
VERTEX
  8
0
 10
262.740236
 20
111.171266
 42
0.000374
  0
VERTEX
  8
0
 10
262.981213
 20
111.951042
 42
0.000376
  0
VERTEX
  8
0
 10
263.216057
 20
112.715028
 42
0.000704
  0
VERTEX
  8
0
 10
263.404659
 20
113.333333
 42
-0.191238
  0
VERTEX
  8
0
 10
264.006758
 20
114.089312
 42
-0.064624
  0
VERTEX
  8
0
 10
265.332089
 20
114.636024
 42
-0.080639
  0
VERTEX
  8
0
 10
266.563830
 20
114.761161
 42
-0.396839
  0
SEQEND
  0
POLYLINE
  8
0
 66
1
 70
1
  0
VERTEX
  8
0
 10
275.000000
 20
113.956170
 42
-0.220805
  0
VERTEX
  8
0
 10
274.554206
 20
112.995909
 42
-0.031490
  0
VERTEX
  8
0
 10
272.764733
 20
111.667553
 42
-0.033925
  0
VERTEX
  8
0
 10
270.488597
 20
110.400996
 42
-0.037281
  0
VERTEX
  8
0
 10
268.131426
 20
109.499104
 42
0.000000
  0
VERTEX
  8
0
 10
265.762852
 20
108.789957
 42
0.000000
  0
VERTEX
  8
0
 10
267.509286
 20
111.746434
 42
-0.040736
  0
VERTEX
  8
0
 10
268.482790
 20
113.124602
 42
-0.073264
  0
VERTEX
  8
0
 10
269.513817
 20
114.043785
 42
-0.080119
  0
VERTEX
  8
0
 10
270.698171
 20
114.575455
 42
-0.058473
  0
VERTEX
  8
0
 10
272.127860
 20
114.784572
 42
-0.030030
  0
VERTEX
  8
0
 10
273.228295
 20
114.749767
 42
-0.047322
  0
VERTEX
  8
0
 10
274.156309
 20
114.574914
 42
-0.060830
  0
VERTEX
  8
0
 10
274.801273
 20
114.300466
 42
-0.267888
  0
SEQEND
  0
POLYLINE
  8
0
 66
1
 70
1
  0
VERTEX
  8
0
 10
285.000000
 20
114.122445
 42
-0.117612
  0
VERTEX
  8
0
 10
284.899452
 20
113.700900
 42
-0.036516
  0
VERTEX
  8
0
 10
284.561483
 20
113.138735
 42
-0.034240
  0
VERTEX
  8
0
 10
284.078476
 20
112.544788
 42
-0.031728
  0
VERTEX
  8
0
 10
283.507177
 20
112.005956
 42
0.080434
  0
VERTEX
  8
0
 10
282.860650
 20
111.265156
 42
0.024905
  0
VERTEX
  8
0
 10
282.139653
 20
109.967757
 42
0.024191
  0
VERTEX
  8
0
 10
281.466076
 20
108.413981
 42
0.024418
  0
VERTEX
  8
0
 10
280.948080
 20
106.807183
 42
0.051548
  0
VERTEX
  8
0
 10
280.432540
 20
103.613183
 42
0.170779
  0
VERTEX
  8
0
 10
281.014967
 20
101.597382
 42
0.151868
  0
VERTEX
  8
0
 10
282.791141
 20
100.247692
 42
0.038300
  0
VERTEX
  8
0
 10
286.330151
 20
99.261371
 42
-0.061863
  0
VERTEX
  8
0
 10
289.432892
 20
98.237260
 42
-0.219581
  0
VERTEX
  8
0
 10
290.742926
 20
96.669627
 42
-0.204743
  0
VERTEX
  8
0
 10
290.446624
 20
94.568364
 42
-0.054060
  0
VERTEX
  8
0
 10
288.342365
 20
91.811851
 42
-0.057067
  0
VERTEX
  8
0
 10
283.818942
 20
88.026792
 42
-0.103639
  0
VERTEX
  8
0
 10
279.352944
 20
86.262611
 42
-0.103430
  0
VERTEX
  8
0
 10
274.548074
 20
86.437864
 42
-0.056670
  0
VERTEX
  8
0
 10
269.002662
 20
88.498651
 42
-0.031668
  0
VERTEX
  8
0
 10
265.556622
 20
90.528586
 42
-0.082304
  0
VERTEX
  8
0
 10
263.475474
 20
92.506185
 42
-0.099727
  0
VERTEX
  8
0
 10
262.371923
 20
94.803190
 42
-0.062349
  0
VERTEX
  8
0
 10
262.000000
 20
97.774199
 42
-0.053335
  0
VERTEX
  8
0
 10
262.172071
 20
99.382715
 42
-0.138180
  0
VERTEX
  8
0
 10
262.713686
 20
100.403637
 42
-0.101376
  0
VERTEX
  8
0
 10
263.827153
 20
101.175829
 42
-0.021382
  0
VERTEX
  8
0
 10
266.052014
 20
102.017166
 42
0.069461
  0
VERTEX
  8
0
 10
269.168115
 20
103.551242
 42
0.040675
  0
VERTEX
  8
0
 10
272.414498
 20
106.162957
 42
0.040035
  0
VERTEX
  8
0
 10
275.275511
 20
109.347179
 42
0.056166
  0
VERTEX
  8
0
 10
277.238037
 20
112.623089
 42
-0.061115
  0
VERTEX
  8
0
 10
277.939599
 20
113.768381
 42
-0.101837
  0
VERTEX
  8
0
 10
278.804257
 20
114.490985
 42
-0.087523
  0
VERTEX
  8
0
 10
279.980324
 20
114.878848
 42
-0.036006
  0
VERTEX
  8
0
 10
281.660515
 20
115.000000
 42
-0.024823
  0
VERTEX
  8
0
 10
282.940255
 20
114.936428
 42
-0.039446
  0
VERTEX
  8
0
 10
284.019026
 20
114.742218
 42
-0.046913
  0
VERTEX
  8
0
 10
284.785820
 20
114.461684
 42
-0.289264
  0
SEQEND
  0
POLYLINE
  8
0
 66
1
 70
1
  0
VERTEX
  8
0
 10
319.618649
 20
113.087257
 42
-0.040613
  0
VERTEX
  8
0
 10
318.205125
 20
112.311967
 42
-0.020259
  0
VERTEX
  8
0
 10
316.308464
 20
111.554457
 42
-0.019967
  0
VERTEX
  8
0
 10
314.269009
 20
110.924606
 42
-0.027698
  0
VERTEX
  8
0
 10
312.396087
 20
110.536688
 42
0.068093
  0
VERTEX
  8
0
 10
308.239943
 20
109.319826
 42
0.036800
  0
VERTEX
  8
0
 10
303.538272
 20
106.785566
 42
0.036556
  0
VERTEX
  8
0
 10
299.429161
 20
103.719664
 42
0.103153
  0
VERTEX
  8
0
 10
297.268978
 20
100.884695
 42
0.055770
  0
VERTEX
  8
0
 10
296.352168
 20
98.243610
 42
0.036075
  0
VERTEX
  8
0
 10
295.866280
 20
95.041143
 42
0.035005
  0
VERTEX
  8
0
 10
295.837685
 20
91.666677
 42
0.041032
  0
VERTEX
  8
0
 10
296.295331
 20
88.500000
 42
-0.043665
  0
VERTEX
  8
0
 10
296.511349
 20
86.947660
 42
-0.069128
  0
VERTEX
  8
0
 10
296.394769
 20
85.611706
 42
-0.068146
  0
VERTEX
  8
0
 10
295.916201
 20
84.344741
 42
-0.041171
  0
VERTEX
  8
0
 10
295.036059
 20
83.000000
 42
0.000000
  0
VERTEX
  8
0
 10
293.088445
 20
80.500000
 42
0.000000
  0
VERTEX
  8
0
 10
291.009707
 20
82.562293
 42
0.000000
  0
VERTEX
  8
0
 10
288.930970
 20
84.624586
 42
0.000000
  0
VERTEX
  8
0
 10
291.407377
 20
89.062293
 42
0.032140
  0
VERTEX
  8
0
 10
293.316090
 20
93.067321
 42
0.033739
  0
VERTEX
  8
0
 10
294.660276
 20
97.220303
 42
0.035868
  0
VERTEX
  8
0
 10
295.312944
 20
100.936202
 42
0.110328
  0
VERTEX
  8
0
 10
295.015129
 20
103.456871
 42
0.118509
  0
VERTEX
  8
0
 10
294.450228
 20
104.331850
 42
0.056604
  0
VERTEX
  8
0
 10
293.376777
 20
105.145360
 42
0.045728
  0
VERTEX
  8
0
 10
291.873927
 20
105.860271
 42
0.028051
  0
VERTEX
  8
0
 10
289.996748
 20
106.433846
 42
-0.018600
  0
VERTEX
  8
0
 10
288.308001
 20
106.915162
 42
-0.025444
  0
VERTEX
  8
0
 10
286.831559
 20
107.480567
 42
-0.024037
  0
VERTEX
  8
0
 10
285.694047
 20
108.050769
 42
-0.189031
  0
VERTEX
  8
0
 10
285.327478
 20
108.500000
 42
-0.279664
  0
VERTEX
  8
0
 10
285.454390
 20
109.030939
 42
-0.025931
  0
VERTEX
  8
0
 10
286.495037
 20
109.979087
 42
-0.027436
  0
VERTEX
  8
0
 10
287.957394
 20
111.050279
 42
-0.017816
  0
VERTEX
  8
0
 10
289.753154
 20
112.130933
 42
-0.034714
  0
VERTEX
  8
0
 10
292.954530
 20
113.625186
 42
-0.055554
  0
VERTEX
  8
0
 10
295.869541
 20
114.389114
 42
-0.030228
  0
VERTEX
  8
0
 10
299.939547
 20
114.735369
 42
-0.004100
  0
VERTEX
  8
0
 10
308.500000
 20
114.874344
 42
0.000000
  0
VERTEX
  8
0
 10
322.500000
 20
114.986822
 42
0.000000
  0
SEQEND
  0
POLYLINE
  8
0
 66
1
 70
1
  0
VERTEX
  8
0
 10
181.561442
 20
105.500000
 42
0.002138
  0
VERTEX
  8
0
 10
182.242859
 20
100.527372
 42
0.063769
  0
VERTEX
  8
0
 10
182.577887
 20
99.306514
 42
0.696761
  0
VERTEX
  8
0
 10
182.917753
 20
99.320625
 42
0.025271
  0
VERTEX
  8
0
 10
183.395294
 20
101.103737
 42
0.025793
  0
VERTEX
  8
0
 10
183.668084
 20
102.798778
 42
0.013307
  0
VERTEX
  8
0
 10
183.842739
 20
104.940278
 42
0.013192
  0
VERTEX
  8
0
 10
183.905690
 20
107.157672
 42
0.019451
  0
VERTEX
  8
0
 10
183.833852
 20
109.103737
 42
-0.012824
  0
VERTEX
  8
0
 10
183.698523
 20
111.800041
 42
-0.125191
  0
VERTEX
  8
0
 10
183.950643
 20
112.903712
 42
-0.204633
  0
VERTEX
  8
0
 10
184.655737
 20
113.489731
 42
-0.043822
  0
VERTEX
  8
0
 10
186.249515
 20
113.816376
 42
-0.043853
  0
VERTEX
  8
0
 10
187.644572
 20
113.853930
 42
-0.112453
  0
VERTEX
  8
0
 10
188.608024
 20
113.571975
 42
-0.120683
  0
VERTEX
  8
0
 10
189.313498
 20
112.916247
 42
-0.054655
  0
VERTEX
  8
0
 10
189.891402
 20
111.785636
 42
-0.056771
  0
VERTEX
  8
0
 10
190.490240
 20
109.439422
 42
-0.013378
  0
VERTEX
  8
0
 10
190.934091
 20
105.410589
 42
-0.014240
  0
VERTEX
  8
0
 10
191.176976
 20
100.957888
 42
-0.018921
  0
VERTEX
  8
0
 10
191.129047
 20
96.903401
 42
-0.142228
  0
VERTEX
  8
0
 10
190.081299
 20
93.866500
 42
-0.050962
  0
VERTEX
  8
0
 10
187.044013
 20
90.379764
 42
-0.042790
  0
VERTEX
  8
0
 10
182.540207
 20
86.834878
 42
-0.029363
  0
VERTEX
  8
0
 10
176.902681
 20
83.587702
 42
0.000000
  0
VERTEX
  8
0
 10
169.731286
 20
80.000000
 42
0.000000
  0
VERTEX
  8
0
 10
174.115643
 20
80.041916
 42
0.059118
  0
VERTEX
  8
0
 10
178.258692
 20
80.573703
 42
0.071244
  0
VERTEX
  8
0
 10
181.888581
 20
82.057325
 42
0.061267
  0
VERTEX
  8
0
 10
185.353936
 20
84.706123
 42
0.031187
  0
VERTEX
  8
0
 10
189.029902
 20
88.785474
 42
0.036008
  0
VERTEX
  8
0
 10
192.105163
 20
93.289332
 42
0.063621
  0
VERTEX
  8
0
 10
193.855456
 20
97.428749
 42
0.061460
  0
VERTEX
  8
0
 10
194.543303
 20
101.973810
 42
0.031400
  0
VERTEX
  8
0
 10
194.339061
 20
107.750000
 42
0.000000
  0
VERTEX
  8
0
 10
193.723810
 20
114.000000
 42
0.000000
  0
VERTEX
  8
0
 10
198.782311
 20
114.000000
 42
0.000000
  0
VERTEX
  8
0
 10
203.840812
 20
114.000000
 42
0.000000
  0
VERTEX
  8
0
 10
204.480505
 20
107.250000
 42
0.000921
  0
VERTEX
  8
0
 10
205.184497
 20
99.964418
 42
0.164973
  0
VERTEX
  8
0
 10
205.497818
 20
99.272438
 42
0.673149
  0
VERTEX
  8
0
 10
205.777056
 20
99.379567
 42
0.001363
  0
VERTEX
  8
0
 10
205.883999
 20
105.750000
 42
0.000000
  0
VERTEX
  8
0
 10
206.000000
 20
114.000000
 42
0.000000
  0
VERTEX
  8
0
 10
208.861948
 20
114.000000
 42
-0.060867
  0
VERTEX
  8
0
 10
210.529934
 20
113.796193
 42
-0.180155
  0
VERTEX
  8
0
 10
211.467013
 20
113.155577
 42
-0.094100
  0
VERTEX
  8
0
 10
212.098199
 20
111.768360
 42
-0.010292
  0
VERTEX
  8
0
 10
212.861948
 20
108.333219
 42
-0.018286
  0
VERTEX
  8
0
 10
213.880210
 20
102.087969
 42
-0.059203
  0
VERTEX
  8
0
 10
213.908680
 20
97.893993
 42
-0.083941
  0
VERTEX
  8
0
 10
212.981233
 20
94.656134
 42
-0.068626
  0
VERTEX
  8
0
 10
210.993914
 20
91.645850
 42
-0.045623
  0
VERTEX
  8
0
 10
208.164371
 20
88.961458
 42
-0.045796
  0
VERTEX
  8
0
 10
204.898319
 20
86.838553
 42
-0.048549
  0
VERTEX
  8
0
 10
201.517180
 20
85.457330
 42
-0.071477
  0
VERTEX
  8
0
 10
198.348871
 20
84.984687
 42
0.013896
  0
VERTEX
  8
0
 10
197.035785
 20
84.941123
 42
0.122900
  0
VERTEX
  8
0
 10
196.487035
 20
84.768046
 42
0.453768
  0
VERTEX
  8
0
 10
196.439486
 20
84.488920
 42
0.080936
  0
VERTEX
  8
0
 10
196.889271
 20
84.089596
 42
-0.118737
  0
VERTEX
  8
0
 10
197.387778
 20
83.575401
 42
-0.275849
  0
VERTEX
  8
0
 10
197.385312
 20
83.058370
 42
-0.112938
  0
VERTEX
  8
0
 10
196.806225
 20
82.458780
 42
-0.017691
  0
VERTEX
  8
0
 10
195.389271
 20
81.604613
 42
0.042952
  0
VERTEX
  8
0
 10
194.062778
 20
80.710746
 42
0.649893
  0
VERTEX
  8
0
 10
194.168660
 20
80.313716
 42
0.055174
  0
VERTEX
  8
0
 10
195.651931
 20
80.243446
 42
0.001865
  0
VERTEX
  8
0
 10
201.500000
 20
80.633658
 42
0.027198
  0
VERTEX
  8
0
 10
211.656223
 20
81.907141
 42
0.115334
  0
VERTEX
  8
0
 10
217.239959
 20
84.325870
 42
0.126534
  0
VERTEX
  8
0
 10
220.897298
 20
88.842672
 42
0.035642
  0
VERTEX
  8
0
 10
224.096293
 20
97.402394
 42
-0.009787
  0
VERTEX
  8
0
 10
225.727515
 20
102.566233
 42
-0.059128
  0
VERTEX
  8
0
 10
226.931656
 20
105.099845
 42
-0.572823
  0
VERTEX
  8
0
 10
227.624442
 20
105.078098
 42
-0.125407
  0
VERTEX
  8
0
 10
228.000000
 20
103.604292
 42
0.080421
  0
VERTEX
  8
0
 10
228.464120
 20
100.737373
 42
0.059042
  0
VERTEX
  8
0
 10
229.835066
 20
97.817256
 42
0.061859
  0
VERTEX
  8
0
 10
231.734702
 20
95.470275
 42
0.130963
  0
VERTEX
  8
0
 10
233.765627
 20
94.343976
 42
0.045910
  0
VERTEX
  8
0
 10
235.036444
 20
94.146515
 42
0.010539
  0
VERTEX
  8
0
 10
237.208346
 20
94.056734
 42
0.010808
  0
VERTEX
  8
0
 10
239.725107
 20
94.060206
 42
0.010354
  0
VERTEX
  8
0
 10
242.275703
 20
94.171744
 42
0.020151
  0
VERTEX
  8
0
 10
245.475494
 20
94.508014
 42
0.037819
  0
VERTEX
  8
0
 10
248.011643
 20
95.076759
 42
0.042221
  0
VERTEX
  8
0
 10
250.240784
 20
95.968657
 42
0.033297
  0
VERTEX
  8
0
 10
252.482135
 20
97.286603
 42
-0.019879
  0
VERTEX
  8
0
 10
256.537602
 20
99.820011
 42
-0.247986
  0
VERTEX
  8
0
 10
258.290749
 20
99.876936
 42
-0.276383
  0
VERTEX
  8
0
 10
259.202453
 20
98.478641
 42
-0.023731
  0
VERTEX
  8
0
 10
259.162550
 20
94.029006
 42
0.015977
  0
VERTEX
  8
0
 10
259.083638
 20
90.804711
 42
0.048280
  0
VERTEX
  8
0
 10
259.311419
 20
88.621698
 42
0.062173
  0
VERTEX
  8
0
 10
259.910030
 20
86.842995
 42
0.042514
  0
VERTEX
  8
0
 10
260.995880
 20
85.005786
 42
0.078111
  0
VERTEX
  8
0
 10
263.616692
 20
82.328189
 42
0.067182
  0
VERTEX
  8
0
 10
267.065938
 20
80.416685
 42
0.059951
  0
VERTEX
  8
0
 10
271.267233
 20
79.334400
 42
0.043171
  0
VERTEX
  8
0
 10
276.109146
 20
79.111128
 42
-0.018953
  0
VERTEX
  8
0
 10
279.094054
 20
79.118013
 42
-0.048446
  0
VERTEX
  8
0
 10
281.235231
 20
78.832829
 42
-0.058167
  0
VERTEX
  8
0
 10
283.042760
 20
78.182373
 42
-0.039306
  0
VERTEX
  8
0
 10
284.923463
 20
77.054499
 42
0.000000
  0
VERTEX
  8
0
 10
288.128633
 20
74.772217
 42
0.000000
  0
VERTEX
  8
0
 10
290.357072
 20
76.865726
 42
0.000000
  0
VERTEX
  8
0
 10
292.585510
 20
78.959235
 42
0.000000
  0
VERTEX
  8
0
 10
295.042755
 20
76.593477
 42
0.000000
  0
VERTEX
  8
0
 10
297.500000
 20
74.227720
 42
0.000000
  0
VERTEX
  8
0
 10
300.273358
 20
76.823330
 42
-0.060466
  0
VERTEX
  8
0
 10
302.323690
 20
78.323033
 42
-0.086467
  0
VERTEX
  8
0
 10
304.444947
 20
79.069175
 42
-0.037161
  0
VERTEX
  8
0
 10
307.790310
 20
79.375917
 42
-0.003507
  0
VERTEX
  8
0
 10
316.034353
 20
79.459470
 42
-0.003926
  0
VERTEX
  8
0
 10
323.075345
 20
79.426151
 42
-0.024447
  0
VERTEX
  8
0
 10
326.675915
 20
79.204550
 42
-0.049846
  0
VERTEX
  8
0
 10
328.705349
 20
78.772071
 42
-0.242948
  0
VERTEX
  8
0
 10
329.509710
 20
77.966366
 42
0.148936
  0
VERTEX
  8
0
 10
330.737114
 20
76.186070
 42
0.055770
  0
VERTEX
  8
0
 10
333.334119
 20
74.557627
 42
0.051969
  0
VERTEX
  8
0
 10
336.575146
 20
73.393626
 42
0.060311
  0
VERTEX
  8
0
 10
339.826553
 20
73.000000
 42
0.099872
  0
VERTEX
  8
0
 10
343.829920
 20
73.807706
 42
0.060002
  0
VERTEX
  8
0
 10
348.056780
 20
76.216791
 42
0.049879
  0
VERTEX
  8
0
 10
352.328717
 20
80.098406
 42
0.032499
  0
VERTEX
  8
0
 10
356.463074
 20
85.332101
 42
-0.007636
  0
VERTEX
  8
0
 10
358.595447
 20
88.326090
 42
-0.057377
  0
VERTEX
  8
0
 10
359.778245
 20
89.598848
 42
-0.236728
  0
VERTEX
  8
0
 10
360.527385
 20
89.784154
 42
-0.253241
  0
VERTEX
  8
0
 10
361.092381
 20
89.290152
 42
0.084145
  0
VERTEX
  8
0
 10
362.796879
 20
86.341817
 42
0.074709
  0
VERTEX
  8
0
 10
365.440552
 20
83.977931
 42
0.067240
  0
VERTEX
  8
0
 10
368.928914
 20
82.309326
 42
0.049849
  0
VERTEX
  8
0
 10
373.111706
 20
81.407852
 42
-0.008027
  0
VERTEX
  8
0
 10
376.272547
 20
80.998752
 42
-0.065040
  0
VERTEX
  8
0
 10
377.675920
 20
80.603303
 42
-0.261603
  0
VERTEX
  8
0
 10
378.085736
 20
80.069221
 42
-0.211963
  0
VERTEX
  8
0
 10
377.886590
 20
79.363349
 42
0.104305
  0
VERTEX
  8
0
 10
377.474667
 20
78.581432
 42
0.172840
  0
VERTEX
  8
0
 10
377.522782
 20
77.845525
 42
0.101236
  0
VERTEX
  8
0
 10
378.093511
 20
77.027838
 42
0.023286
  0
VERTEX
  8
0
 10
379.372652
 20
75.921512
 42
-0.048481
  0
VERTEX
  8
0
 10
380.765250
 20
74.588865
 42
-0.093643
  0
VERTEX
  8
0
 10
381.533952
 20
73.257943
 42
-0.067966
  0
VERTEX
  8
0
 10
381.900303
 20
71.462666
 42
-0.016396
  0
VERTEX
  8
0
 10
382.000000
 20
68.423165
 42
0.000000
  0
VERTEX
  8
0
 10
382.000000
 20
62.991491
 42
0.000000
  0
VERTEX
  8
0
 10
268.250000
 20
63.245746
 42
0.000000
  0
VERTEX
  8
0
 10
154.500000
 20
63.500000
 42
0.000000
  0
VERTEX
  8
0
 10
154.202787
 20
67.539516
 42
-0.032339
  0
VERTEX
  8
0
 10
154.183906
 20
69.687977
 42
-0.064472
  0
VERTEX
  8
0
 10
154.495552
 20
71.356674
 42
-0.065631
  0
VERTEX
  8
0
 10
155.217191
 20
72.871902
 42
-0.034650
  0
VERTEX
  8
0
 10
156.471345
 20
74.539516
 42
0.000000
  0
VERTEX
  8
0
 10
159.037117
 20
77.500000
 42
0.000000
  0
VERTEX
  8
0
 10
156.821967
 20
79.319483
 42
-0.018917
  0
VERTEX
  8
0
 10
155.674582
 20
80.336981
 42
-0.134176
  0
VERTEX
  8
0
 10
155.295107
 20
80.968990
 42
-0.250078
  0
VERTEX
  8
0
 10
155.411087
 20
81.497228
 42
-0.075259
  0
VERTEX
  8
0
 10
156.053408
 20
82.054170
 42
-0.027582
  0
VERTEX
  8
0
 10
156.683291
 20
82.405625
 42
-0.023800
  0
VERTEX
  8
0
 10
157.379389
 20
82.705031
 42
-0.024501
  0
VERTEX
  8
0
 10
158.037718
 20
82.915635
 42
-0.061539
  0
VERTEX
  8
0
 10
158.536000
 20
82.984687
 42
0.223020
  0
VERTEX
  8
0
 10
160.205109
 20
83.798459
 42
0.019525
  0
VERTEX
  8
0
 10
163.089459
 20
87.678456
 42
0.026014
  0
VERTEX
  8
0
 10
165.813211
 20
92.139060
 42
0.043902
  0
VERTEX
  8
0
 10
167.552508
 20
96.158086
 42
0.029157
  0
VERTEX
  8
0
 10
168.203341
 20
98.581346
 42
0.021471
  0
VERTEX
  8
0
 10
168.649435
 20
101.325468
 42
0.020910
  0
VERTEX
  8
0
 10
168.868737
 20
104.190189
 42
0.022862
  0
VERTEX
  8
0
 10
168.837707
 20
106.978758
 42
0.000000
  0
VERTEX
  8
0
 10
168.500000
 20
112.913318
 42
0.000000
  0
VERTEX
  8
0
 10
172.500000
 20
113.207484
 42
-0.011311
  0
VERTEX
  8
0
 10
178.038203
 20
113.489003
 42
-0.185329
  0
VERTEX
  8
0
 10
179.758500
 20
112.883699
 42
-0.175370
  0
VERTEX
  8
0
 10
180.678979
 20
111.271399
 42
-0.009909
  0
SEQEND
  0
POLYLINE
  8
0
 66
1
 70
1
  0
VERTEX
  8
0
 10
226.000000
 20
113.675152
 42
-0.078378
  0
VERTEX
  8
0
 10
225.961191
 20
113.429096
 42
-0.000491
  0
VERTEX
  8
0
 10
225.268723
 20
111.295684
 42
-0.001988
  0
VERTEX
  8
0
 10
224.464785
 20
108.860038
 42
-0.001265
  0
VERTEX
  8
0
 10
223.510545
 20
106.031004
 42
-0.018695
  0
VERTEX
  8
0
 10
221.188450
 20
99.958424
 42
-0.026919
  0
VERTEX
  8
0
 10
218.652826
 20
94.794538
 42
-0.029716
  0
VERTEX
  8
0
 10
216.144270
 20
90.878141
 42
-0.113052
  0
VERTEX
  8
0
 10
213.968625
 20
88.983208
 42
-0.043500
  0
VERTEX
  8
0
 10
212.554585
 20
88.377929
 42
-0.452740
  0
VERTEX
  8
0
 10
212.073002
 20
88.661881
 42
-0.211255
  0
VERTEX
  8
0
 10
212.268222
 20
89.500913
 42
-0.022647
  0
VERTEX
  8
0
 10
213.570574
 20
91.077984
 42
0.100940
  0
VERTEX
  8
0
 10
215.324423
 20
94.041581
 42
0.029248
  0
VERTEX
  8
0
 10
216.773033
 20
99.181901
 42
0.030199
  0
VERTEX
  8
0
 10
217.643895
 20
104.725116
 42
0.056895
  0
VERTEX
  8
0
 10
217.561493
 20
109.247972
 42
0.000000
  0
VERTEX
  8
0
 10
216.931114
 20
114.000000
 42
0.000000
  0
VERTEX
  8
0
 10
221.465557
 20
114.000000
 42
-0.006717
  0
VERTEX
  8
0
 10
223.204210
 20
113.976642
 42
-0.011163
  0
VERTEX
  8
0
 10
224.668007
 20
113.904576
 42
-0.004913
  0
VERTEX
  8
0
 10
225.880842
 20
113.805701
 42
-0.387756
  0
SEQEND
  0
POLYLINE
  8
0
 66
1
 70
1
  0
VERTEX
  8
0
 10
155.353168
 20
109.280712
 42
-0.012594
  0
VERTEX
  8
0
 10
155.593558
 20
107.557390
 42
-0.007458
  0
VERTEX
  8
0
 10
155.797681
 20
105.491685
 42
-0.007460
  0
VERTEX
  8
0
 10
155.939940
 20
103.422998
 42
-0.012713
  0
VERTEX
  8
0
 10
155.988994
 20
101.690983
 42
0.021214
  0
VERTEX
  8
0
 10
156.057785
 20
100.173816
 42
0.054829
  0
VERTEX
  8
0
 10
156.272271
 20
99.100736
 42
0.115217
  0
VERTEX
  8
0
 10
156.599193
 20
98.550679
 42
0.353371
  0
VERTEX
  8
0
 10
157.000000
 20
98.500000
 42
0.209392
  0
VERTEX
  8
0
 10
157.393652
 20
99.069998
 42
0.015298
  0
VERTEX
  8
0
 10
157.706250
 20
100.994912
 42
0.019291
  0
VERTEX
  8
0
 10
157.927321
 20
103.395850
 42
0.013311
  0
VERTEX
  8
0
 10
158.000000
 20
106.125439
 42
0.000000
  0
VERTEX
  8
0
 10
158.000000
 20
113.132845
 42
0.000000
  0
VERTEX
  8
0
 10
160.750000
 20
112.816422
 42
-0.087039
  0
VERTEX
  8
0
 10
162.352645
 20
112.341313
 42
-0.160295
  0
VERTEX
  8
0
 10
163.309738
 20
111.395015
 42
-0.066513
  0
VERTEX
  8
0
 10
163.990994
 20
109.471293
 42
-0.006479
  0
VERTEX
  8
0
 10
164.947344
 20
104.618124
 42
0.000000
  0
VERTEX
  8
0
 10
166.394688
 20
96.736247
 42
0.000000
  0
VERTEX
  8
0
 10
163.769986
 20
94.478574
 42
-0.034763
  0
VERTEX
  8
0
 10
162.444849
 20
93.490163
 42
-0.015724
  0
VERTEX
  8
0
 10
160.585748
 20
92.375953
 42
-0.015481
  0
VERTEX
  8
0
 10
158.542184
 20
91.318480
 42
-0.020441
  0
VERTEX
  8
0
 10
156.615780
 20
90.491067
 42
-0.069402
  0
VERTEX
  8
0
 10
151.528083
 20
89.320041
 42
-0.104315
  0
VERTEX
  8
0
 10
147.022563
 20
89.864374
 42
-0.102022
  0
VERTEX
  8
0
 10
143.050852
 20
92.199214
 42
-0.064079
  0
VERTEX
  8
0
 10
139.535514
 20
96.305454
 42
0.000000
  0
VERTEX
  8
0
 10
137.722387
 20
99.072636
 42
0.000000
  0
VERTEX
  8
0
 10
135.905416
 20
96.084866
 42
-0.145481
  0
VERTEX
  8
0
 10
130.777141
 20
91.444611
 42
-0.105881
  0
VERTEX
  8
0
 10
123.254626
 20
89.638993
 42
-0.106504
  0
VERTEX
  8
0
 10
115.689095
 20
91.075270
 42
-0.148818
  0
VERTEX
  8
0
 10
110.435392
 20
95.458260
 42
0.000000
  0
VERTEX
  8
0
 10
108.702100
 20
98.103598
 42
0.000000
  0
VERTEX
  8
0
 10
105.601050
 20
95.163752
 42
-0.036795
  0
VERTEX
  8
0
 10
102.167823
 20
92.357999
 42
-0.052782
  0
VERTEX
  8
0
 10
98.734007
 20
90.454637
 42
-0.055087
  0
VERTEX
  8
0
 10
95.094476
 20
89.366137
 42
-0.045168
  0
VERTEX
  8
0
 10
91.049660
 20
89.000000
 42
-0.053872
  0
VERTEX
  8
0
 10
86.772110
 20
89.462223
 42
-0.135991
  0
VERTEX
  8
0
 10
84.027036
 20
90.910948
 42
-0.142859
  0
VERTEX
  8
0
 10
82.499544
 20
93.511569
 42
-0.061897
  0
VERTEX
  8
0
 10
82.000000
 20
97.531385
 42
0.051748
  0
VERTEX
  8
0
 10
81.616353
 20
101.228341
 42
0.296153
  0
VERTEX
  8
0
 10
80.291483
 20
102.560501
 42
0.191374
  0
VERTEX
  8
0
 10
77.989920
 20
102.175177
 42
0.024313
  0
VERTEX
  8
0
 10
73.738446
 20
99.312103
 42
-0.020671
  0
VERTEX
  8
0
 10
65.516222
 20
93.687576
 42
-0.030149
  0
VERTEX
  8
0
 10
57.807348
 20
89.492854
 42
-0.035028
  0
VERTEX
  8
0
 10
50.935890
 20
86.843244
 42
-0.074638
  0
VERTEX
  8
0
 10
45.318499
 20
86.000000
 42
-0.084407
  0
VERTEX
  8
0
 10
44.027049
 20
86.219580
 42
-0.214417
  0
VERTEX
  8
0
 10
43.352498
 20
86.859768
 42
-0.088986
  0
VERTEX
  8
0
 10
43.058388
 20
88.228991
 42
-0.008521
  0
VERTEX
  8
0
 10
43.000000
 20
91.654988
 42
-0.003790
  0
VERTEX
  8
0
 10
43.028707
 20
95.441651
 42
-0.117112
  0
VERTEX
  8
0
 10
43.258427
 20
96.347636
 42
-0.449062
  0
VERTEX
  8
0
 10
43.762950
 20
96.473865
 42
-0.034158
  0
VERTEX
  8
0
 10
45.006131
 20
95.494452
 42
0.016298
  0
VERTEX
  8
0
 10
45.792938
 20
94.827727
 42
0.028053
  0
VERTEX
  8
0
 10
46.494597
 20
94.332833
 42
0.028571
  0
VERTEX
  8
0
 10
47.052241
 20
94.027416
 42
0.387497
  0
VERTEX
  8
0
 10
47.256131
 20
94.089464
 42
-0.039597
  0
VERTEX
  8
0
 10
47.445253
 20
94.357099
 42
-0.001884
  0
VERTEX
  8
0
 10
48.152093
 20
95.199552
 42
-0.003081
  0
VERTEX
  8
0
 10
49.002192
 20
96.192553
 42
-0.002212
  0
VERTEX
  8
0
 10
49.963760
 20
97.291989
 42
0.000000
  0
VERTEX
  8
0
 10
52.427521
 20
100.083978
 42
0.000000
  0
VERTEX
  8
0
 10
49.463760
 20
102.463118
 42
0.000000
  0
VERTEX
  8
0
 10
46.500000
 20
104.842258
 42
0.000000
  0
VERTEX
  8
0
 10
44.314317
 20
102.807238
 42
0.000000
  0
VERTEX
  8
0
 10
42.128633
 20
100.772217
 42
0.000000
  0
VERTEX
  8
0
 10
39.141675
 20
102.899119
 42
0.000000
  0
VERTEX
  8
0
 10
36.154717
 20
105.026020
 42
0.000000
  0
VERTEX
  8
0
 10
33.937440
 20
101.912142
 42
0.000000
  0
VERTEX
  8
0
 10
31.720163
 20
98.798264
 42
0.000000
  0
VERTEX
  8
0
 10
34.610081
 20
96.436853
 42
0.010729
  0
VERTEX
  8
0
 10
36.511174
 20
94.950297
 42
0.139567
  0
VERTEX
  8
0
 10
37.341373
 20
94.633215
 42
0.212488
  0
VERTEX
  8
0
 10
38.055467
 20
94.878811
 42
0.029650
  0
VERTEX
  8
0
 10
39.160293
 20
96.037721
 42
-0.016239
  0
VERTEX
  8
0
 10
39.839212
 20
96.789217
 42
-0.021608
  0
VERTEX
  8
0
 10
40.506101
 20
97.423581
 42
-0.019573
  0
VERTEX
  8
0
 10
41.090349
 20
97.894166
 42
-0.161102
  0
VERTEX
  8
0
 10
41.410293
 20
98.000000
 42
-0.376468
  0
VERTEX
  8
0
 10
41.645518
 20
97.793644
 42
-0.008655
  0
VERTEX
  8
0
 10
41.826773
 20
96.200126
 42
-0.014960
  0
VERTEX
  8
0
 10
41.957576
 20
94.222058
 42
-0.009028
  0
VERTEX
  8
0
 10
42.000000
 20
91.872771
 42
0.000000
  0
VERTEX
  8
0
 10
42.000000
 20
85.745541
 42
0.000000
  0
VERTEX
  8
0
 10
37.030368
 20
86.223060
 42
-0.105899
  0
VERTEX
  8
0
 10
29.247365
 20
88.688781
 42
-0.125956
  0
VERTEX
  8
0
 10
23.722076
 20
94.029449
 42
-0.167562
  0
VERTEX
  8
0
 10
22.335216
 20
100.238459
 42
-0.205371
  0
VERTEX
  8
0
 10
25.250000
 20
105.360137
 42
-0.098506
  0
VERTEX
  8
0
 10
33.217490
 20
109.227702
 42
-0.040790
  0
VERTEX
  8
0
 10
45.066382
 20
111.310485
 42
-0.019136
  0
VERTEX
  8
0
 10
64.861133
 20
112.384372
 42
-0.002715
  0
VERTEX
  8
0
 10
105.614174
 20
112.812331
 42
0.000000
  0
VERTEX
  8
0
 10
154.728348
 20
113.061424
 42
0.000000
  0
SEQEND
  0
POLYLINE
  8
0
 66
1
 70
1
  0
VERTEX
  8
0
 10
319.000000
 20
107.814451
 42
-0.071196
  0
VERTEX
  8
0
 10
318.858480
 20
106.825612
 42
-0.036826
  0
VERTEX
  8
0
 10
318.420134
 20
105.653668
 42
-0.035694
  0
VERTEX
  8
0
 10
317.781544
 20
104.492746
 42
-0.045014
  0
VERTEX
  8
0
 10
317.025988
 20
103.527663
 42
0.043390
  0
VERTEX
  8
0
 10
316.249874
 20
102.542915
 42
0.030698
  0
VERTEX
  8
0
 10
315.550771
 20
101.320094
 42
0.031145
  0
VERTEX
  8
0
 10
315.023887
 20
100.058856
 42
0.055524
  0
VERTEX
  8
0
 10
314.775988
 20
98.963212
 42
0.045935
  0
VERTEX
  8
0
 10
314.747989
 20
97.547383
 42
0.248904
  0
VERTEX
  8
0
 10
315.142674
 20
96.917745
 42
0.139021
  0
VERTEX
  8
0
 10
316.069623
 20
96.684305
 42
0.012333
  0
VERTEX
  8
0
 10
318.500000
 20
96.816231
 42
-0.055499
  0
VERTEX
  8
0
 10
321.124834
 20
96.732229
 42
-0.626728
  0
VERTEX
  8
0
 10
321.363602
 20
95.982292
 42
-0.097522
  0
VERTEX
  8
0
 10
319.321043
 20
94.687660
 42
-0.012315
  0
VERTEX
  8
0
 10
314.382905
 20
92.908208
 42
0.000000
  0
VERTEX
  8
0
 10
308.500000
 20
90.950605
 42
0.000000
  0
VERTEX
  8
0
 10
313.750000
 20
91.328510
 42
-0.008386
  0
VERTEX
  8
0
 10
316.996504
 20
91.507530
 42
-0.099875
  0
VERTEX
  8
0
 10
318.232398
 20
91.307099
 42
-0.236554
  0
VERTEX
  8
0
 10
318.811712
 20
90.680698
 42
-0.070566
  0
VERTEX
  8
0
 10
319.000000
 20
89.353207
 42
-0.160964
  0
VERTEX
  8
0
 10
318.497377
 20
87.832374
 42
-0.200669
  0
VERTEX
  8
0
 10
317.229419
 20
87.078625
 42
-0.078813
  0
VERTEX
  8
0
 10
314.741780
 20
87.121025
 42
-0.012861
  0
VERTEX
  8
0
 10
310.000000
 20
88.082546
 42
-0.108765
  0
VERTEX
  8
0
 10
303.370262
 20
91.223661
 42
-0.180929
  0
VERTEX
  8
0
 10
300.159408
 20
96.417812
 42
-0.196596
  0
VERTEX
  8
0
 10
301.269587
 20
102.111881
 42
-0.126776
  0
VERTEX
  8
0
 10
306.310704
 20
106.694521
 42
-0.029152
  0
VERTEX
  8
0
 10
308.401862
 20
107.646745
 42
-0.027178
  0
VERTEX
  8
0
 10
310.638609
 20
108.374774
 42
-0.018447
  0
VERTEX
  8
0
 10
313.607702
 20
109.049451
 42
-0.005296
  0
VERTEX
  8
0
 10
318.250000
 20
109.874833
 42
-0.276527
  0
VERTEX
  8
0
 10
318.537088
 20
109.762091
 42
-0.077132
  0
VERTEX
  8
0
 10
318.779688
 20
109.321227
 42
-0.054597
  0
VERTEX
  8
0
 10
318.945686
 20
108.642942
 42
-0.032744
  0
SEQEND
  0
POLYLINE
  8
0
 66
1
 70
1
  0
VERTEX
  8
0
 10
465.540556
 20
89.218981
 42
0.141378
  0
VERTEX
  8
0
 10
466.723060
 20
87.065504
 42
0.060296
  0
VERTEX
  8
0
 10
469.329205
 20
85.012235
 42
0.057435
  0
VERTEX
  8
0
 10
472.580650
 20
83.512778
 42
0.079217
  0
VERTEX
  8
0
 10
475.750000
 20
83.003738
 42
-0.022824
  0
VERTEX
  8
0
 10
478.079490
 20
82.894660
 42
-0.259748
  0
VERTEX
  8
0
 10
478.812337
 20
82.392544
 42
-0.280690
  0
VERTEX
  8
0
 10
478.739250
 20
81.539422
 42
-0.025707
  0
VERTEX
  8
0
 10
477.335530
 20
79.818262
 42
0.033397
  0
VERTEX
  8
0
 10
476.425774
 20
78.667102
 42
0.182519
  0
VERTEX
  8
0
 10
476.239729
 20
77.910019
 42
0.141798
  0
VERTEX
  8
0
 10
476.579501
 20
77.110439
 42
0.017665
  0
VERTEX
  8
0
 10
477.835530
 20
75.675071
 42
-0.055833
  0
VERTEX
  8
0
 10
478.872794
 20
74.289566
 42
-0.062209
  0
VERTEX
  8
0
 10
479.533123
 20
72.757016
 42
-0.049584
  0
VERTEX
  8
0
 10
479.889527
 20
70.836474
 42
-0.021103
  0
VERTEX
  8
0
 10
480.000000
 20
68.220203
 42
0.000000
  0
VERTEX
  8
0
 10
480.000000
 20
63.069309
 42
0.000000
  0
VERTEX
  8
0
 10
432.000000
 20
63.049534
 42
0.000000
  0
VERTEX
  8
0
 10
384.000000
 20
63.029758
 42
0.000000
  0
VERTEX
  8
0
 10
384.000000
 20
68.700428
 42
-0.017483
  0
VERTEX
  8
0
 10
384.104157
 20
71.678381
 42
-0.050573
  0
VERTEX
  8
0
 10
384.454784
 20
73.709008
 42
-0.067023
  0
VERTEX
  8
0
 10
385.133314
 20
75.287900
 42
-0.053664
  0
VERTEX
  8
0
 10
386.250000
 20
76.766140
 42
0.012029
  0
VERTEX
  8
0
 10
387.633608
 20
78.311821
 42
0.152729
  0
VERTEX
  8
0
 10
387.935857
 20
79.020858
 42
0.232497
  0
VERTEX
  8
0
 10
387.708341
 20
79.630780
 42
0.031386
  0
VERTEX
  8
0
 10
386.627107
 20
80.530695
 42
-0.014003
  0
VERTEX
  8
0
 10
385.491836
 20
81.410662
 42
-0.305479
  0
VERTEX
  8
0
 10
385.377179
 20
81.794240
 42
-0.250357
  0
VERTEX
  8
0
 10
385.687912
 20
82.100210
 42
-0.010286
  0
VERTEX
  8
0
 10
387.249966
 20
82.526601
 42
-0.070705
  0
VERTEX
  8
0
 10
388.562454
 20
82.664564
 42
-0.021178
  0
VERTEX
  8
0
 10
390.572004
 20
82.505896
 42
-0.020772
  0
VERTEX
  8
0
 10
392.838819
 20
82.133839
 42
-0.021116
  0
VERTEX
  8
0
 10
395.054360
 20
81.576498
 42
0.020425
  0
VERTEX
  8
0
 10
397.442011
 20
80.972352
 42
0.013359
  0
VERTEX
  8
0
 10
400.236359
 20
80.463096
 42
0.013444
  0
VERTEX
  8
0
 10
402.990778
 20
80.112331
 42
0.024950
  0
VERTEX
  8
0
 10
405.240518
 20
80.000000
 42
-0.014247
  0
VERTEX
  8
0
 10
407.355564
 20
79.939721
 42
-0.048184
  0
VERTEX
  8
0
 10
408.719706
 20
79.728973
 42
-0.115850
  0
VERTEX
  8
0
 10
409.383687
 20
79.383090
 42
-0.368845
  0
VERTEX
  8
0
 10
409.454248
 20
78.925972
 42
0.280656
  0
VERTEX
  8
0
 10
409.447060
 20
77.792236
 42
0.031171
  0
VERTEX
  8
0
 10
410.979940
 20
75.567013
 42
0.032888
  0
VERTEX
  8
0
 10
412.808958
 20
73.528518
 42
0.195889
  0
VERTEX
  8
0
 10
414.106220
 20
73.000000
 42
0.185981
  0
VERTEX
  8
0
 10
414.515435
 20
73.157666
 42
0.018071
  0
VERTEX
  8
0
 10
415.290402
 20
73.911623
 42
0.020988
  0
VERTEX
  8
0
 10
416.171967
 20
74.914661
 42
0.015073
  0
VERTEX
  8
0
 10
417.073624
 20
76.103396
 42
0.015880
  0
VERTEX
  8
0
 10
418.177743
 20
77.763109
 42
0.086160
  0
VERTEX
  8
0
 10
418.580596
 20
78.761947
 42
0.181149
  0
VERTEX
  8
0
 10
418.476419
 20
79.465816
 42
0.128671
  0
VERTEX
  8
0
 10
417.920679
 20
80.049023
 42
-0.107951
  0
VERTEX
  8
0
 10
417.207381
 20
80.738810
 42
-0.372516
  0
VERTEX
  8
0
 10
417.282004
 20
81.327442
 42
-0.054815
  0
VERTEX
  8
0
 10
418.379291
 20
82.114114
 42
-0.001684
  0
VERTEX
  8
0
 10
423.250000
 20
84.832875
 42
-0.011672
  0
VERTEX
  8
0
 10
425.456132
 20
85.988140
 42
-0.021429
  0
VERTEX
  8
0
 10
427.310938
 20
86.808010
 42
-0.020090
  0
VERTEX
  8
0
 10
428.717810
 20
87.294895
 42
-0.502880
  0
VERTEX
  8
0
 10
429.000000
 20
87.085275
 42
0.127885
  0
VERTEX
  8
0
 10
429.137056
 20
86.558180
 42
0.015873
  0
VERTEX
  8
0
 10
429.752083
 20
85.533375
 42
0.017887
  0
VERTEX
  8
0
 10
430.579855
 20
84.344044
 42
0.013926
  0
VERTEX
  8
0
 10
431.560281
 20
83.110730
 42
0.076248
  0
VERTEX
  8
0
 10
433.915878
 20
81.048504
 42
0.064925
  0
VERTEX
  8
0
 10
436.911102
 20
79.648569
 42
0.064612
  0
VERTEX
  8
0
 10
440.180085
 20
79.058751
 42
0.073976
  0
VERTEX
  8
0
 10
443.337610
 20
79.369887
 42
0.093012
  0
VERTEX
  8
0
 10
446.716882
 20
80.925398
 42
0.025329
  0
VERTEX
  8
0
 10
451.352917
 20
84.579722
 42
0.025613
  0
VERTEX
  8
0
 10
456.095682
 20
89.173052
 42
0.030503
  0
VERTEX
  8
0
 10
460.055895
 20
93.979173
 42
0.000000
  0
VERTEX
  8
0
 10
464.500000
 20
100.097309
 42
0.000000
  0
VERTEX
  8
0
 10
464.763718
 20
95.798655
 42
0.007512
  0
VERTEX
  8
0
 10
464.902315
 20
93.985618
 42
0.006551
  0
VERTEX
  8
0
 10
465.100698
 20
92.092680
 42
0.006601
  0
VERTEX
  8
0
 10
465.325132
 20
90.385621
 42
0.019338
  0
SEQEND
  0
POLYLINE
  8
0
 66
1
 70
1
  0
VERTEX
  8
0
 10
80.062447
 20
90.272869
 42
0.052732
  0
VERTEX
  8
0
 10
80.897568
 20
86.837410
 42
0.091912
  0
VERTEX
  8
0
 10
82.367741
 20
84.311689
 42
0.100850
  0
VERTEX
  8
0
 10
84.535573
 20
82.631557
 42
0.074496
  0
VERTEX
  8
0
 10
87.433948
 20
81.704432
 42
0.045862
  0
VERTEX
  8
0
 10
91.745271
 20
81.405545
 42
0.054380
  0
VERTEX
  8
0
 10
95.791149
 20
81.939012
 42
0.057247
  0
VERTEX
  8
0
 10
99.450263
 20
83.291804
 42
0.061157
  0
VERTEX
  8
0
 10
102.619073
 20
85.416488
 42
0.000000
  0
VERTEX
  8
0
 10
106.271979
 20
88.574175
 42
0.000000
  0
VERTEX
  8
0
 10
108.895605
 20
85.950549
 42
0.016427
  0
VERTEX
  8
0
 10
110.009446
 20
84.907586
 42
0.016565
  0
VERTEX
  8
0
 10
111.186341
 20
83.943017
 42
0.016608
  0
VERTEX
  8
0
 10
112.265051
 20
83.172537
 42
0.061971
  0
VERTEX
  8
0
 10
113.009615
 20
82.800638
 42
-0.129614
  0
VERTEX
  8
0
 10
113.606181
 20
82.394916
 42
-0.257445
  0
VERTEX
  8
0
 10
113.722798
 20
81.852612
 42
-0.098812
  0
VERTEX
  8
0
 10
113.288771
 20
81.037164
 42
-0.014345
  0
VERTEX
  8
0
 10
112.050033
 20
79.609871
 42
0.000000
  0
VERTEX
  8
0
 10
109.600067
 20
76.945388
 42
0.000000
  0
VERTEX
  8
0
 10
112.272727
 20
74.272727
 42
0.000000
  0
VERTEX
  8
0
 10
114.945388
 20
71.600067
 42
0.000000
  0
VERTEX
  8
0
 10
117.472694
 20
73.974347
 42
0.000000
  0
VERTEX
  8
0
 10
120.000000
 20
76.348628
 42
0.000000
  0
VERTEX
  8
0
 10
122.527306
 20
73.974347
 42
0.000000
  0
VERTEX
  8
0
 10
125.054612
 20
71.600067
 42
0.000000
  0
VERTEX
  8
0
 10
127.727273
 20
74.272727
 42
0.000000
  0
VERTEX
  8
0
 10
130.399933
 20
76.945388
 42
0.000000
  0
VERTEX
  8
0
 10
128.183498
 20
79.304675
 42
0.000000
  0
VERTEX
  8
0
 10
125.967063
 20
81.663963
 42
0.000000
  0
VERTEX
  8
0
 10
128.622584
 20
82.873899
 42
0.039770
  0
VERTEX
  8
0
 10
129.782908
 20
83.518412
 42
0.022634
  0
VERTEX
  8
0
 10
131.078958
 20
84.466927
 42
0.022489
  0
VERTEX
  8
0
 10
132.305200
 20
85.546803
 42
0.034337
  0
VERTEX
  8
0
 10
133.255680
 20
86.597915
 42
-0.010242
  0
VERTEX
  8
0
 10
134.584564
 20
88.217904
 42
-0.183943
  0
VERTEX
  8
0
 10
135.164516
 20
88.534353
 42
-0.258724
  0
VERTEX
  8
0
 10
135.704781
 20
88.324388
 42
-0.020695
  0
VERTEX
  8
0
 10
136.667912
 20
87.063734
 42
0.065976
  0
VERTEX
  8
0
 10
138.405176
 20
85.171680
 42
0.064799
  0
VERTEX
  8
0
 10
140.585321
 20
83.783963
 42
0.052487
  0
VERTEX
  8
0
 10
143.437278
 20
82.798968
 42
0.025405
  0
VERTEX
  8
0
 10
147.241771
 20
82.118959
 42
0.000000
  0
VERTEX
  8
0
 10
152.125318
 20
81.500000
 42
0.000000
  0
VERTEX
  8
0
 10
149.883080
 20
79.099057
 42
0.000000
  0
VERTEX
  8
0
 10
147.640841
 20
76.698115
 42
0.000000
  0
VERTEX
  8
0
 10
150.320421
 20
74.561493
 42
-0.044684
  0
VERTEX
  8
0
 10
151.704246
 20
73.239779
 42
-0.086852
  0
VERTEX
  8
0
 10
152.494957
 20
71.937776
 42
-0.071054
  0
VERTEX
  8
0
 10
152.885913
 20
70.272798
 42
-0.022194
  0
VERTEX
  8
0
 10
153.000000
 20
67.703896
 42
0.000000
  0
VERTEX
  8
0
 10
153.000000
 20
62.982922
 42
0.000000
  0
VERTEX
  8
0
 10
98.250000
 20
63.241461
 42
0.000000
  0
VERTEX
  8
0
 10
43.500000
 20
63.500000
 42
0.000000
  0
VERTEX
  8
0
 10
43.209151
 20
70.037648
 42
0.000000
  0
VERTEX
  8
0
 10
42.918301
 20
76.575296
 42
0.000000
  0
VERTEX
  8
0
 10
50.326141
 20
78.754719
 42
0.041083
  0
VERTEX
  8
0
 10
56.346653
 20
81.077751
 42
0.020384
  0
VERTEX
  8
0
 10
63.568962
 20
84.940564
 42
0.020054
  0
VERTEX
  8
0
 10
70.272610
 20
89.256304
 42
0.055841
  0
VERTEX
  8
0
 10
74.461689
 20
92.957667
 42
-0.076877
  0
VERTEX
  8
0
 10
76.451782
 20
94.572847
 42
-0.248783
  0
VERTEX
  8
0
 10
78.098014
 20
94.639825
 42
-0.198593
  0
VERTEX
  8
0
 10
79.345104
 20
93.251087
 42
-0.051679
  0
SEQEND
  0
POLYLINE
  8
0
 66
1
 70
1
  0
VERTEX
  8
0
 10
488.000000
 20
81.934017
 42
-0.168681
  0
VERTEX
  8
0
 10
487.709994
 20
81.098847
 42
-0.133380
  0
VERTEX
  8
0
 10
486.936538
 20
80.526370
 42
-0.105911
  0
VERTEX
  8
0
 10
485.816708
 20
80.344573
 42
-0.079243
  0
VERTEX
  8
0
 10
484.590242
 20
80.603744
 42
-0.064101
  0
VERTEX
  8
0
 10
483.286744
 20
81.306456
 42
-0.350718
  0
VERTEX
  8
0
 10
483.085109
 20
82.024651
 42
-0.251131
  0
VERTEX
  8
0
 10
483.788138
 20
82.590595
 42
-0.046459
  0
VERTEX
  8
0
 10
485.500000
 20
82.750000
 42
-0.030954
  0
VERTEX
  8
0
 10
486.457744
 20
82.690652
 42
-0.047966
  0
VERTEX
  8
0
 10
487.265625
 20
82.510305
 42
-0.061273
  0
VERTEX
  8
0
 10
487.826478
 20
82.247714
 42
-0.258145
  0
SEQEND
  0
POLYLINE
  8
0
 66
1
 70
1
  0
VERTEX
  8
0
 10
121.638076
 20
79.209504
 42
-0.037810
  0
VERTEX
  8
0
 10
120.769605
 20
78.463310
 42
-0.139156
  0
VERTEX
  8
0
 10
120.097987
 20
78.212279
 42
-0.149033
  0
VERTEX
  8
0
 10
119.422128
 20
78.359679
 42
-0.045558
  0
VERTEX
  8
0
 10
118.550188
 20
78.958347
 42
-0.036826
  0
VERTEX
  8
0
 10
117.201678
 20
80.256422
 42
-0.345879
  0
VERTEX
  8
0
 10
117.152922
 20
81.007349
 42
-0.258036
  0
VERTEX
  8
0
 10
117.938573
 20
81.401092
 42
-0.026320
  0
VERTEX
  8
0
 10
120.087887
 20
81.200409
 42
-0.011423
  0
VERTEX
  8
0
 10
121.900487
 20
80.891926
 42
-0.181402
  0
VERTEX
  8
0
 10
122.423744
 20
80.570886
 42
-0.341073
  0
VERTEX
  8
0
 10
122.425674
 20
80.108743
 42
-0.033056
  0
SEQEND
  0
POLYLINE
  8
0
 66
1
 70
1
  0
VERTEX
  8
0
 10
39.776935
 20
53.637862
 42
-0.082553
  0
VERTEX
  8
0
 10
40.372772
 20
53.117055
 42
-0.018184
  0
VERTEX
  8
0
 10
41.199101
 20
52.033210
 42
-0.018442
  0
VERTEX
  8
0
 10
42.072921
 20
50.694072
 42
-0.016814
  0
VERTEX
  8
0
 10
42.874587
 20
49.252922
 42
0.000000
  0
VERTEX
  8
0
 10
44.730467
 20
45.635439
 42
0.000000
  0
VERTEX
  8
0
 10
47.095749
 20
49.745209
 42
-0.028856
  0
VERTEX
  8
0
 10
48.270723
 20
51.538888
 42
-0.044641
  0
VERTEX
  8
0
 10
49.500711
 20
52.922059
 42
-0.053318
  0
VERTEX
  8
0
 10
50.749135
 20
53.867566
 42
-0.088175
  0
VERTEX
  8
0
 10
51.980516
 20
54.339184
 42
-0.012541
  0
VERTEX
  8
0
 10
52.967500
 20
54.503317
 42
-0.018085
  0
VERTEX
  8
0
 10
53.847730
 20
54.594787
 42
-0.013979
  0
VERTEX
  8
0
 10
54.566149
 20
54.623122
 42
-0.199713
  0
VERTEX
  8
0
 10
54.798990
 20
54.529371
 42
-0.335313
  0
VERTEX
  8
0
 10
54.836061
 20
54.278522
 42
-0.002820
  0
VERTEX
  8
0
 10
53.823552
 20
52.451216
 42
-0.008329
  0
VERTEX
  8
0
 10
52.585699
 20
50.330196
 42
-0.005093
  0
VERTEX
  8
0
 10
51.058491
 20
47.867676
 42
0.014847
  0
VERTEX
  8
0
 10
49.089748
 20
44.550458
 42
0.035417
  0
VERTEX
  8
0
 10
47.882760
 20
41.953888
 42
0.045187
  0
VERTEX
  8
0
 10
47.232305
 20
39.639743
 42
0.045396
  0
VERTEX
  8
0
 10
47.009500
 20
37.250000
 42
-0.015578
  0
VERTEX
  8
0
 10
46.932256
 20
34.937317
 42
-0.094563
  0
VERTEX
  8
0
 10
46.633543
 20
33.782438
 42
-0.185759
  0
VERTEX
  8
0
 10
46.028790
 20
33.205582
 42
-0.098936
  0
VERTEX
  8
0
 10
45.000000
 20
33.000000
 42
-0.035568
  0
VERTEX
  8
0
 10
44.229916
 20
33.054851
 42
-0.051876
  0
VERTEX
  8
0
 10
43.570575
 20
33.220312
 42
-0.065516
  0
VERTEX
  8
0
 10
43.106479
 20
33.462149
 42
-0.224381
  0
VERTEX
  8
0
 10
42.942384
 20
33.750000
 42
0.019169
  0
VERTEX
  8
0
 10
42.451244
 20
38.001759
 42
0.036891
  0
VERTEX
  8
0
 10
41.679561
 20
41.341331
 42
0.038449
  0
VERTEX
  8
0
 10
40.450061
 20
44.440320
 42
0.022838
  0
VERTEX
  8
0
 10
38.543546
 20
47.928316
 42
-0.003211
  0
VERTEX
  8
0
 10
37.185454
 20
50.196677
 42
-0.004923
  0
VERTEX
  8
0
 10
36.040917
 20
52.180884
 42
-0.001836
  0
VERTEX
  8
0
 10
35.082035
 20
53.896399
 42
-0.127183
  0
VERTEX
  8
0
 10
35.000000
 20
54.213692
 42
-0.409475
  0
VERTEX
  8
0
 10
35.367809
 20
54.587510
 42
-0.034056
  0
VERTEX
  8
0
 10
36.864954
 20
54.509769
 42
-0.037288
  0
VERTEX
  8
0
 10
38.530014
 20
54.181757
 42
-0.071252
  0
SEQEND
  0
POLYLINE
  8
0
 66
1
 70
1
  0
VERTEX
  8
0
 10
70.671277
 20
44.991019
 42
-0.004099
  0
VERTEX
  8
0
 10
72.292035
 20
41.264039
 42
-0.005815
  0
VERTEX
  8
0
 10
73.667753
 20
37.920799
 42
-0.003436
  0
VERTEX
  8
0
 10
74.771810
 20
35.090036
 42
-0.080583
  0
VERTEX
  8
0
 10
74.945757
 20
34.250000
 42
-0.188263
  0
VERTEX
  8
0
 10
74.783053
 20
33.773125
 42
-0.094966
  0
VERTEX
  8
0
 10
74.281536
 20
33.367188
 42
-0.072484
  0
VERTEX
  8
0
 10
73.519632
 20
33.092193
 42
-0.050459
  0
VERTEX
  8
0
 10
72.608408
 20
33.000000
 42
-0.063382
  0
VERTEX
  8
0
 10
71.469180
 20
33.144996
 42
-0.110050
  0
VERTEX
  8
0
 10
70.623923
 20
33.576922
 42
-0.104882
  0
VERTEX
  8
0
 10
70.015949
 20
34.344052
 42
-0.053868
  0
VERTEX
  8
0
 10
69.589356
 20
35.500000
 42
0.054667
  0
VERTEX
  8
0
 10
69.193026
 20
36.568699
 42
0.085775
  0
VERTEX
  8
0
 10
68.612863
 20
37.355308
 42
0.098003
  0
VERTEX
  8
0
 10
67.865892
 20
37.832827
 42
0.093626
  0
VERTEX
  8
0
 10
66.980948
 20
38.000000
 42
-0.198220
  0
VERTEX
  8
0
 10
65.766670
 20
38.501076
 42
-0.131808
  0
VERTEX
  8
0
 10
65.000508
 20
39.820912
 42
-0.141895
  0
VERTEX
  8
0
 10
65.026794
 20
41.276541
 42
-0.228671
  0
VERTEX
  8
0
 10
65.855327
 20
42.166667
 42
0.290487
  0
VERTEX
  8
0
 10
66.109817
 20
42.512953
 42
0.042065
  0
VERTEX
  8
0
 10
66.095398
 20
43.430208
 42
0.036831
  0
VERTEX
  8
0
 10
65.884404
 20
44.634594
 42
0.023309
  0
VERTEX
  8
0
 10
65.471492
 20
46.000000
 42
0.000000
  0
VERTEX
  8
0
 10
64.232329
 20
49.500000
 42
0.000000
  0
VERTEX
  8
0
 10
63.141079
 20
46.750429
 42
0.045530
  0
VERTEX
  8
0
 10
62.766250
 20
45.479608
 42
0.027659
  0
VERTEX
  8
0
 10
62.546658
 20
43.927169
 42
0.027579
  0
VERTEX
  8
0
 10
62.499210
 20
42.349660
 42
0.043107
  0
VERTEX
  8
0
 10
62.649914
 20
41.000429
 42
-0.021102
  0
VERTEX
  8
0
 10
62.906749
 20
39.358853
 42
-0.139413
  0
VERTEX
  8
0
 10
62.772460
 20
38.547574
 42
-0.222984
  0
VERTEX
  8
0
 10
62.268978
 20
38.131248
 42
-0.063118
  0
VERTEX
  8
0
 10
61.233408
 20
38.000000
 42
0.090339
  0
VERTEX
  8
0
 10
60.326771
 20
37.834843
 42
0.099583
  0
VERTEX
  8
0
 10
59.571165
 20
37.362284
 42
0.087623
  0
VERTEX
  8
0
 10
58.988643
 20
36.577597
 42
0.054527
  0
VERTEX
  8
0
 10
58.589356
 20
35.500000
 42
-0.140300
  0
VERTEX
  8
0
 10
57.691358
 20
33.948513
 42
-0.120503
  0
VERTEX
  8
0
 10
56.056851
 20
32.996345
 42
-0.188885
  0
VERTEX
  8
0
 10
54.635975
 20
33.118466
 42
-0.285306
  0
VERTEX
  8
0
 10
54.000000
 20
34.142293
 42
-0.097846
  0
VERTEX
  8
0
 10
54.363658
 20
35.982820
 42
-0.002473
  0
VERTEX
  8
0
 10
57.650923
 20
43.865657
 42
-0.003466
  0
VERTEX
  8
0
 10
60.942460
 20
51.502105
 42
-0.062054
  0
VERTEX
  8
0
 10
62.308932
 20
53.792889
 42
-0.226756
  0
VERTEX
  8
0
 10
63.970732
 20
54.622504
 42
-0.210024
  0
VERTEX
  8
0
 10
65.736248
 20
53.882353
 42
-0.071629
  0
VERTEX
  8
0
 10
67.833930
 20
50.923968
 42
-0.013843
  0
SEQEND
  0
POLYLINE
  8
0
 66
1
 70
1
  0
VERTEX
  8
0
 10
100.871191
 20
51.250000
 42
-0.014853
  0
VERTEX
  8
0
 10
102.846741
 20
47.072891
 42
-0.005919
  0
VERTEX
  8
0
 10
105.315525
 20
41.237396
 42
-0.002547
  0
VERTEX
  8
0
 10
107.725864
 20
35.259953
 42
-0.094833
  0
VERTEX
  8
0
 10
108.000000
 20
33.827592
 42
-0.346112
  0
VERTEX
  8
0
 10
107.347145
 20
32.997446
 42
-0.138412
  0
VERTEX
  8
0
 10
105.804689
 20
33.054710
 42
-0.088763
  0
VERTEX
  8
0
 10
103.973318
 20
34.029768
 42
-0.119809
  0
VERTEX
  8
0
 10
102.818046
 20
35.500000
 42
0.056020
  0
VERTEX
  8
0
 10
102.245644
 20
36.456106
 42
0.055346
  0
VERTEX
  8
0
 10
101.473225
 20
37.265625
 42
0.060448
  0
VERTEX
  8
0
 10
100.627236
 20
37.816895
 42
0.114691
  0
VERTEX
  8
0
 10
99.839485
 20
38.000000
 42
-0.211966
  0
VERTEX
  8
0
 10
98.672529
 20
38.517984
 42
-0.138051
  0
VERTEX
  8
0
 10
98.006447
 20
39.859250
 42
-0.141534
  0
VERTEX
  8
0
 10
98.145747
 20
41.326800
 42
-0.221837
  0
VERTEX
  8
0
 10
99.049856
 20
42.183285
 42
0.243969
  0
VERTEX
  8
0
 10
99.409950
 20
42.554303
 42
0.096687
  0
VERTEX
  8
0
 10
99.482342
 20
43.282445
 42
0.055619
  0
VERTEX
  8
0
 10
99.255577
 20
44.374150
 42
0.020527
  0
VERTEX
  8
0
 10
98.705418
 20
45.849285
 42
0.000000
  0
VERTEX
  8
0
 10
97.311124
 20
49.165333
 42
0.000000
  0
VERTEX
  8
0
 10
95.957970
 20
45.898531
 42
0.016349
  0
VERTEX
  8
0
 10
95.341898
 20
44.261812
 42
0.071346
  0
VERTEX
  8
0
 10
95.152143
 20
43.247045
 42
0.150531
  0
VERTEX
  8
0
 10
95.317732
 20
42.615461
 42
0.175216
  0
VERTEX
  8
0
 10
95.802408
 20
42.232531
 42
-0.204020
  0
VERTEX
  8
0
 10
96.820991
 20
41.331447
 42
-0.160419
  0
VERTEX
  8
0
 10
97.007820
 20
39.855179
 42
-0.155144
  0
VERTEX
  8
0
 10
96.279183
 20
38.521662
 42
-0.193068
  0
VERTEX
  8
0
 10
94.978561
 20
38.000000
 42
0.099216
  0
VERTEX
  8
0
 10
94.090323
 20
37.821994
 42
0.068524
  0
VERTEX
  8
0
 10
93.204205
 20
37.299940
 42
0.062430
  0
VERTEX
  8
0
 10
92.416428
 20
36.498600
 42
0.056219
  0
VERTEX
  8
0
 10
91.818046
 20
35.500000
 42
-0.056663
  0
VERTEX
  8
0
 10
91.231120
 20
34.522480
 42
-0.059104
  0
VERTEX
  8
0
 10
90.446984
 20
33.717053
 42
-0.064719
  0
VERTEX
  8
0
 10
89.575432
 20
33.180942
 42
-0.105945
  0
VERTEX
  8
0
 10
88.731077
 20
33.000000
 42
-0.303296
  0
VERTEX
  8
0
 10
87.590108
 20
33.762218
 42
-0.158125
  0
VERTEX
  8
0
 10
87.448768
 20
35.542387
 42
-0.043842
  0
VERTEX
  8
0
 10
88.656092
 20
39.160740
 42
-0.005778
  0
VERTEX
  8
0
 10
91.967137
 20
46.550580
 42
-0.011324
  0
VERTEX
  8
0
 10
93.702397
 20
50.093534
 42
-0.023656
  0
VERTEX
  8
0
 10
95.242561
 20
52.750198
 42
-0.024660
  0
VERTEX
  8
0
 10
96.559372
 20
54.586924
 42
-0.228740
  0
VERTEX
  8
0
 10
97.415066
 20
55.000000
 42
-0.166413
  0
VERTEX
  8
0
 10
98.136924
 20
54.752904
 42
-0.041661
  0
VERTEX
  8
0
 10
99.067321
 20
53.898438
 42
-0.037949
  0
VERTEX
  8
0
 10
100.025876
 20
52.685486
 42
-0.030369
  0
SEQEND
  0
POLYLINE
  8
0
 66
1
 70
1
  0
VERTEX
  8
0
 10
165.583059
 20
44.156208
 42
-0.001326
  0
VERTEX
  8
0
 10
167.276221
 20
40.161776
 42
-0.002105
  0
VERTEX
  8
0
 10
168.702523
 20
36.731581
 42
-0.000453
  0
VERTEX
  8
0
 10
169.939826
 20
33.712448
 42
-0.097315
  0
VERTEX
  8
0
 10
170.000000
 20
33.406208
 42
-0.338669
  0
VERTEX
  8
0
 10
169.878199
 20
33.247010
 42
-0.024098
  0
VERTEX
  8
0
 10
169.297470
 20
33.119324
 42
-0.026097
  0
VERTEX
  8
0
 10
168.525222
 20
33.029292
 42
-0.015971
  0
VERTEX
  8
0
 10
167.608408
 20
33.000000
 42
-0.063382
  0
VERTEX
  8
0
 10
166.469180
 20
33.144996
 42
-0.110050
  0
VERTEX
  8
0
 10
165.623923
 20
33.576922
 42
-0.104882
  0
VERTEX
  8
0
 10
165.015949
 20
34.344052
 42
-0.053868
  0
VERTEX
  8
0
 10
164.589356
 20
35.500000
 42
0.054242
  0
VERTEX
  8
0
 10
164.182974
 20
36.598661
 42
0.092086
  0
VERTEX
  8
0
 10
163.594483
 20
37.378735
 42
0.103036
  0
VERTEX
  8
0
 10
162.817265
 20
37.839861
 42
0.082721
  0
VERTEX
  8
0
 10
161.855948
 20
38.000000
 42
-0.056518
  0
VERTEX
  8
0
 10
160.754603
 20
38.124890
 42
-0.223571
  0
VERTEX
  8
0
 10
160.232460
 20
38.534948
 42
-0.145633
  0
VERTEX
  8
0
 10
160.089717
 20
39.337971
 42
-0.021024
  0
VERTEX
  8
0
 10
160.350086
 20
41.000429
 42
0.042075
  0
VERTEX
  8
0
 10
160.503602
 20
42.349641
 42
0.026945
  0
VERTEX
  8
0
 10
160.464656
 20
43.927169
 42
0.027032
  0
VERTEX
  8
0
 10
160.257559
 20
45.479707
 42
0.044778
  0
VERTEX
  8
0
 10
159.897438
 20
46.750429
 42
0.000000
  0
VERTEX
  8
0
 10
158.844704
 20
49.500000
 42
0.000000
  0
VERTEX
  8
0
 10
157.372497
 20
46.016619
 42
0.019929
  0
VERTEX
  8
0
 10
156.793863
 20
44.479416
 42
0.052655
  0
VERTEX
  8
0
 10
156.543414
 20
43.332260
 42
0.089791
  0
VERTEX
  8
0
 10
156.596825
 20
42.563495
 42
0.255496
  0
VERTEX
  8
0
 10
156.950144
 20
42.183285
 42
-0.219308
  0
VERTEX
  8
0
 10
157.882266
 20
41.308758
 42
-0.152284
  0
VERTEX
  8
0
 10
158.004190
 20
39.847436
 42
-0.143557
  0
VERTEX
  8
0
 10
157.268960
 20
38.514847
 42
-0.197889
  0
VERTEX
  8
0
 10
156.019052
 20
38.000000
 42
0.093626
  0
VERTEX
  8
0
 10
155.134108
 20
37.832827
 42
0.098003
  0
VERTEX
  8
0
 10
154.387137
 20
37.355308
 42
0.085775
  0
VERTEX
  8
0
 10
153.806974
 20
36.568699
 42
0.054667
  0
VERTEX
  8
0
 10
153.410644
 20
35.500000
 42
-0.053868
  0
VERTEX
  8
0
 10
152.984051
 20
34.344052
 42
-0.104882
  0
VERTEX
  8
0
 10
152.376077
 20
33.576922
 42
-0.110050
  0
VERTEX
  8
0
 10
151.530820
 20
33.144996
 42
-0.063382
  0
VERTEX
  8
0
 10
150.391592
 20
33.000000
 42
-0.023202
  0
VERTEX
  8
0
 10
149.475032
 20
33.042555
 42
-0.037089
  0
VERTEX
  8
0
 10
148.702530
 20
33.172724
 42
-0.042809
  0
VERTEX
  8
0
 10
148.148980
 20
33.360256
 42
-0.298028
  0
VERTEX
  8
0
 10
148.000000
 20
33.587998
 42
-0.096590
  0
VERTEX
  8
0
 10
148.082786
 20
34.012547
 42
-0.001400
  0
VERTEX
  8
0
 10
149.058833
 20
36.400860
 42
-0.003791
  0
VERTEX
  8
0
 10
150.223104
 20
39.167377
 42
-0.002485
  0
VERTEX
  8
0
 10
151.604537
 20
42.337998
 42
0.001185
  0
VERTEX
  8
0
 10
153.050345
 20
45.632959
 42
0.001365
  0
VERTEX
  8
0
 10
154.413757
 20
48.783718
 42
0.001223
  0
VERTEX
  8
0
 10
155.555549
 20
51.460250
 42
0.007929
  0
VERTEX
  8
0
 10
156.106149
 20
52.819340
 42
-0.054600
  0
VERTEX
  8
0
 10
156.632367
 20
53.834693
 42
-0.098374
  0
VERTEX
  8
0
 10
157.291470
 20
54.496492
 42
-0.108670
  0
VERTEX
  8
0
 10
158.104452
 20
54.816346
 42
-0.077801
  0
VERTEX
  8
0
 10
159.084671
 20
54.819340
 42
-0.171883
  0
VERTEX
  8
0
 10
160.322617
 20
54.154776
 42
-0.047627
  0
VERTEX
  8
0
 10
161.664148
 20
52.362342
 42
-0.028662
  0
VERTEX
  8
0
 10
163.296585
 20
49.301937
 42
-0.007283
  0
SEQEND
  0
POLYLINE
  8
0
 66
1
 70
1
  0
VERTEX
  8
0
 10
213.000000
 20
51.940983
 42
-0.075715
  0
VERTEX
  8
0
 10
212.887055
 20
51.199409
 42
-0.089148
  0
VERTEX
  8
0
 10
212.559375
 20
50.570164
 42
-0.100726
  0
VERTEX
  8
0
 10
212.072040
 20
50.149516
 42
-0.128528
  0
VERTEX
  8
0
 10
211.500000
 20
50.000000
 42
0.130775
  0
VERTEX
  8
0
 10
210.924246
 20
49.846791
 42
0.102140
  0
VERTEX
  8
0
 10
210.437500
 20
49.416667
 42
0.088920
  0
VERTEX
  8
0
 10
210.111864
 20
48.769411
 42
0.072314
  0
VERTEX
  8
0
 10
210.000000
 20
48.000000
 42
0.086932
  0
VERTEX
  8
0
 10
210.175143
 20
47.000254
 42
0.176148
  0
VERTEX
  8
0
 10
210.680123
 20
46.395307
 42
0.108772
  0
VERTEX
  8
0
 10
211.655067
 20
46.083210
 42
0.023284
  0
VERTEX
  8
0
 10
213.440983
 20
46.000000
 42
0.051448
  0
VERTEX
  8
0
 10
215.962693
 20
46.260164
 42
0.157380
  0
VERTEX
  8
0
 10
217.438274
 20
47.100742
 42
0.292423
  0
VERTEX
  8
0
 10
217.639740
 20
48.261819
 42
0.136399
  0
VERTEX
  8
0
 10
216.652775
 20
49.511946
 42
-0.057072
  0
VERTEX
  8
0
 10
216.020426
 20
50.095620
 42
-0.046434
  0
VERTEX
  8
0
 10
215.485503
 20
50.847156
 42
-0.048160
  0
VERTEX
  8
0
 10
215.120465
 20
51.644072
 42
-0.083517
  0
VERTEX
  8
0
 10
215.000000
 20
52.360243
 42
-0.270881
  0
VERTEX
  8
0
 10
215.763178
 20
53.665572
 42
-0.162003
  0
VERTEX
  8
0
 10
217.581417
 20
54.017990
 42
-0.108183
  0
VERTEX
  8
0
 10
219.860990
 20
53.198017
 42
-0.107899
  0
VERTEX
  8
0
 10
221.591957
 20
51.500000
 42
-0.025277
  0
VERTEX
  8
0
 10
222.470296
 20
49.999186
 42
-0.115002
  0
VERTEX
  8
0
 10
222.719015
 20
49.024952
 42
-0.121312
  0
VERTEX
  8
0
 10
222.504627
 20
48.068407
 42
-0.029537
  0
VERTEX
  8
0
 10
221.693526
 20
46.655014
 42
0.023449
  0
VERTEX
  8
0
 10
220.856262
 20
45.236302
 42
0.146650
  0
VERTEX
  8
0
 10
220.694774
 20
44.418845
 42
0.162474
  0
VERTEX
  8
0
 10
221.018178
 20
43.691374
 42
0.030571
  0
VERTEX
  8
0
 10
222.078516
 20
42.664801
 42
-0.051054
  0
VERTEX
  8
0
 10
222.813791
 20
41.892245
 42
-0.041610
  0
VERTEX
  8
0
 10
223.435564
 20
40.933805
 42
-0.043193
  0
VERTEX
  8
0
 10
223.861143
 20
39.943765
 42
-0.080083
  0
VERTEX
  8
0
 10
224.000000
 20
39.082368
 42
-0.163111
  0
VERTEX
  8
0
 10
223.388945
 20
37.259076
 42
-0.054582
  0
VERTEX
  8
0
 10
221.435369
 20
35.186312
 42
-0.054307
  0
VERTEX
  8
0
 10
219.007378
 20
33.534382
 42
-0.122843
  0
VERTEX
  8
0
 10
216.865141
 20
33.000000
 42
-0.205338
  0
VERTEX
  8
0
 10
215.523169
 20
33.575375
 42
-0.203521
  0
VERTEX
  8
0
 10
215.008210
 20
34.947027
 42
-0.161208
  0
VERTEX
  8
0
 10
215.608072
 20
36.530713
 42
-0.146465
  0
VERTEX
  8
0
 10
217.056870
 20
37.518050
 42
0.137522
  0
VERTEX
  8
0
 10
218.714758
 20
38.605810
 42
0.336295
  0
VERTEX
  8
0
 10
218.808092
 20
39.976634
 42
0.170024
  0
VERTEX
  8
0
 10
217.168102
 20
41.231463
 42
0.061056
  0
VERTEX
  8
0
 10
214.241373
 20
41.807498
 42
0.012455
  0
VERTEX
  8
0
 10
211.662929
 20
41.929973
 42
0.128270
  0
VERTEX
  8
0
 10
210.634543
 20
41.686369
 42
0.226077
  0
VERTEX
  8
0
 10
210.142389
 20
41.023112
 42
0.048463
  0
VERTEX
  8
0
 10
210.000000
 20
39.557498
 42
0.045179
  0
VERTEX
  8
0
 10
210.097353
 20
38.482282
 42
0.087686
  0
VERTEX
  8
0
 10
210.396628
 20
37.676250
 42
0.119757
  0
VERTEX
  8
0
 10
210.876087
 20
37.180624
 42
0.141839
  0
VERTEX
  8
0
 10
211.500000
 20
37.000000
 42
-0.130775
  0
VERTEX
  8
0
 10
212.075754
 20
36.846791
 42
-0.102140
  0
VERTEX
  8
0
 10
212.562500
 20
36.416667
 42
-0.088920
  0
VERTEX
  8
0
 10
212.888136
 20
35.769411
 42
-0.072314
  0
VERTEX
  8
0
 10
213.000000
 20
35.000000
 42
-0.087745
  0
VERTEX
  8
0
 10
212.822713
 20
33.997538
 42
-0.177212
  0
VERTEX
  8
0
 10
212.312500
 20
33.392857
 42
-0.107690
  0
VERTEX
  8
0
 10
211.324280
 20
33.082184
 42
-0.022514
  0
VERTEX
  8
0
 10
209.500000
 20
33.000000
 42
0.000000
  0
VERTEX
  8
0
 10
206.000000
 20
33.000000
 42
0.000000
  0
VERTEX
  8
0
 10
206.000000
 20
43.433578
 42
0.000000
  0
VERTEX
  8
0
 10
206.000000
 20
53.867155
 42
0.000000
  0
VERTEX
  8
0
 10
208.750000
 20
54.219284
 42
-0.022761
  0
VERTEX
  8
0
 10
211.040728
 20
54.407178
 42
-0.132877
  0
VERTEX
  8
0
 10
212.208380
 20
54.136390
 42
-0.206102
  0
VERTEX
  8
0
 10
212.807170
 20
53.383990
 42
-0.066520
  0
SEQEND
  0
POLYLINE
  8
0
 66
1
 70
1
  0
VERTEX
  8
0
 10
262.444227
 20
54.090242
 42
-0.098775
  0
VERTEX
  8
0
 10
262.616500
 20
53.627886
 42
-0.044764
  0
VERTEX
  8
0
 10
262.662068
 20
52.980592
 42
-0.041972
  0
VERTEX
  8
0
 10
262.588142
 20
52.265958
 42
-0.044889
  0
VERTEX
  8
0
 10
262.396256
 20
51.590242
 42
-0.153373
  0
VERTEX
  8
0
 10
261.801988
 20
50.841349
 42
-0.084372
  0
VERTEX
  8
0
 10
260.727337
 20
50.352006
 42
-0.049873
  0
VERTEX
  8
0
 10
259.024691
 20
50.078479
 42
-0.014907
  0
VERTEX
  8
0
 10
256.393011
 20
50.000000
 42
0.010128
  0
VERTEX
  8
0
 10
253.323714
 20
49.937822
 42
0.078817
  0
VERTEX
  8
0
 10
251.924126
 20
49.657287
 42
0.189944
  0
VERTEX
  8
0
 10
251.249138
 20
49.052567
 42
0.116735
  0
VERTEX
  8
0
 10
251.000000
 20
48.000000
 42
0.110458
  0
VERTEX
  8
0
 10
251.233935
 20
46.953987
 42
0.189791
  0
VERTEX
  8
0
 10
251.875000
 20
46.350000
 42
0.083766
  0
VERTEX
  8
0
 10
253.190675
 20
46.064942
 42
0.011557
  0
VERTEX
  8
0
 10
256.000000
 20
46.000000
 42
-0.011557
  0
VERTEX
  8
0
 10
258.809325
 20
45.935058
 42
-0.083766
  0
VERTEX
  8
0
 10
260.125000
 20
45.650000
 42
-0.189791
  0
VERTEX
  8
0
 10
260.766065
 20
45.046013
 42
-0.110458
  0
VERTEX
  8
0
 10
261.000000
 20
44.000000
 42
-0.110458
  0
VERTEX
  8
0
 10
260.766065
 20
42.953987
 42
-0.189791
  0
VERTEX
  8
0
 10
260.125000
 20
42.350000
 42
-0.083766
  0
VERTEX
  8
0
 10
258.809325
 20
42.064942
 42
-0.011557
  0
VERTEX
  8
0
 10
256.000000
 20
42.000000
 42
0.010324
  0
VERTEX
  8
0
 10
252.960310
 20
41.937230
 42
0.105983
  0
VERTEX
  8
0
 10
251.750000
 20
41.625000
 42
0.217022
  0
VERTEX
  8
0
 10
251.180083
 20
40.919849
 42
0.063163
  0
VERTEX
  8
0
 10
251.000000
 20
39.500000
 42
0.073582
  0
VERTEX
  8
0
 10
251.212594
 20
38.063213
 42
0.225326
  0
VERTEX
  8
0
 10
251.857332
 20
37.352909
 42
0.090687
  0
VERTEX
  8
0
 10
253.258522
 20
37.054817
 42
0.007184
  0
VERTEX
  8
0
 10
257.073324
 20
37.000000
 42
-0.008024
  0
VERTEX
  8
0
 10
260.487730
 20
36.945204
 42
-0.066099
  0
VERTEX
  8
0
 10
262.017829
 20
36.691837
 42
-0.199984
  0
VERTEX
  8
0
 10
262.676335
 20
36.147388
 42
-0.170479
  0
VERTEX
  8
0
 10
262.809629
 20
35.250000
 42
-0.183869
  0
VERTEX
  8
0
 10
262.250379
 20
34.345834
 42
-0.111953
  0
VERTEX
  8
0
 10
261.094291
 20
33.815331
 42
-0.045147
  0
VERTEX
  8
0
 10
258.915983
 20
33.559295
 42
-0.006693
  0
VERTEX
  8
0
 10
254.486305
 20
33.500000
 42
-0.004758
  0
VERTEX
  8
0
 10
249.452527
 20
33.547899
 42
-0.064574
  0
VERTEX
  8
0
 10
247.639532
 20
33.818197
 42
-0.213881
  0
VERTEX
  8
0
 10
246.839549
 20
34.489802
 42
-0.121274
  0
VERTEX
  8
0
 10
246.571429
 20
35.750000
 42
0.001562
  0
VERTEX
  8
0
 10
246.609278
 20
37.072487
 42
0.000246
  0
VERTEX
  8
0
 10
246.674330
 20
39.674403
 42
0.000273
  0
VERTEX
  8
0
 10
246.747824
 20
42.741358
 42
0.000239
  0
VERTEX
  8
0
 10
246.821429
 20
45.950096
 42
0.000000
  0
VERTEX
  8
0
 10
247.000000
 20
53.900192
 42
0.000000
  0
VERTEX
  8
0
 10
252.750000
 20
54.261012
 42
0.001303
  0
VERTEX
  8
0
 10
255.075410
 20
54.413020
 42
0.001472
  0
VERTEX
  8
0
 10
257.307664
 20
54.571384
 42
0.001342
  0
VERTEX
  8
0
 10
259.205209
 20
54.716739
 42
0.008055
  0
VERTEX
  8
0
 10
260.190983
 20
54.810916
 42
-0.052264
  0
VERTEX
  8
0
 10
260.879504
 20
54.815683
 42
-0.053061
  0
VERTEX
  8
0
 10
261.550404
 20
54.677215
 42
-0.058394
  0
VERTEX
  8
0
 10
262.105847
 20
54.425019
 42
-0.119147
  0
SEQEND
  0
POLYLINE
  8
0
 66
1
 70
1
  0
VERTEX
  8
0
 10
277.850777
 20
53.902175
 42
-0.019289
  0
VERTEX
  8
0
 10
279.980976
 20
53.066127
 42
-0.158715
  0
VERTEX
  8
0
 10
280.749192
 20
52.382254
 42
-0.232330
  0
VERTEX
  8
0
 10
280.811402
 20
51.520356
 42
-0.044995
  0
VERTEX
  8
0
 10
280.077046
 20
50.090423
 42
-0.089440
  0
VERTEX
  8
0
 10
279.473654
 20
49.433263
 42
-0.153816
  0
VERTEX
  8
0
 10
278.780344
 20
49.184591
 42
-0.089991
  0
VERTEX
  8
0
 10
277.802561
 20
49.322739
 42
-0.018213
  0
VERTEX
  8
0
 10
276.152716
 20
49.936743
 42
0.028372
  0
VERTEX
  8
0
 10
274.914177
 20
50.369252
 42
0.033395
  0
VERTEX
  8
0
 10
273.699885
 20
50.631215
 42
0.035503
  0
VERTEX
  8
0
 10
272.667408
 20
50.708521
 42
0.140242
  0
VERTEX
  8
0
 10
272.060357
 20
50.537303
 42
0.158202
  0
VERTEX
  8
0
 10
271.138753
 20
49.450697
 42
0.247621
  0
VERTEX
  8
0
 10
271.253460
 20
48.257797
 42
0.130853
  0
VERTEX
  8
0
 10
272.564000
 20
47.086792
 42
0.044505
  0
VERTEX
  8
0
 10
274.955329
 20
46.131530
 42
-0.038256
  0
VERTEX
  8
0
 10
278.211887
 20
44.877525
 42
-0.086318
  0
VERTEX
  8
0
 10
280.362294
 20
43.354465
 42
-0.108606
  0
VERTEX
  8
0
 10
281.576090
 20
41.443881
 42
-0.087626
  0
VERTEX
  8
0
 10
282.000000
 20
39.043581
 42
-0.186203
  0
VERTEX
  8
0
 10
280.718882
 20
35.722753
 42
-0.133274
  0
VERTEX
  8
0
 10
277.332146
 20
33.554689
 42
-0.106273
  0
VERTEX
  8
0
 10
272.620121
 20
33.116668
 42
-0.089788
  0
VERTEX
  8
0
 10
267.826022
 20
34.589968
 42
-0.015253
  0
VERTEX
  8
0
 10
266.117890
 20
35.540394
 42
-0.136378
  0
VERTEX
  8
0
 10
265.531065
 20
36.156016
 42
-0.261558
  0
VERTEX
  8
0
 10
265.544382
 20
36.781639
 42
-0.063199
  0
VERTEX
  8
0
 10
266.202492
 20
37.631063
 42
-0.066398
  0
VERTEX
  8
0
 10
267.054166
 20
38.282275
 42
-0.106053
  0
VERTEX
  8
0
 10
267.923489
 20
38.559668
 42
-0.084766
  0
VERTEX
  8
0
 10
268.967602
 20
38.484819
 42
-0.030667
  0
VERTEX
  8
0
 10
270.391910
 20
38.041096
 42
0.031716
  0
VERTEX
  8
0
 10
273.254642
 20
37.155830
 42
0.093680
  0
VERTEX
  8
0
 10
275.302184
 20
37.054016
 42
0.176469
  0
VERTEX
  8
0
 10
276.516083
 20
37.696005
 42
0.185842
  0
VERTEX
  8
0
 10
277.000000
 20
38.952996
 42
0.114623
  0
VERTEX
  8
0
 10
276.779126
 20
39.903813
 42
0.107903
  0
VERTEX
  8
0
 10
276.158943
 20
40.684251
 42
0.074889
  0
VERTEX
  8
0
 10
275.060774
 20
41.334854
 42
0.028994
  0
VERTEX
  8
0
 10
273.381725
 20
41.905046
 42
-0.071222
  0
VERTEX
  8
0
 10
269.134776
 20
43.759008
 42
-0.129979
  0
VERTEX
  8
0
 10
266.550736
 20
46.486043
 42
-0.181750
  0
VERTEX
  8
0
 10
266.126765
 20
49.485975
 42
-0.160091
  0
VERTEX
  8
0
 10
267.750000
 20
52.214525
 42
-0.047615
  0
VERTEX
  8
0
 10
270.135245
 20
53.922720
 42
-0.090439
  0
VERTEX
  8
0
 10
272.349562
 20
54.720833
 42
-0.085882
  0
VERTEX
  8
0
 10
274.780372
 20
54.706756
 42
-0.039594
  0
SEQEND
  0
POLYLINE
  8
0
 66
1
 70
1
  0
VERTEX
  8
0
 10
299.382783
 20
52.989402
 42
-0.112544
  0
VERTEX
  8
0
 10
299.674384
 20
52.541651
 42
-0.062867
  0
VERTEX
  8
0
 10
299.821815
 20
51.904957
 42
-0.057838
  0
VERTEX
  8
0
 10
299.812080
 20
51.187595
 42
-0.059393
  0
VERTEX
  8
0
 10
299.637708
 20
50.498266
 42
-0.084008
  0
VERTEX
  8
0
 10
299.214772
 20
49.783053
 42
-0.143068
  0
VERTEX
  8
0
 10
298.640140
 20
49.402505
 42
-0.113325
  0
VERTEX
  8
0
 10
297.849184
 20
49.343040
 42
-0.041849
  0
VERTEX
  8
0
 10
296.754926
 20
49.604217
 42
0.032023
  0
VERTEX
  8
0
 10
294.226334
 20
50.260445
 42
0.070820
  0
VERTEX
  8
0
 10
292.239702
 20
50.356859
 42
0.113834
  0
VERTEX
  8
0
 10
290.908723
 20
49.916373
 42
0.211127
  0
VERTEX
  8
0
 10
290.270492
 20
49.000000
 42
0.221371
  0
VERTEX
  8
0
 10
290.464490
 20
48.219106
 42
0.069589
  0
VERTEX
  8
0
 10
291.365723
 20
47.375090
 42
0.045098
  0
VERTEX
  8
0
 10
292.931448
 20
46.471252
 42
0.017526
  0
VERTEX
  8
0
 10
295.239284
 20
45.500000
 42
-0.013982
  0
VERTEX
  8
0
 10
298.375003
 20
44.206417
 42
-0.093813
  0
VERTEX
  8
0
 10
299.753314
 20
43.250656
 42
-0.134360
  0
VERTEX
  8
0
 10
300.448465
 20
42.008756
 42
-0.040022
  0
VERTEX
  8
0
 10
300.804701
 20
39.845018
 42
-0.139644
  0
VERTEX
  8
0
 10
300.077347
 20
36.149195
 42
-0.170468
  0
VERTEX
  8
0
 10
297.540546
 20
33.731841
 42
-0.126538
  0
VERTEX
  8
0
 10
293.362151
 20
33.006566
 42
-0.063976
  0
VERTEX
  8
0
 10
288.098166
 20
34.115624
 42
-0.082252
  0
VERTEX
  8
0
 10
285.897009
 20
35.316872
 42
-0.226973
  0
VERTEX
  8
0
 10
285.131707
 20
36.858759
 42
-0.334239
  0
VERTEX
  8
0
 10
285.937386
 20
37.961920
 42
-0.114067
  0
VERTEX
  8
0
 10
288.040988
 20
38.104584
 42
0.028316
  0
VERTEX
  8
0
 10
293.755548
 20
37.514931
 42
0.194023
  0
VERTEX
  8
0
 10
296.372188
 20
38.431946
 42
0.513996
  0
VERTEX
  8
0
 10
296.219884
 20
39.963310
 42
0.050130
  0
VERTEX
  8
0
 10
292.209635
 20
41.763455
 42
-0.056144
  0
VERTEX
  8
0
 10
288.709051
 20
43.385535
 42
-0.100153
  0
VERTEX
  8
0
 10
286.386585
 20
45.530687
 42
-0.129733
  0
VERTEX
  8
0
 10
285.437250
 20
47.997296
 42
-0.135037
  0
VERTEX
  8
0
 10
285.850023
 20
50.570182
 42
-0.051647
  0
VERTEX
  8
0
 10
286.449579
 20
51.591753
 42
-0.036551
  0
VERTEX
  8
0
 10
287.314041
 20
52.603616
 42
-0.037037
  0
VERTEX
  8
0
 10
288.294375
 20
53.457703
 42
-0.062133
  0
VERTEX
  8
0
 10
289.241874
 20
53.998366
 42
-0.089059
  0
VERTEX
  8
0
 10
291.488558
 20
54.493179
 42
-0.034589
  0
VERTEX
  8
0
 10
294.682887
 20
54.397261
 42
-0.033162
  0
VERTEX
  8
0
 10
297.743578
 20
53.886140
 42
-0.135221
  0
SEQEND
  0
POLYLINE
  8
0
 66
1
 70
1
  0
VERTEX
  8
0
 10
324.000000
 20
52.616631
 42
-0.061489
  0
VERTEX
  8
0
 10
323.870257
 20
51.565605
 42
-0.088925
  0
VERTEX
  8
0
 10
323.486946
 20
50.714198
 42
-0.095882
  0
VERTEX
  8
0
 10
322.858222
 20
50.093213
 42
-0.083254
  0
VERTEX
  8
0
 10
322.012040
 20
49.713400
 42
0.202804
  0
VERTEX
  8
0
 10
319.577607
 20
47.839738
 42
0.128076
  0
VERTEX
  8
0
 10
318.642690
 20
44.323754
 42
0.116652
  0
VERTEX
  8
0
 10
319.517236
 20
40.539742
 42
0.156258
  0
VERTEX
  8
0
 10
321.952132
 20
38.025618
 42
-0.124013
  0
VERTEX
  8
0
 10
323.307608
 20
36.792504
 42
-0.118156
  0
VERTEX
  8
0
 10
323.947823
 20
35.042134
 42
-0.169739
  0
VERTEX
  8
0
 10
323.625268
 20
33.605444
 42
-0.258986
  0
VERTEX
  8
0
 10
322.534796
 20
33.000000
 42
-0.117471
  0
VERTEX
  8
0
 10
321.754060
 20
33.185995
 42
-0.021947
  0
VERTEX
  8
0
 10
320.461650
 20
33.911680
 42
-0.022418
  0
VERTEX
  8
0
 10
318.995559
 20
34.915424
 42
-0.018843
  0
VERTEX
  8
0
 10
317.534796
 20
36.103592
 42
-0.025241
  0
VERTEX
  8
0
 10
315.649021
 20
37.935849
 42
-0.075606
  0
VERTEX
  8
0
 10
314.639435
 20
39.416656
 42
-0.080625
  0
VERTEX
  8
0
 10
314.150561
 20
41.075669
 42
-0.031427
  0
VERTEX
  8
0
 10
314.000000
 20
43.468734
 42
-0.068308
  0
VERTEX
  8
0
 10
314.459198
 20
46.814271
 42
-0.068005
  0
VERTEX
  8
0
 10
315.802981
 20
49.917846
 42
-0.071265
  0
VERTEX
  8
0
 10
317.856095
 20
52.422242
 42
-0.089694
  0
VERTEX
  8
0
 10
320.388117
 20
54.019931
 42
-0.016400
  0
VERTEX
  8
0
 10
322.504805
 20
54.795441
 42
-0.173965
  0
VERTEX
  8
0
 10
323.408794
 20
54.771850
 42
-0.267236
  0
VERTEX
  8
0
 10
323.877267
 20
54.190103
 42
-0.038942
  0
SEQEND
  0
POLYLINE
  8
0
 66
1
 70
1
  0
VERTEX
  8
0
 10
333.250000
 20
50.906009
 42
-0.088992
  0
VERTEX
  8
0
 10
335.488060
 20
47.451820
 42
-0.110997
  0
VERTEX
  8
0
 10
336.156945
 20
43.697418
 42
-0.107198
  0
VERTEX
  8
0
 10
335.158362
 20
39.918695
 42
-0.078526
  0
VERTEX
  8
0
 10
332.600000
 20
36.400000
 42
-0.032650
  0
VERTEX
  8
0
 10
329.880030
 20
34.013821
 42
-0.121651
  0
VERTEX
  8
0
 10
327.809455
 20
33.107155
 42
-0.284532
  0
VERTEX
  8
0
 10
326.537410
 20
33.620832
 42
-0.159479
  0
VERTEX
  8
0
 10
326.000000
 20
35.262872
 42
-0.077327
  0
VERTEX
  8
0
 10
326.155424
 20
36.261839
 42
-0.074349
  0
VERTEX
  8
0
 10
326.607635
 20
37.181216
 42
-0.072098
  0
VERTEX
  8
0
 10
327.324034
 20
37.951003
 42
-0.066077
  0
VERTEX
  8
0
 10
328.250000
 20
38.512872
 42
0.191980
  0
VERTEX
  8
0
 10
330.305703
 20
40.599158
 42
0.105799
  0
VERTEX
  8
0
 10
330.984695
 20
44.170990
 42
0.108034
  0
VERTEX
  8
0
 10
330.139803
 20
47.650743
 42
0.205324
  0
VERTEX
  8
0
 10
327.997676
 20
49.500738
 42
-0.082799
  0
VERTEX
  8
0
 10
327.144323
 20
49.936955
 42
-0.091642
  0
VERTEX
  8
0
 10
326.513171
 20
50.614112
 42
-0.084131
  0
VERTEX
  8
0
 10
326.129433
 20
51.522732
 42
-0.058000
  0
VERTEX
  8
0
 10
326.000000
 20
52.634775
 42
-0.031371
  0
VERTEX
  8
0
 10
326.083718
 20
53.967796
 42
-0.191294
  0
VERTEX
  8
0
 10
326.410440
 20
54.560962
 42
-0.207635
  0
VERTEX
  8
0
 10
327.036448
 20
54.740877
 42
-0.037476
  0
VERTEX
  8
0
 10
328.250000
 20
54.489173
 42
-0.062006
  0
VERTEX
  8
0
 10
329.304323
 20
54.039329
 42
-0.023671
  0
VERTEX
  8
0
 10
330.646875
 20
53.170308
 42
-0.023007
  0
VERTEX
  8
0
 10
332.031943
 20
52.077914
 42
-0.026143
  0
SEQEND
  0
POLYLINE
  8
0
 66
1
 70
1
  0
VERTEX
  8
0
 10
370.000000
 20
52.190983
 42
-0.041300
  0
VERTEX
  8
0
 10
369.929679
 20
51.341100
 42
-0.092498
  0
VERTEX
  8
0
 10
369.708644
 20
50.734780
 42
-0.172886
  0
VERTEX
  8
0
 10
369.380475
 20
50.461517
 42
-0.230334
  0
VERTEX
  8
0
 10
369.000000
 20
50.500000
 42
0.340681
  0
VERTEX
  8
0
 10
368.601833
 20
50.458794
 42
0.122954
  0
VERTEX
  8
0
 10
368.276383
 20
49.946883
 42
0.057949
  0
VERTEX
  8
0
 10
368.064637
 20
48.932796
 42
0.022524
  0
VERTEX
  8
0
 10
368.000000
 20
47.498652
 42
0.018193
  0
VERTEX
  8
0
 10
368.083472
 20
45.205309
 42
0.196218
  0
VERTEX
  8
0
 10
368.487584
 20
44.390225
 42
0.187206
  0
VERTEX
  8
0
 10
369.356817
 20
44.070089
 42
0.016334
  0
VERTEX
  8
0
 10
371.750000
 20
44.189635
 42
0.023371
  0
VERTEX
  8
0
 10
373.832767
 20
44.460466
 42
0.117820
  0
VERTEX
  8
0
 10
374.901075
 20
44.925550
 42
0.154447
  0
VERTEX
  8
0
 10
375.492070
 20
45.754843
 42
0.049574
  0
VERTEX
  8
0
 10
375.816422
 20
47.250000
 42
0.030541
  0
VERTEX
  8
0
 10
375.893350
 20
48.686639
 42
0.145248
  0
VERTEX
  8
0
 10
375.655892
 20
49.465168
 42
0.189819
  0
VERTEX
  8
0
 10
375.074801
 20
49.872253
 42
0.059049
  0
VERTEX
  8
0
 10
373.996871
 20
50.000000
 42
-0.054619
  0
VERTEX
  8
0
 10
372.965842
 20
50.112965
 42
-0.169949
  0
VERTEX
  8
0
 10
372.380318
 20
50.475945
 42
-0.159670
  0
VERTEX
  8
0
 10
372.127654
 20
51.142130
 42
-0.046764
  0
VERTEX
  8
0
 10
372.180449
 20
52.250000
 42
-0.310802
  0
VERTEX
  8
0
 10
373.828182
 20
54.041021
 42
-0.181009
  0
VERTEX
  8
0
 10
376.846604
 20
53.634816
 42
-0.114390
  0
VERTEX
  8
0
 10
379.891132
 20
50.966162
 42
-0.157100
  0
VERTEX
  8
0
 10
381.000000
 20
47.524075
 42
-0.069049
  0
VERTEX
  8
0
 10
380.854145
 20
46.472935
 42
-0.031260
  0
VERTEX
  8
0
 10
380.391871
 20
45.158824
 42
-0.030209
  0
VERTEX
  8
0
 10
379.722181
 20
43.811062
 42
-0.036256
  0
VERTEX
  8
0
 10
378.929774
 20
42.637852
 42
0.000000
  0
VERTEX
  8
0
 10
376.859549
 20
40.005987
 42
0.000000
  0
VERTEX
  8
0
 10
378.929774
 20
37.098623
 42
-0.010668
  0
VERTEX
  8
0
 10
380.599812
 20
34.644082
 42
-0.163787
  0
VERTEX
  8
0
 10
380.851061
 20
33.665888
 42
-0.348116
  0
VERTEX
  8
0
 10
380.364994
 20
33.137035
 42
-0.039405
  0
VERTEX
  8
0
 10
378.628902
 20
33.000000
 42
-0.092139
  0
VERTEX
  8
0
 10
377.440082
 20
33.220948
 42
-0.066743
  0
VERTEX
  8
0
 10
376.255862
 20
33.869130
 42
-0.053998
  0
VERTEX
  8
0
 10
375.070764
 20
34.955552
 42
-0.030772
  0
VERTEX
  8
0
 10
373.878902
 20
36.493167
 42
0.045424
  0
VERTEX
  8
0
 10
371.619549
 20
39.238159
 42
0.203236
  0
VERTEX
  8
0
 10
369.734334
 20
40.013841
 42
0.316939
  0
VERTEX
  8
0
 10
368.445304
 20
39.084776
 42
0.083301
  0
VERTEX
  8
0
 10
368.000000
 20
36.430449
 42
-0.017831
  0
VERTEX
  8
0
 10
367.928174
 20
34.417060
 42
-0.134357
  0
VERTEX
  8
0
 10
367.614797
 20
33.526717
 42
-0.221672
  0
VERTEX
  8
0
 10
366.971808
 20
33.150873
 42
-0.058505
  0
VERTEX
  8
0
 10
365.750000
 20
33.180449
 42
-0.136143
  0
VERTEX
  8
0
 10
364.488424
 20
33.731324
 42
-0.159713
  0
VERTEX
  8
0
 10
363.785116
 20
34.824438
 42
-0.051715
  0
VERTEX
  8
0
 10
363.441549
 20
37.072837
 42
-0.004388
  0
VERTEX
  8
0
 10
363.210159
 20
42.924983
 42
-0.004388
  0
VERTEX
  8
0
 10
363.129111
 20
46.613930
 42
-0.006219
  0
VERTEX
  8
0
 10
363.126637
 20
49.897164
 42
-0.003714
  0
VERTEX
  8
0
 10
363.179324
 20
52.653708
 42
-0.085172
  0
VERTEX
  8
0
 10
363.332840
 20
53.424983
 42
-0.182279
  0
VERTEX
  8
0
 10
363.701397
 20
53.839306
 42
-0.047123
  0
VERTEX
  8
0
 10
364.542834
 20
54.184214
 42
-0.041624
  0
VERTEX
  8
0
 10
365.645201
 20
54.421064
 42
-0.032120
  0
VERTEX
  8
0
 10
366.872681
 20
54.500000
 42
-0.027558
  0
VERTEX
  8
0
 10
368.535467
 20
54.408285
 42
-0.132210
  0
VERTEX
  8
0
 10
369.411401
 20
54.065416
 42
-0.176857
  0
VERTEX
  8
0
 10
369.858746
 20
53.389585
 42
-0.058721
  0
SEQEND
  0
POLYLINE
  8
0
 66
1
 70
1
  0
VERTEX
  8
0
 10
399.000000
 20
49.940983
 42
0.000000
  0
VERTEX
  8
0
 10
399.000000
 20
46.000000
 42
0.000000
  0
VERTEX
  8
0
 10
403.500000
 20
46.000000
 42
0.000000
  0
VERTEX
  8
0
 10
408.000000
 20
46.000000
 42
0.000000
  0
VERTEX
  8
0
 10
408.000000
 20
50.000000
 42
-0.017388
  0
VERTEX
  8
0
 10
408.074821
 20
52.150836
 42
-0.098846
  0
VERTEX
  8
0
 10
408.375000
 20
53.250000
 42
-0.184152
  0
VERTEX
  8
0
 10
408.978414
 20
53.804216
 42
-0.094959
  0
VERTEX
  8
0
 10
410.000000
 20
54.000000
 42
-0.193568
  0
VERTEX
  8
0
 10
411.093207
 20
53.560306
 42
-0.155680
  0
VERTEX
  8
0
 10
411.702381
 20
52.437500
 42
-0.043488
  0
VERTEX
  8
0
 10
411.953506
 20
49.966968
 42
-0.003595
  0
VERTEX
  8
0
 10
412.000000
 20
43.500000
 42
-0.003595
  0
VERTEX
  8
0
 10
411.953506
 20
37.033032
 42
-0.043488
  0
VERTEX
  8
0
 10
411.702381
 20
34.562500
 42
-0.155680
  0
VERTEX
  8
0
 10
411.093207
 20
33.439694
 42
-0.193568
  0
VERTEX
  8
0
 10
410.000000
 20
33.000000
 42
-0.102588
  0
VERTEX
  8
0
 10
408.964475
 20
33.214724
 42
-0.188085
  0
VERTEX
  8
0
 10
408.361111
 20
33.812500
 42
-0.090841
  0
VERTEX
  8
0
 10
408.069261
 20
35.020585
 42
-0.013964
  0
VERTEX
  8
0
 10
408.000000
 20
37.500000
 42
0.000000
  0
VERTEX
  8
0
 10
408.000000
 20
42.000000
 42
0.000000
  0
VERTEX
  8
0
 10
403.500000
 20
42.000000
 42
0.000000
  0
VERTEX
  8
0
 10
399.000000
 20
42.000000
 42
0.000000
  0
VERTEX
  8
0
 10
399.000000
 20
37.430449
 42
-0.011084
  0
VERTEX
  8
0
 10
398.939907
 20
34.719925
 42
-0.111095
  0
VERTEX
  8
0
 10
398.644385
 20
33.633626
 42
-0.240288
  0
VERTEX
  8
0
 10
397.998703
 20
33.180168
 42
-0.070544
  0
VERTEX
  8
0
 10
396.750000
 20
33.180449
 42
-0.143702
  0
VERTEX
  8
0
 10
395.483335
 20
33.756054
 42
-0.156709
  0
VERTEX
  8
0
 10
394.780838
 20
34.907199
 42
-0.048436
  0
VERTEX
  8
0
 10
394.443428
 20
37.297289
 42
-0.003880
  0
VERTEX
  8
0
 10
394.215899
 20
43.670109
 42
-0.004358
  0
VERTEX
  8
0
 10
394.102020
 20
49.596707
 42
-0.037872
  0
VERTEX
  8
0
 10
394.273701
 20
52.225733
 42
-0.106698
  0
VERTEX
  8
0
 10
394.773585
 20
53.580396
 42
-0.198037
  0
VERTEX
  8
0
 10
395.715899
 20
54.244173
 42
-0.063070
  0
VERTEX
  8
0
 10
397.437539
 20
54.411163
 42
-0.226150
  0
VERTEX
  8
0
 10
398.394476
 20
53.920128
 42
-0.142239
  0
VERTEX
  8
0
 10
398.882008
 20
52.660544
 42
-0.021683
  0
SEQEND
  0
POLYLINE
  8
0
 66
1
 70
1
  0
VERTEX
  8
0
 10
427.000000
 20
52.500000
 42
-0.047374
  0
VERTEX
  8
0
 10
426.901723
 20
51.465078
 42
-0.086278
  0
VERTEX
  8
0
 10
426.602305
 20
50.673170
 42
-0.115863
  0
VERTEX
  8
0
 10
426.128953
 20
50.179420
 42
-0.144950
  0
VERTEX
  8
0
 10
425.523053
 20
50.000000
 42
0.124970
  0
VERTEX
  8
0
 10
424.841919
 20
49.827057
 42
0.044611
  0
VERTEX
  8
0
 10
424.000180
 20
49.267765
 42
0.040862
  0
VERTEX
  8
0
 10
423.146870
 20
48.461100
 42
0.037961
  0
VERTEX
  8
0
 10
422.412816
 20
47.507285
 42
0.094946
  0
VERTEX
  8
0
 10
421.415543
 20
45.086084
 42
0.107481
  0
VERTEX
  8
0
 10
421.447522
 20
42.577474
 42
0.104899
  0
VERTEX
  8
0
 10
422.525847
 20
40.262507
 42
0.086667
  0
VERTEX
  8
0
 10
424.515877
 20
38.397640
 42
-0.090960
  0
VERTEX
  8
0
 10
426.003775
 20
36.979324
 42
-0.088103
  0
VERTEX
  8
0
 10
426.911762
 20
35.109991
 42
-0.144373
  0
VERTEX
  8
0
 10
426.896425
 20
33.628234
 42
-0.329637
  0
VERTEX
  8
0
 10
426.047053
 20
33.000000
 42
-0.099791
  0
VERTEX
  8
0
 10
424.310553
 20
33.350061
 42
-0.042709
  0
VERTEX
  8
0
 10
422.204708
 20
34.455002
 42
-0.041002
  0
VERTEX
  8
0
 10
420.146718
 20
36.021239
 42
-0.050308
  0
VERTEX
  8
0
 10
418.522727
 20
37.807785
 42
-0.123027
  0
VERTEX
  8
0
 10
416.735797
 20
42.125267
 42
-0.111715
  0
VERTEX
  8
0
 10
417.097513
 20
46.944501
 42
-0.108979
  0
VERTEX
  8
0
 10
419.520731
 20
51.230986
 42
-0.112210
  0
VERTEX
  8
0
 10
423.500000
 20
54.045972
 42
-0.018298
  0
VERTEX
  8
0
 10
425.536111
 20
54.802174
 42
-0.185833
  0
VERTEX
  8
0
 10
426.421241
 20
54.759246
 42
-0.258837
  0
VERTEX
  8
0
 10
426.882872
 20
54.149857
 42
-0.035452
  0
SEQEND
  0
POLYLINE
  8
0
 66
1
 70
1
  0
VERTEX
  8
0
 10
433.774926
 20
52.995802
 42
-0.105320
  0
VERTEX
  8
0
 10
437.361370
 20
49.604846
 42
-0.124134
  0
VERTEX
  8
0
 10
438.988103
 20
45.237239
 42
-0.122851
  0
VERTEX
  8
0
 10
438.356502
 20
40.585275
 42
-0.101844
  0
VERTEX
  8
0
 10
435.600000
 20
36.400000
 42
-0.030357
  0
VERTEX
  8
0
 10
432.968217
 20
34.069757
 42
-0.116406
  0
VERTEX
  8
0
 10
430.994982
 20
33.159436
 42
-0.236398
  0
VERTEX
  8
0
 10
429.607422
 20
33.534211
 42
-0.147798
  0
VERTEX
  8
0
 10
428.710251
 20
35.000000
 42
-0.040966
  0
VERTEX
  8
0
 10
428.575635
 20
35.766322
 42
-0.070464
  0
VERTEX
  8
0
 10
428.607123
 20
36.412500
 42
-0.106581
  0
VERTEX
  8
0
 10
428.789795
 20
36.842465
 42
-0.243840
  0
VERTEX
  8
0
 10
429.093620
 20
37.000000
 42
0.182891
  0
VERTEX
  8
0
 10
430.630701
 20
37.581693
 42
0.058536
  0
VERTEX
  8
0
 10
432.287834
 20
39.432323
 42
0.056751
  0
VERTEX
  8
0
 10
433.571883
 20
41.782905
 42
0.096951
  0
VERTEX
  8
0
 10
434.000000
 20
43.970063
 42
0.057065
  0
VERTEX
  8
0
 10
433.829998
 20
45.454762
 42
0.071656
  0
VERTEX
  8
0
 10
433.328303
 20
46.744111
 42
0.065753
  0
VERTEX
  8
0
 10
432.442586
 20
47.920250
 42
0.039365
  0
VERTEX
  8
0
 10
431.119663
 20
49.069651
 42
-0.033073
  0
VERTEX
  8
0
 10
429.866899
 20
50.130765
 42
-0.067058
  0
VERTEX
  8
0
 10
429.068292
 20
51.142940
 42
-0.088273
  0
VERTEX
  8
0
 10
428.700334
 20
52.126485
 42
-0.109859
  0
VERTEX
  8
0
 10
428.736294
 20
53.099588
 42
-0.060568
  0
VERTEX
  8
0
 10
429.272865
 20
54.455704
 42
-0.280432
  0
VERTEX
  8
0
 10
429.971176
 20
54.861322
 42
-0.122481
  0
VERTEX
  8
0
 10
431.098201
 20
54.556261
 42
-0.009858
  0
SEQEND
  0
POLYLINE
  8
0
 66
1
 70
1
  0
VERTEX
  8
0
 10
485.569595
 20
52.246029
 42
-0.159193
  0
VERTEX
  8
0
 10
485.138907
 20
51.375046
 42
-0.116172
  0
VERTEX
  8
0
 10
484.220435
 20
50.793401
 42
-0.057608
  0
VERTEX
  8
0
 10
482.570435
 20
50.427665
 42
-0.012524
  0
VERTEX
  8
0
 10
479.658662
 20
50.200096
 42
0.010454
  0
VERTEX
  8
0
 10
476.521074
 20
49.967943
 42
0.071042
  0
VERTEX
  8
0
 10
475.013881
 20
49.604522
 42
0.167400
  0
VERTEX
  8
0
 10
474.276256
 20
48.970284
 42
0.133000
  0
VERTEX
  8
0
 10
474.000000
 20
47.950096
 42
0.117158
  0
VERTEX
  8
0
 10
474.240081
 20
46.939560
 42
0.185178
  0
VERTEX
  8
0
 10
474.890994
 20
46.347505
 42
0.081414
  0
VERTEX
  8
0
 10
476.219053
 20
46.065269
 42
0.011733
  0
VERTEX
  8
0
 10
479.000000
 20
46.000000
 42
-0.011557
  0
VERTEX
  8
0
 10
481.809325
 20
45.935058
 42
-0.083766
  0
VERTEX
  8
0
 10
483.125000
 20
45.650000
 42
-0.189791
  0
VERTEX
  8
0
 10
483.766065
 20
45.046013
 42
-0.110458
  0
VERTEX
  8
0
 10
484.000000
 20
44.000000
 42
-0.110458
  0
VERTEX
  8
0
 10
483.766065
 20
42.953987
 42
-0.189791
  0
VERTEX
  8
0
 10
483.125000
 20
42.350000
 42
-0.083766
  0
VERTEX
  8
0
 10
481.809325
 20
42.064942
 42
-0.011557
  0
VERTEX
  8
0
 10
479.000000
 20
42.000000
 42
0.010324
  0
VERTEX
  8
0
 10
475.960310
 20
41.937230
 42
0.105983
  0
VERTEX
  8
0
 10
474.750000
 20
41.625000
 42
0.217022
  0
VERTEX
  8
0
 10
474.180083
 20
40.919849
 42
0.063163
  0
VERTEX
  8
0
 10
474.000000
 20
39.500000
 42
0.073582
  0
VERTEX
  8
0
 10
474.212594
 20
38.063213
 42
0.225326
  0
VERTEX
  8
0
 10
474.857332
 20
37.352909
 42
0.090687
  0
VERTEX
  8
0
 10
476.258522
 20
37.054817
 42
0.007184
  0
VERTEX
  8
0
 10
480.073324
 20
37.000000
 42
-0.008033
  0
VERTEX
  8
0
 10
483.486926
 20
36.945153
 42
-0.066055
  0
VERTEX
  8
0
 10
485.017902
 20
36.691719
 42
-0.199556
  0
VERTEX
  8
0
 10
485.677658
 20
36.147305
 42
-0.170534
  0
VERTEX
  8
0
 10
485.812480
 20
35.250000
 42
-0.182728
  0
VERTEX
  8
0
 10
485.257662
 20
34.345375
 42
-0.103223
  0
VERTEX
  8
0
 10
484.085616
 20
33.774202
 42
-0.044930
  0
VERTEX
  8
0
 10
481.921499
 20
33.429523
 42
-0.007606
  0
VERTEX
  8
0
 10
477.739156
 20
33.207936
 42
0.000000
  0
VERTEX
  8
0
 10
470.000000
 20
32.915871
 42
0.000000
  0
VERTEX
  8
0
 10
470.000000
 20
43.414126
 42
0.000000
  0
VERTEX
  8
0
 10
470.000000
 20
53.912381
 42
0.000000
  0
VERTEX
  8
0
 10
477.250000
 20
54.206190
 42
-0.003630
  0
VERTEX
  8
0
 10
482.909727
 20
54.394405
 42
-0.064431
  0
VERTEX
  8
0
 10
484.723577
 20
54.207459
 42
-0.257806
  0
VERTEX
  8
0
 10
485.447359
 20
53.551857
 42
-0.118970
  0
SEQEND
  0
POLYLINE
  8
0
 66
1
 70
1
  0
VERTEX
  8
0
 10
117.000000
 20
46.000000
 42
0.000000
  0
VERTEX
  8
0
 10
117.000000
 20
38.000000
 42
0.000000
  0
VERTEX
  8
0
 10
120.750000
 20
37.881517
 42
0.004846
  0
VERTEX
  8
0
 10
122.277352
 20
37.848075
 42
0.005242
  0
VERTEX
  8
0
 10
123.765625
 20
37.845520
 42
0.004956
  0
VERTEX
  8
0
 10
125.041324
 20
37.869351
 42
0.025141
  0
VERTEX
  8
0
 10
125.750000
 20
37.925354
 42
-0.197844
  0
VERTEX
  8
0
 10
126.238292
 20
37.794668
 42
-0.109255
  0
VERTEX
  8
0
 10
126.643106
 20
37.315025
 42
-0.076426
  0
VERTEX
  8
0
 10
126.911596
 20
36.533193
 42
-0.044589
  0
VERTEX
  8
0
 10
127.000000
 20
35.543837
 42
-0.084449
  0
VERTEX
  8
0
 10
126.748020
 20
34.062579
 42
-0.230664
  0
VERTEX
  8
0
 10
126.012924
 20
33.334795
 42
-0.076979
  0
VERTEX
  8
0
 10
124.375088
 20
33.048002
 42
-0.004923
  0
VERTEX
  8
0
 10
119.500000
 20
33.000000
 42
0.000000
  0
VERTEX
  8
0
 10
112.000000
 20
33.000000
 42
0.000000
  0
VERTEX
  8
0
 10
112.000000
 20
43.500000
 42
0.000000
  0
VERTEX
  8
0
 10
112.000000
 20
54.000000
 42
0.000000
  0
VERTEX
  8
0
 10
114.500000
 20
54.000000
 42
-0.093656
  0
VERTEX
  8
0
 10
115.948613
 20
53.726255
 42
-0.227396
  0
VERTEX
  8
0
 10
116.671875
 20
52.950000
 42
-0.071364
  0
VERTEX
  8
0
 10
116.953338
 20
51.210294
 42
-0.004478
  0
SEQEND
  0
POLYLINE
  8
0
 66
1
 70
1
  0
VERTEX
  8
0
 10
135.209558
 20
45.792934
 42
0.000000
  0
VERTEX
  8
0
 10
135.500000
 20
37.585868
 42
0.000000
  0
VERTEX
  8
0
 10
140.750000
 20
37.867073
 42
-0.008372
  0
VERTEX
  8
0
 10
144.062565
 20
37.988924
 42
-0.108372
  0
VERTEX
  8
0
 10
145.267431
 20
37.749852
 42
-0.237443
  0
VERTEX
  8
0
 10
145.829562
 20
37.072583
 42
-0.056689
  0
VERTEX
  8
0
 10
146.000000
 20
35.574139
 42
-0.081867
  0
VERTEX
  8
0
 10
145.751882
 20
34.068925
 42
-0.232413
  0
VERTEX
  8
0
 10
145.021601
 20
33.335805
 42
-0.077928
  0
VERTEX
  8
0
 10
143.393434
 20
33.047799
 42
-0.004884
  0
VERTEX
  8
0
 10
138.500000
 20
33.000000
 42
0.000000
  0
VERTEX
  8
0
 10
131.000000
 20
33.000000
 42
0.000000
  0
VERTEX
  8
0
 10
131.000000
 20
43.500000
 42
-0.003668
  0
VERTEX
  8
0
 10
131.047035
 20
49.912126
 42
-0.042483
  0
VERTEX
  8
0
 10
131.296656
 20
52.410412
 42
-0.149433
  0
VERTEX
  8
0
 10
131.893590
 20
53.553737
 42
-0.200876
  0
VERTEX
  8
0
 10
132.959558
 20
54.000000
 42
-0.170719
  0
VERTEX
  8
0
 10
134.015679
 20
53.628575
 42
-0.158011
  0
VERTEX
  8
0
 10
134.647790
 20
52.665889
 42
-0.052474
  0
VERTEX
  8
0
 10
134.984587
 20
50.614499
 42
-0.005626
  0
SEQEND
  0
POLYLINE
  8
0
 66
1
 70
1
  0
VERTEX
  8
0
 10
178.000000
 20
50.000000
 42
0.000000
  0
VERTEX
  8
0
 10
178.000000
 20
46.000000
 42
0.000000
  0
VERTEX
  8
0
 10
182.500000
 20
46.000000
 42
0.000000
  0
VERTEX
  8
0
 10
187.000000
 20
46.000000
 42
0.000000
  0
VERTEX
  8
0
 10
187.000000
 20
50.000000
 42
-0.016108
  0
VERTEX
  8
0
 10
187.075062
 20
52.329376
 42
-0.125467
  0
VERTEX
  8
0
 10
187.408024
 20
53.354490
 42
-0.201560
  0
VERTEX
  8
0
 10
188.118481
 20
53.850324
 42
-0.052932
  0
VERTEX
  8
0
 10
189.528380
 20
54.000000
 42
0.000000
  0
VERTEX
  8
0
 10
192.056761
 20
54.000000
 42
0.000000
  0
VERTEX
  8
0
 10
191.909482
 20
44.771943
 42
-0.005437
  0
VERTEX
  8
0
 10
191.722172
 20
37.793071
 42
-0.053335
  0
VERTEX
  8
0
 10
191.299310
 20
34.882525
 42
-0.165064
  0
VERTEX
  8
0
 10
190.414275
 20
33.525831
 42
-0.167952
  0
VERTEX
  8
0
 10
188.893011
 20
33.000000
 42
-0.116622
  0
VERTEX
  8
0
 10
187.932859
 20
33.227037
 42
-0.178926
  0
VERTEX
  8
0
 10
187.355167
 20
33.844291
 42
-0.085373
  0
VERTEX
  8
0
 10
187.069773
 20
35.075024
 42
-0.014383
  0
VERTEX
  8
0
 10
187.000000
 20
37.500000
 42
0.000000
  0
VERTEX
  8
0
 10
187.000000
 20
42.000000
 42
0.000000
  0
VERTEX
  8
0
 10
182.500000
 20
42.000000
 42
0.000000
  0
VERTEX
  8
0
 10
178.000000
 20
42.000000
 42
0.000000
  0
VERTEX
  8
0
 10
178.000000
 20
37.500000
 42
-0.013964
  0
VERTEX
  8
0
 10
177.930739
 20
35.020585
 42
-0.090841
  0
VERTEX
  8
0
 10
177.638889
 20
33.812500
 42
-0.188085
  0
VERTEX
  8
0
 10
177.035525
 20
33.214724
 42
-0.102588
  0
VERTEX
  8
0
 10
176.000000
 20
33.000000
 42
-0.059941
  0
VERTEX
  8
0
 10
174.789839
 20
33.145600
 42
-0.192315
  0
VERTEX
  8
0
 10
174.141031
 20
33.608270
 42
-0.123975
  0
VERTEX
  8
0
 10
173.826302
 20
34.543420
 42
-0.019491
  0
VERTEX
  8
0
 10
173.750000
 20
36.500000
 42
-0.003069
  0
VERTEX
  8
0
 10
173.812831
 20
46.735065
 42
-0.028906
  0
VERTEX
  8
0
 10
174.120491
 20
51.118402
 42
-0.086756
  0
VERTEX
  8
0
 10
174.784385
 20
53.257400
 42
-0.281277
  0
VERTEX
  8
0
 10
176.000000
 20
54.000000
 42
-0.094959
  0
VERTEX
  8
0
 10
177.021586
 20
53.804216
 42
-0.184152
  0
VERTEX
  8
0
 10
177.625000
 20
53.250000
 42
-0.098846
  0
VERTEX
  8
0
 10
177.925179
 20
52.150836
 42
-0.017388
  0
SEQEND
  0
POLYLINE
  8
0
 66
1
 70
1
  0
VERTEX
  8
0
 10
232.000000
 20
46.000000
 42
0.000000
  0
VERTEX
  8
0
 10
232.000000
 20
38.000000
 42
0.000000
  0
VERTEX
  8
0
 10
235.750000
 20
37.841556
 42
0.005170
  0
VERTEX
  8
0
 10
237.314058
 20
37.791668
 42
0.004850
  0
VERTEX
  8
0
 10
238.912500
 20
37.772735
 42
0.004832
  0
VERTEX
  8
0
 10
240.330704
 20
37.783399
 42
0.016608
  0
VERTEX
  8
0
 10
241.250000
 20
37.829767
 42
-0.096431
  0
VERTEX
  8
0
 10
242.042648
 20
37.743296
 42
-0.158317
  0
VERTEX
  8
0
 10
242.588906
 20
37.357462
 42
-0.118543
  0
VERTEX
  8
0
 10
242.903130
 20
36.626165
 42
-0.042486
  0
VERTEX
  8
0
 10
243.000000
 20
35.488210
 42
-0.089438
  0
VERTEX
  8
0
 10
242.740772
 20
34.050605
 42
-0.227207
  0
VERTEX
  8
0
 10
241.996446
 20
33.332940
 42
-0.075227
  0
VERTEX
  8
0
 10
240.340408
 20
33.048390
 42
-0.004998
  0
VERTEX
  8
0
 10
235.500000
 20
33.000000
 42
0.000000
  0
VERTEX
  8
0
 10
228.000000
 20
33.000000
 42
0.000000
  0
VERTEX
  8
0
 10
228.000000
 20
43.500000
 42
-0.003595
  0
VERTEX
  8
0
 10
228.046494
 20
49.966968
 42
-0.043488
  0
VERTEX
  8
0
 10
228.297619
 20
52.437500
 42
-0.155680
  0
VERTEX
  8
0
 10
228.906793
 20
53.560306
 42
-0.193568
  0
VERTEX
  8
0
 10
230.000000
 20
54.000000
 42
-0.157888
  0
VERTEX
  8
0
 10
231.078201
 20
53.650825
 42
-0.176663
  0
VERTEX
  8
0
 10
231.687500
 20
52.750000
 42
-0.055952
  0
VERTEX
  8
0
 10
231.948615
 20
50.801161
 42
-0.005351
  0
SEQEND
  0
POLYLINE
  8
0
 66
1
 70
1
  0
VERTEX
  8
0
 10
345.000000
 20
46.700000
 42
0.019006
  0
VERTEX
  8
0
 10
345.184756
 20
41.841232
 42
0.081778
  0
VERTEX
  8
0
 10
345.868045
 20
39.039455
 42
0.156484
  0
VERTEX
  8
0
 10
347.151130
 20
37.555259
 42
0.137735
  0
VERTEX
  8
0
 10
349.128571
 20
37.000000
 42
0.137891
  0
VERTEX
  8
0
 10
351.353487
 20
37.625486
 42
0.144027
  0
VERTEX
  8
0
 10
352.882141
 20
39.311115
 42
0.086141
  0
VERTEX
  8
0
 10
353.746746
 20
42.333172
 42
0.026705
  0
VERTEX
  8
0
 10
354.000000
 20
47.071429
 42
-0.006691
  0
VERTEX
  8
0
 10
354.054716
 20
51.159778
 42
-0.063650
  0
VERTEX
  8
0
 10
354.322165
 20
52.883929
 42
-0.184133
  0
VERTEX
  8
0
 10
354.930003
 20
53.691505
 42
-0.141280
  0
VERTEX
  8
0
 10
356.000000
 20
54.000000
 42
-0.158578
  0
VERTEX
  8
0
 10
357.078512
 20
53.649120
 42
-0.176312
  0
VERTEX
  8
0
 10
357.687853
 20
52.744318
 42
-0.055664
  0
VERTEX
  8
0
 10
357.948734
 20
50.785967
 42
-0.005305
  0
VERTEX
  8
0
 10
358.000000
 20
45.954545
 42
-0.008419
  0
VERTEX
  8
0
 10
357.921113
 20
41.270050
 42
-0.049031
  0
VERTEX
  8
0
 10
357.597458
 20
38.825993
 42
-0.084211
  0
VERTEX
  8
0
 10
356.881794
 20
37.122219
 42
-0.054982
  0
VERTEX
  8
0
 10
355.545455
 20
35.454545
 42
-0.103041
  0
VERTEX
  8
0
 10
352.626889
 20
33.542224
 42
-0.097499
  0
VERTEX
  8
0
 10
349.128106
 20
32.904468
 42
-0.096187
  0
VERTEX
  8
0
 10
345.609210
 20
33.639305
 42
-0.097241
  0
VERTEX
  8
0
 10
342.636364
 20
35.636364
 42
-0.047565
  0
VERTEX
  8
0
 10
341.176921
 20
37.403440
 42
-0.087544
  0
VERTEX
  8
0
 10
340.417630
 20
39.100787
 42
-0.052850
  0
VERTEX
  8
0
 10
340.080956
 20
41.483070
 42
-0.008698
  0
VERTEX
  8
0
 10
340.000000
 20
46.136364
 42
-0.004606
  0
VERTEX
  8
0
 10
340.047086
 20
51.247801
 42
-0.072474
  0
VERTEX
  8
0
 10
340.329480
 20
52.963636
 42
-0.227612
  0
VERTEX
  8
0
 10
341.051818
 20
53.730647
 42
-0.092206
  0
VERTEX
  8
0
 10
342.500000
 20
54.000000
 42
-0.086245
  0
VERTEX
  8
0
 10
343.945919
 20
53.748725
 42
-0.228013
  0
VERTEX
  8
0
 10
344.664384
 20
53.020000
 42
-0.077428
  0
VERTEX
  8
0
 10
344.950961
 20
51.402940
 42
-0.005213
  0
SEQEND
  0
POLYLINE
  8
0
 66
1
 70
1
  0
VERTEX
  8
0
 10
450.879844
 20
50.000000
 42
0.012249
  0
VERTEX
  8
0
 10
451.791030
 20
48.467883
 42
0.018195
  0
VERTEX
  8
0
 10
452.669100
 20
47.177262
 42
0.013546
  0
VERTEX
  8
0
 10
453.444805
 20
46.179612
 42
0.227308
  0
VERTEX
  8
0
 10
453.813985
 20
46.007702
 42
0.220734
  0
VERTEX
  8
0
 10
454.184156
 20
46.184568
 42
0.013139
  0
VERTEX
  8
0
 10
454.968192
 20
47.185879
 42
0.017770
  0
VERTEX
  8
0
 10
455.856518
 20
48.477449
 42
0.012019
  0
VERTEX
  8
0
 10
456.779860
 20
50.007702
 42
-0.025052
  0
VERTEX
  8
0
 10
457.973058
 20
51.873501
 42
-0.060205
  0
VERTEX
  8
0
 10
459.076634
 20
53.083759
 42
-0.082380
  0
VERTEX
  8
0
 10
460.194079
 20
53.763988
 42
-0.095899
  0
VERTEX
  8
0
 10
461.413282
 20
54.000000
 42
-0.186425
  0
VERTEX
  8
0
 10
463.159182
 20
53.325603
 42
-0.156195
  0
VERTEX
  8
0
 10
464.158265
 20
51.595434
 42
-0.059055
  0
VERTEX
  8
0
 10
464.492757
 20
48.115009
 42
-0.008916
  0
VERTEX
  8
0
 10
464.212348
 20
41.107210
 42
-0.006229
  0
VERTEX
  8
0
 10
463.887554
 20
36.493606
 42
-0.049628
  0
VERTEX
  8
0
 10
463.501639
 20
34.395667
 42
-0.139330
  0
VERTEX
  8
0
 10
462.871092
 20
33.385372
 42
-0.186092
  0
VERTEX
  8
0
 10
461.871515
 20
33.000000
 42
-0.168247
  0
VERTEX
  8
0
 10
460.888021
 20
33.340581
 42
-0.163921
  0
VERTEX
  8
0
 10
460.312961
 20
34.220038
 42
-0.056586
  0
VERTEX
  8
0
 10
460.050249
 20
36.069620
 42
-0.006605
  0
VERTEX
  8
0
 10
459.988237
 20
40.250000
 42
0.000000
  0
VERTEX
  8
0
 10
459.976473
 20
47.500000
 42
0.000000
  0
VERTEX
  8
0
 10
456.841347
 20
42.706110
 42
0.000000
  0
VERTEX
  8
0
 10
453.706221
 20
37.912221
 42
0.000000
  0
VERTEX
  8
0
 10
450.905666
 20
42.142493
 42
0.000000
  0
VERTEX
  8
0
 10
448.105111
 20
46.372765
 42
0.000000
  0
VERTEX
  8
0
 10
447.802555
 20
39.936383
 42
-0.008232
  0
VERTEX
  8
0
 10
447.568467
 20
36.251157
 42
-0.066009
  0
VERTEX
  8
0
 10
447.211914
 20
34.592367
 42
-0.171589
  0
VERTEX
  8
0
 10
446.566155
 20
33.799379
 42
-0.137738
  0
VERTEX
  8
0
 10
445.500000
 20
33.500000
 42
-0.192058
  0
VERTEX
  8
0
 10
444.401930
 20
33.937940
 42
-0.149210
  0
VERTEX
  8
0
 10
443.762167
 20
35.066873
 42
-0.043974
  0
VERTEX
  8
0
 10
443.437192
 20
37.524921
 42
-0.003940
  0
VERTEX
  8
0
 10
443.215017
 20
43.750000
 42
0.000000
  0
VERTEX
  8
0
 10
442.930034
 20
54.000000
 42
0.000000
  0
VERTEX
  8
0
 10
445.780876
 20
54.000000
 42
-0.065392
  0
VERTEX
  8
0
 10
447.318140
 20
53.798086
 42
-0.101346
  0
VERTEX
  8
0
 10
448.511488
 20
53.202081
 42
-0.075292
  0
VERTEX
  8
0
 10
449.604012
 20
52.041718
 42
-0.023245
  0
SEQEND
  0
ENDSEC
  0
EOF
