  0
SECTION
  2
HEADER
  9
$ACADVER
  1
AC1006
  9
$EXTMIN
 10
0.000000
 20
0.000000
 30
0.000000
  9
$EXTMAX
 10
794.000000
 20
794.000000
 30
0.000000
  0
ENDSEC
  0
SECTION
  2
ENTITIES
  0
POLYLINE
  8
0
 66
1
 70
1
  0
VERTEX
  8
0
 10
557.384328
 20
534.593990
 42
-0.013992
  0
VERTEX
  8
0
 10
555.404221
 20
532.855178
 42
-0.018262
  0
VERTEX
  8
0
 10
553.494146
 20
531.384651
 42
-0.016028
  0
VERTEX
  8
0
 10
551.844387
 20
530.285941
 42
-0.136975
  0
VERTEX
  8
0
 10
551.000000
 20
530.040187
 42
-0.047931
  0
VERTEX
  8
0
 10
550.113400
 20
530.115571
 42
-0.006874
  0
VERTEX
  8
0
 10
548.325000
 20
530.467604
 42
-0.007755
  0
VERTEX
  8
0
 10
546.215739
 20
530.947286
 42
-0.006553
  0
VERTEX
  8
0
 10
544.000000
 20
531.518322
 42
0.034012
  0
VERTEX
  8
0
 10
530.029835
 20
534.311514
 42
0.020060
  0
VERTEX
  8
0
 10
513.071986
 20
535.828628
 42
0.020088
  0
VERTEX
  8
0
 10
496.142703
 20
535.980023
 42
0.035760
  0
VERTEX
  8
0
 10
482.285949
 20
534.551684
 42
0.039446
  0
VERTEX
  8
0
 10
461.247193
 20
529.111067
 42
0.054143
  0
VERTEX
  8
0
 10
443.577105
 20
520.790437
 42
0.059950
  0
VERTEX
  8
0
 10
429.516561
 20
509.696044
 42
0.068266
  0
VERTEX
  8
0
 10
419.188410
 20
496.016398
 42
0.000000
  0
VERTEX
  8
0
 10
415.540213
 20
489.500000
 42
0.000000
  0
VERTEX
  8
0
 10
414.827736
 20
493.500000
 42
-0.032690
  0
VERTEX
  8
0
 10
414.545118
 20
496.037647
 42
-0.003285
  0
VERTEX
  8
0
 10
414.307621
 20
502.126562
 42
-0.004113
  0
VERTEX
  8
0
 10
414.131790
 20
509.394410
 42
-0.003261
  0
VERTEX
  8
0
 10
414.057630
 20
517.250000
 42
0.003409
  0
VERTEX
  8
0
 10
413.906637
 20
532.757221
 42
0.121113
  0
VERTEX
  8
0
 10
412.994952
 20
536.217635
 42
0.469080
  0
VERTEX
  8
0
 10
411.058299
 20
536.599987
 42
0.027757
  0
VERTEX
  8
0
 10
406.016306
 20
532.016565
 42
0.014395
  0
VERTEX
  8
0
 10
403.292422
 20
529.085143
 42
0.057339
  0
VERTEX
  8
0
 10
401.897990
 20
527.070237
 42
0.073249
  0
VERTEX
  8
0
 10
401.172561
 20
525.049014
 42
0.033601
  0
VERTEX
  8
0
 10
400.805468
 20
522.266565
 42
0.000000
  0
VERTEX
  8
0
 10
400.500000
 20
517.500000
 42
0.000000
  0
VERTEX
  8
0
 10
394.500000
 20
517.500000
 42
0.000000
  0
VERTEX
  8
0
 10
388.500000
 20
517.500000
 42
0.000000
  0
VERTEX
  8
0
 10
388.412372
 20
521.000000
 42
0.018771
  0
VERTEX
  8
0
 10
388.189446
 20
524.558269
 42
0.090360
  0
VERTEX
  8
0
 10
387.630310
 20
526.500272
 42
0.070074
  0
VERTEX
  8
0
 10
386.367772
 20
528.343799
 42
0.008618
  0
VERTEX
  8
0
 10
383.004942
 20
531.898702
 42
0.008887
  0
VERTEX
  8
0
 10
379.454137
 20
535.398376
 42
0.079245
  0
VERTEX
  8
0
 10
377.652807
 20
536.636591
 42
0.266838
  0
VERTEX
  8
0
 10
376.499690
 20
536.547077
 42
0.152514
  0
VERTEX
  8
0
 10
375.606989
 20
535.418213
 42
0.087154
  0
VERTEX
  8
0
 10
375.360640
 20
534.154593
 42
0.000652
  0
VERTEX
  8
0
 10
375.176084
 20
523.529788
 42
0.002419
  0
VERTEX
  8
0
 10
375.039183
 20
511.337448
 42
0.001546
  0
VERTEX
  8
0
 10
374.992446
 20
497.168213
 42
-0.003069
  0
VERTEX
  8
0
 10
374.840156
 20
473.166757
 42
-0.014205
  0
VERTEX
  8
0
 10
374.272837
 20
459.301039
 42
-0.023993
  0
VERTEX
  8
0
 10
373.218420
 20
450.351601
 42
-0.075403
  0
VERTEX
  8
0
 10
371.344718
 20
444.616552
 42
-0.059950
  0
VERTEX
  8
0
 10
368.060071
 20
439.668752
 42
-0.057329
  0
VERTEX
  8
0
 10
363.650550
 20
435.557153
 42
-0.060487
  0
VERTEX
  8
0
 10
358.689704
 20
432.749008
 42
-0.087303
  0
VERTEX
  8
0
 10
353.781139
 20
431.650835
 42
-0.049688
  0
VERTEX
  8
0
 10
351.608357
 20
431.766876
 42
-0.321691
  0
VERTEX
  8
0
 10
350.868833
 20
432.491355
 42
-0.087003
  0
VERTEX
  8
0
 10
350.869449
 20
434.169184
 42
-0.002589
  0
VERTEX
  8
0
 10
352.126163
 20
441.110304
 42
0.035423
  0
VERTEX
  8
0
 10
352.747043
 20
446.558269
 42
0.099855
  0
VERTEX
  8
0
 10
352.152911
 20
450.326304
 42
0.080867
  0
VERTEX
  8
0
 10
350.056627
 20
454.014668
 42
0.018092
  0
VERTEX
  8
0
 10
345.299824
 20
459.500000
 42
-0.019816
  0
VERTEX
  8
0
 10
340.615779
 20
464.939181
 42
-0.019026
  0
VERTEX
  8
0
 10
336.309887
 20
470.804464
 42
-0.019851
  0
VERTEX
  8
0
 10
332.861718
 20
476.359472
 42
-0.049303
  0
VERTEX
  8
0
 10
330.924100
 20
480.729981
 42
-0.068064
  0
VERTEX
  8
0
 10
330.313732
 20
484.030661
 42
-0.021096
  0
VERTEX
  8
0
 10
330.289686
 20
489.091097
 42
-0.021732
  0
VERTEX
  8
0
 10
330.720655
 20
494.407226
 42
-0.037623
  0
VERTEX
  8
0
 10
331.598986
 20
498.750000
 42
0.157046
  0
VERTEX
  8
0
 10
331.534181
 20
500.511284
 42
0.429846
  0
VERTEX
  8
0
 10
330.514246
 20
500.955228
 42
0.118907
  0
VERTEX
  8
0
 10
328.542832
 20
499.493223
 42
0.041498
  0
VERTEX
  8
0
 10
326.496515
 20
496.584267
 42
0.025565
  0
VERTEX
  8
0
 10
324.337666
 20
492.427075
 42
0.039758
  0
VERTEX
  8
0
 10
322.959581
 20
488.632715
 42
0.039203
  0
VERTEX
  8
0
 10
322.187393
 20
484.629230
 42
0.024007
  0
VERTEX
  8
0
 10
321.878907
 20
479.828337
 42
0.056721
  0
VERTEX
  8
0
 10
322.613141
 20
472.294943
 42
0.061471
  0
VERTEX
  8
0
 10
325.022942
 20
465.333754
 42
0.049855
  0
VERTEX
  8
0
 10
329.531579
 20
458.072872
 42
0.022632
  0
VERTEX
  8
0
 10
336.750000
 20
449.512686
 42
-0.008949
  0
VERTEX
  8
0
 10
339.144437
 20
446.825885
 42
-0.012776
  0
VERTEX
  8
0
 10
341.164062
 20
444.351128
 42
-0.008715
  0
VERTEX
  8
0
 10
342.743806
 20
442.235976
 42
-0.157295
  0
VERTEX
  8
0
 10
343.000000
 20
441.441747
 42
-0.153514
  0
VERTEX
  8
0
 10
342.796333
 20
440.794030
 42
-0.032124
  0
VERTEX
  8
0
 10
342.045313
 20
439.852909
 42
-0.030897
  0
VERTEX
  8
0
 10
340.994205
 20
438.831084
 42
-0.024961
  0
VERTEX
  8
0
 10
339.750000
 20
437.866274
 42
0.007259
  0
VERTEX
  8
0
 10
338.466616
 20
436.941907
 42
0.008950
  0
VERTEX
  8
0
 10
337.298490
 20
436.041648
 42
0.007613
  0
VERTEX
  8
0
 10
336.345822
 20
435.255803
 42
0.062993
  0
VERTEX
  8
0
 10
335.968265
 20
434.842322
 42
-0.171341
  0
VERTEX
  8
0
 10
334.759612
 20
433.984528
 42
-0.006719
  0
VERTEX
  8
0
 10
329.425481
 20
432.540426
 42
-0.011790
  0
VERTEX
  8
0
 10
324.180700
 20
431.326905
 42
-0.052505
  0
VERTEX
  8
0
 10
321.039901
 20
431.015313
 42
-0.052778
  0
VERTEX
  8
0
 10
318.066403
 20
431.348200
 42
-0.214954
  0
VERTEX
  8
0
 10
316.642633
 20
432.409170
 42
-0.153293
  0
VERTEX
  8
0
 10
316.221691
 20
434.457305
 42
-0.024174
  0
VERTEX
  8
0
 10
316.843071
 20
438.572786
 42
0.022646
  0
VERTEX
  8
0
 10
317.926898
 20
445.605518
 42
0.108645
  0
VERTEX
  8
0
 10
317.489097
 20
449.612948
 42
0.087056
  0
VERTEX
  8
0
 10
315.376882
 20
453.489179
 42
0.011697
  0
VERTEX
  8
0
 10
309.400346
 20
460.642702
 42
-0.009292
  0
VERTEX
  8
0
 10
305.925693
 20
464.761222
 42
-0.009213
  0
VERTEX
  8
0
 10
302.596351
 20
469.017580
 42
-0.009107
  0
VERTEX
  8
0
 10
299.822147
 20
472.845295
 42
-0.034994
  0
VERTEX
  8
0
 10
298.313922
 20
475.367208
 42
-0.046988
  0
VERTEX
  8
0
 10
296.428256
 20
480.156059
 42
-0.042141
  0
VERTEX
  8
0
 10
295.383507
 20
485.391149
 42
-0.041908
  0
VERTEX
  8
0
 10
295.227941
 20
490.757594
 42
-0.045196
  0
VERTEX
  8
0
 10
295.984868
 20
495.936922
 42
0.014957
  0
VERTEX
  8
0
 10
296.408415
 20
497.968518
 42
0.021375
  0
VERTEX
  8
0
 10
296.652347
 20
499.793420
 42
0.018108
  0
VERTEX
  8
0
 10
296.732269
 20
501.274098
 42
0.206152
  0
VERTEX
  8
0
 10
296.515143
 20
501.803977
 42
0.424771
  0
VERTEX
  8
0
 10
295.178735
 20
501.766466
 42
0.032496
  0
VERTEX
  8
0
 10
292.680715
 20
498.641846
 42
0.034676
  0
VERTEX
  8
0
 10
290.197079
 20
494.499647
 42
0.041538
  0
VERTEX
  8
0
 10
288.478136
 20
490.291180
 42
0.024170
  0
VERTEX
  8
0
 10
287.678087
 20
487.239665
 42
0.029388
  0
VERTEX
  8
0
 10
287.238500
 20
484.317620
 42
0.026583
  0
VERTEX
  8
0
 10
287.119430
 20
481.135857
 42
0.014936
  0
VERTEX
  8
0
 10
287.295841
 20
477.271329
 42
0.042164
  0
VERTEX
  8
0
 10
288.399077
 20
470.424770
 42
0.051897
  0
VERTEX
  8
0
 10
290.602873
 20
464.344870
 42
0.047524
  0
VERTEX
  8
0
 10
294.189468
 20
458.447698
 42
0.028076
  0
VERTEX
  8
0
 10
299.486741
 20
452.126973
 42
-0.007620
  0
VERTEX
  8
0
 10
305.042751
 20
446.022914
 42
-0.079608
  0
VERTEX
  8
0
 10
306.848252
 20
443.170486
 42
-0.210135
  0
VERTEX
  8
0
 10
306.829552
 20
441.048897
 42
-0.101235
  0
VERTEX
  8
0
 10
305.207068
 20
438.799321
 42
-0.018214
  0
VERTEX
  8
0
 10
302.231112
 20
436.253013
 42
-0.033858
  0
VERTEX
  8
0
 10
299.617340
 20
434.450844
 42
-0.042614
  0
VERTEX
  8
0
 10
297.347079
 20
433.352027
 42
-0.091654
  0
VERTEX
  8
0
 10
295.442792
 20
433.000000
 42
-0.202717
  0
VERTEX
  8
0
 10
292.184396
 20
434.377681
 42
-0.028028
  0
VERTEX
  8
0
 10
287.260000
 20
440.052383
 42
-0.029403
  0
VERTEX
  8
0
 10
282.084754
 20
447.618732
 42
-0.024440
  0
VERTEX
  8
0
 10
277.476029
 20
456.212898
 42
-0.029475
  0
VERTEX
  8
0
 10
274.667661
 20
463.154647
 42
-0.054916
  0
VERTEX
  8
0
 10
273.369979
 20
469.074938
 42
-0.061862
  0
VERTEX
  8
0
 10
273.467435
 20
474.640645
 42
-0.049611
  0
VERTEX
  8
0
 10
274.894164
 20
480.465341
 42
0.004289
  0
VERTEX
  8
0
 10
276.561640
 20
485.321206
 42
0.074330
  0
VERTEX
  8
0
 10
276.850505
 20
486.966369
 42
0.300455
  0
VERTEX
  8
0
 10
276.381015
 20
487.718016
 42
0.107594
  0
VERTEX
  8
0
 10
275.085774
 20
488.000000
 42
0.145883
  0
VERTEX
  8
0
 10
274.093407
 20
487.704166
 42
0.049904
  0
VERTEX
  8
0
 10
272.912909
 20
486.751166
 42
0.039396
  0
VERTEX
  8
0
 10
271.621179
 20
485.257876
 42
0.021650
  0
VERTEX
  8
0
 10
270.273574
 20
483.250000
 42
0.052578
  0
VERTEX
  8
0
 10
265.116908
 20
472.374344
 42
0.083773
  0
VERTEX
  8
0
 10
263.374293
 20
462.255153
 42
0.080801
  0
VERTEX
  8
0
 10
265.028290
 20
451.865437
 42
0.045738
  0
VERTEX
  8
0
 10
270.127884
 20
440.149404
 42
-0.010974
  0
VERTEX
  8
0
 10
271.809076
 20
436.920123
 42
-0.026063
  0
VERTEX
  8
0
 10
272.878205
 20
434.432663
 42
-0.030058
  0
VERTEX
  8
0
 10
273.432615
 20
432.599728
 42
-0.260414
  0
VERTEX
  8
0
 10
273.208659
 20
431.808659
 42
-0.171113
  0
VERTEX
  8
0
 10
271.405649
 20
430.945577
 42
-0.004300
  0
VERTEX
  8
0
 10
262.232428
 20
430.035287
 42
-0.009067
  0
VERTEX
  8
0
 10
251.617486
 20
429.267816
 42
-0.006959
  0
VERTEX
  8
0
 10
240.000000
 20
428.801432
 42
0.000000
  0
VERTEX
  8
0
 10
228.500000
 20
428.500000
 42
0.000000
  0
VERTEX
  8
0
 10
228.490187
 20
432.000000
 42
0.042056
  0
VERTEX
  8
0
 10
228.171074
 20
435.664343
 42
0.086439
  0
VERTEX
  8
0
 10
227.204463
 20
438.367824
 42
0.077237
  0
VERTEX
  8
0
 10
225.299363
 20
440.772507
 42
0.028360
  0
VERTEX
  8
0
 10
221.947385
 20
443.538623
 42
-0.020392
  0
VERTEX
  8
0
 10
218.485931
 20
446.303609
 42
-0.137204
  0
VERTEX
  8
0
 10
217.287114
 20
448.120256
 42
-0.253192
  0
VERTEX
  8
0
 10
217.581624
 20
449.690881
 42
-0.077514
  0
VERTEX
  8
0
 10
219.435026
 20
451.365470
 42
0.032345
  0
VERTEX
  8
0
 10
222.294001
 20
453.515094
 42
0.034266
  0
VERTEX
  8
0
 10
224.793500
 20
455.977292
 42
0.037066
  0
VERTEX
  8
0
 10
226.675730
 20
458.451642
 42
0.082766
  0
VERTEX
  8
0
 10
227.617541
 20
460.612296
 42
0.104881
  0
VERTEX
  8
0
 10
227.711348
 20
463.152912
 42
0.099705
  0
VERTEX
  8
0
 10
226.773751
 20
465.564215
 42
0.069213
  0
VERTEX
  8
0
 10
224.621530
 20
468.079333
 42
0.025607
  0
VERTEX
  8
0
 10
220.968623
 20
470.994753
 42
-0.019085
  0
VERTEX
  8
0
 10
219.026093
 20
472.504075
 42
-0.019432
  0
VERTEX
  8
0
 10
217.216384
 20
474.148476
 42
-0.019629
  0
VERTEX
  8
0
 10
215.759969
 20
475.695903
 42
-0.072208
  0
VERTEX
  8
0
 10
215.034647
 20
476.823303
 42
0.098549
  0
VERTEX
  8
0
 10
213.950416
 20
478.329288
 42
0.269168
  0
VERTEX
  8
0
 10
212.718097
 20
478.610651
 42
0.142091
  0
VERTEX
  8
0
 10
211.228583
 20
477.626887
 42
0.027335
  0
VERTEX
  8
0
 10
209.250000
 20
475.025024
 42
0.062877
  0
VERTEX
  8
0
 10
207.383602
 20
471.349954
 42
0.127199
  0
VERTEX
  8
0
 10
207.089779
 20
468.140072
 42
0.112902
  0
VERTEX
  8
0
 10
208.394134
 20
464.936030
 42
0.043512
  0
VERTEX
  8
0
 10
211.500000
 20
461.236842
 42
-0.003377
  0
VERTEX
  8
0
 10
213.224944
 20
459.488442
 42
-0.005332
  0
VERTEX
  8
0
 10
214.678125
 20
457.963258
 42
-0.001600
  0
VERTEX
  8
0
 10
215.915777
 20
456.627689
 42
-0.188218
  0
VERTEX
  8
0
 10
216.000000
 20
456.411876
 42
-0.176978
  0
VERTEX
  8
0
 10
215.920584
 20
456.194537
 42
-0.001894
  0
VERTEX
  8
0
 10
214.871623
 20
454.960346
 42
-0.005696
  0
VERTEX
  8
0
 10
213.631084
 20
453.544865
 42
-0.003639
  0
VERTEX
  8
0
 10
212.158716
 20
451.926831
 42
0.020916
  0
VERTEX
  8
0
 10
210.599788
 20
450.090035
 42
0.017275
  0
VERTEX
  8
0
 10
209.092223
 20
448.010947
 42
0.017619
  0
VERTEX
  8
0
 10
207.841205
 20
446.004848
 42
0.043875
  0
VERTEX
  8
0
 10
207.113732
 20
444.437975
 42
0.030893
  0
VERTEX
  8
0
 10
206.538238
 20
442.475196
 42
0.094303
  0
VERTEX
  8
0
 10
206.489325
 20
441.093812
 42
0.084978
  0
VERTEX
  8
0
 10
206.950958
 20
439.711005
 42
0.022126
  0
VERTEX
  8
0
 10
208.152096
 20
437.688895
 42
0.029892
  0
VERTEX
  8
0
 10
209.249884
 20
436.214480
 42
0.018324
  0
VERTEX
  8
0
 10
210.705786
 20
434.608490
 42
0.018347
  0
VERTEX
  8
0
 10
212.269357
 20
433.119283
 42
0.030915
  0
VERTEX
  8
0
 10
213.697080
 20
432.005393
 42
-0.013845
  0
VERTEX
  8
0
 10
214.962372
 20
431.085909
 42
-0.019677
  0
VERTEX
  8
0
 10
216.029767
 20
430.195112
 42
-0.016120
  0
VERTEX
  8
0
 10
216.840494
 20
429.413612
 42
-0.195307
  0
VERTEX
  8
0
 10
217.000000
 20
429.020841
 42
-0.397581
  0
VERTEX
  8
0
 10
216.027732
 20
427.991387
 42
-0.002961
  0
VERTEX
  8
0
 10
203.322219
 20
427.340308
 42
-0.007716
  0
VERTEX
  8
0
 10
191.427753
 20
426.985189
 42
-0.069179
  0
VERTEX
  8
0
 10
186.258782
 20
427.627989
 42
0.000000
  0
VERTEX
  8
0
 10
184.017565
 20
428.228669
 42
0.000000
  0
VERTEX
  8
0
 10
183.758782
 20
480.864335
 42
0.000900
  0
VERTEX
  8
0
 10
183.482452
 20
522.007445
 42
0.042341
  0
VERTEX
  8
0
 10
182.706308
 20
530.315684
 42
0.461548
  0
VERTEX
  8
0
 10
180.151748
 20
531.806224
 42
0.100762
  0
VERTEX
  8
0
 10
175.142164
 20
528.820381
 42
0.000000
  0
VERTEX
  8
0
 10
170.000000
 20
524.140763
 42
0.000000
  0
VERTEX
  8
0
 10
170.000000
 20
477.570381
 42
0.000000
  0
VERTEX
  8
0
 10
170.000000
 20
431.000000
 42
0.000000
  0
VERTEX
  8
0
 10
167.450340
 20
431.000000
 42
-0.105422
  0
VERTEX
  8
0
 10
162.776380
 20
431.996555
 42
-0.051703
  0
VERTEX
  8
0
 10
157.480316
 20
435.053204
 42
-0.051000
  0
VERTEX
  8
0
 10
152.788423
 20
439.240904
 42
-0.084009
  0
VERTEX
  8
0
 10
149.914788
 20
443.698791
 42
-0.036898
  0
VERTEX
  8
0
 10
148.536809
 20
447.706164
 42
-0.072182
  0
VERTEX
  8
0
 10
148.155861
 20
451.053530
 42
-0.059129
  0
VERTEX
  8
0
 10
148.716287
 20
454.789007
 42
-0.018064
  0
VERTEX
  8
0
 10
150.424685
 20
460.250566
 42
0.013525
  0
VERTEX
  8
0
 10
151.272827
 20
462.878057
 42
0.021226
  0
VERTEX
  8
0
 10
151.843193
 20
465.181396
 42
0.016684
  0
VERTEX
  8
0
 10
152.155349
 20
467.033952
 42
0.295907
  0
VERTEX
  8
0
 10
151.908009
 20
467.556853
 42
0.341735
  0
VERTEX
  8
0
 10
150.394116
 20
467.397290
 42
0.043411
  0
VERTEX
  8
0
 10
148.083220
 20
464.764782
 42
0.038183
  0
VERTEX
  8
0
 10
145.620418
 20
460.813185
 42
0.026787
  0
VERTEX
  8
0
 10
143.446033
 20
456.039888
 42
0.016806
  0
VERTEX
  8
0
 10
142.032706
 20
452.047943
 42
0.039182
  0
VERTEX
  8
0
 10
141.315365
 20
448.961202
 42
0.035915
  0
VERTEX
  8
0
 10
141.055245
 20
445.642432
 42
0.012177
  0
VERTEX
  8
0
 10
141.142137
 20
440.797776
 42
0.011343
  0
VERTEX
  8
0
 10
141.454162
 20
436.002036
 42
0.040100
  0
VERTEX
  8
0
 10
141.969250
 20
432.961494
 42
0.050170
  0
VERTEX
  8
0
 10
142.896425
 20
430.407442
 42
0.025851
  0
VERTEX
  8
0
 10
144.529141
 20
427.420020
 42
0.055906
  0
VERTEX
  8
0
 10
147.808775
 20
423.225195
 42
0.045141
  0
VERTEX
  8
0
 10
152.165802
 20
419.515537
 42
0.042347
  0
VERTEX
  8
0
 10
157.416994
 20
416.435569
 42
0.036851
  0
VERTEX
  8
0
 10
163.358644
 20
414.116365
 42
0.000000
  0
VERTEX
  8
0
 10
169.500000
 20
412.226893
 42
0.000000
  0
VERTEX
  8
0
 10
169.420957
 20
382.863447
 42
-0.005811
  0
VERTEX
  8
0
 10
169.116217
 20
361.574642
 42
-0.021581
  0
VERTEX
  8
0
 10
168.190150
 20
348.192171
 42
-0.030323
  0
VERTEX
  8
0
 10
166.310873
 20
337.429814
 42
-0.022448
  0
VERTEX
  8
0
 10
162.990115
 20
325.811102
 42
-0.021490
  0
VERTEX
  8
0
 10
159.735144
 20
317.324832
 42
-0.048585
  0
VERTEX
  8
0
 10
156.401402
 20
311.313086
 42
-0.049684
  0
VERTEX
  8
0
 10
152.018998
 20
306.138550
 42
-0.023420
  0
VERTEX
  8
0
 10
145.440068
 20
300.345334
 42
0.009331
  0
VERTEX
  8
0
 10
143.305666
 20
298.570037
 42
0.085286
  0
VERTEX
  8
0
 10
142.541298
 20
297.640448
 42
0.294855
  0
VERTEX
  8
0
 10
142.576264
 20
297.010547
 42
0.140967
  0
VERTEX
  8
0
 10
143.243346
 20
296.490899
 42
0.175995
  0
VERTEX
  8
0
 10
145.313019
 20
296.421982
 42
0.034431
  0
VERTEX
  8
0
 10
148.825216
 20
297.840998
 42
0.030855
  0
VERTEX
  8
0
 10
153.086722
 20
300.249937
 42
0.018985
  0
VERTEX
  8
0
 10
157.798462
 20
303.572284
 42
-0.017553
  0
VERTEX
  8
0
 10
159.597597
 20
304.848623
 42
-0.027662
  0
VERTEX
  8
0
 10
161.234071
 20
305.800017
 42
-0.026339
  0
VERTEX
  8
0
 10
162.566141
 20
306.392698
 42
-0.300514
  0
VERTEX
  8
0
 10
163.100753
 20
306.274332
 42
-0.138247
  0
VERTEX
  8
0
 10
163.408317
 20
305.703627
 42
-0.013595
  0
VERTEX
  8
0
 10
163.709775
 20
304.155825
 42
-0.016361
  0
VERTEX
  8
0
 10
163.962972
 20
302.255381
 42
-0.012259
  0
VERTEX
  8
0
 10
164.121646
 20
300.149753
 42
-0.029690
  0
VERTEX
  8
0
 10
164.088218
 20
296.291781
 42
-0.175164
  0
VERTEX
  8
0
 10
163.286412
 20
294.471117
 42
-0.148129
  0
VERTEX
  8
0
 10
161.426749
 20
293.418576
 42
-0.019438
  0
VERTEX
  8
0
 10
156.910040
 20
292.587136
 42
0.078792
  0
VERTEX
  8
0
 10
152.342102
 20
291.171952
 42
0.094209
  0
VERTEX
  8
0
 10
148.748883
 20
288.465501
 42
0.092655
  0
VERTEX
  8
0
 10
146.358287
 20
284.588967
 42
0.073633
  0
VERTEX
  8
0
 10
145.279265
 20
279.782087
 42
0.020922
  0
VERTEX
  8
0
 10
145.190782
 20
277.015866
 42
0.046034
  0
VERTEX
  8
0
 10
145.405725
 20
274.913100
 42
0.053224
  0
VERTEX
  8
0
 10
145.972497
 20
273.082284
 42
0.038500
  0
VERTEX
  8
0
 10
146.966228
 20
271.189824
 42
0.226702
  0
VERTEX
  8
0
 10
153.905569
 20
266.796168
 42
0.024389
  0
VERTEX
  8
0
 10
173.401128
 20
265.433114
 42
0.006383
  0
VERTEX
  8
0
 10
214.012540
 20
265.097354
 42
0.000167
  0
VERTEX
  8
0
 10
395.000000
 20
265.972008
 42
0.000341
  0
VERTEX
  8
0
 10
486.692257
 20
266.508201
 42
0.000556
  0
VERTEX
  8
0
 10
564.468750
 20
267.102437
 42
0.000052
  0
VERTEX
  8
0
 10
634.129644
 20
267.719314
 42
0.059794
  0
VERTEX
  8
0
 10
637.000000
 20
268.089921
 42
0.060254
  0
VERTEX
  8
0
 10
640.613629
 20
269.484090
 42
0.072666
  0
VERTEX
  8
0
 10
643.543077
 20
271.636421
 42
0.073020
  0
VERTEX
  8
0
 10
645.723897
 20
274.527380
 42
0.061639
  0
VERTEX
  8
0
 10
647.137120
 20
278.092727
 42
0.021298
  0
VERTEX
  8
0
 10
647.721668
 20
280.813003
 42
0.068620
  0
VERTEX
  8
0
 10
647.780842
 20
282.658502
 42
0.066957
  0
VERTEX
  8
0
 10
647.338749
 20
284.475377
 42
0.019612
  0
VERTEX
  8
0
 10
646.186583
 20
287.114572
 42
0.058542
  0
VERTEX
  8
0
 10
643.975563
 20
290.580903
 42
0.077425
  0
VERTEX
  8
0
 10
641.192968
 20
293.078688
 42
0.071905
  0
VERTEX
  8
0
 10
637.616302
 20
294.733801
 42
0.043017
  0
VERTEX
  8
0
 10
633.019948
 20
295.684043
 42
-0.008596
  0
VERTEX
  8
0
 10
631.095391
 20
295.945602
 42
-0.014022
  0
VERTEX
  8
0
 10
629.474610
 20
296.241060
 42
-0.007663
  0
VERTEX
  8
0
 10
628.161530
 20
296.539771
 42
-0.345821
  0
VERTEX
  8
0
 10
628.000000
 20
296.745387
 42
-0.148946
  0
VERTEX
  8
0
 10
628.092621
 20
297.049412
 42
-0.004557
  0
VERTEX
  8
0
 10
628.843355
 20
298.145464
 42
-0.008607
  0
VERTEX
  8
0
 10
629.770868
 20
299.425951
 42
-0.005805
  0
VERTEX
  8
0
 10
630.870995
 20
300.856096
 42
0.049713
  0
VERTEX
  8
0
 10
635.796852
 20
308.575593
 42
0.024244
  0
VERTEX
  8
0
 10
640.567995
 20
319.255333
 42
0.022871
  0
VERTEX
  8
0
 10
644.696345
 20
331.469825
 42
0.022929
  0
VERTEX
  8
0
 10
647.687747
 20
344.000000
 42
0.032686
  0
VERTEX
  8
0
 10
648.716343
 20
352.310114
 42
0.010031
  0
VERTEX
  8
0
 10
649.193590
 20
364.949928
 42
0.004443
  0
VERTEX
  8
0
 10
649.384906
 20
386.708996
 42
0.000480
  0
VERTEX
  8
0
 10
649.331951
 20
437.000000
 42
0.000763
  0
VERTEX
  8
0
 10
649.133902
 20
492.975844
 42
0.005373
  0
VERTEX
  8
0
 10
648.703243
 20
520.212731
 42
0.003489
  0
VERTEX
  8
0
 10
648.121259
 20
537.560778
 42
0.402397
  0
VERTEX
  8
0
 10
646.622515
 20
539.000000
 42
0.162678
  0
VERTEX
  8
0
 10
645.921188
 20
538.765617
 42
0.011091
  0
VERTEX
  8
0
 10
644.249335
 20
537.448575
 42
0.014944
  0
VERTEX
  8
0
 10
642.300590
 20
535.741776
 42
0.010614
  0
VERTEX
  8
0
 10
640.215840
 20
533.718555
 42
0.000000
  0
VERTEX
  8
0
 10
635.000000
 20
528.437109
 42
0.000000
  0
VERTEX
  8
0
 10
635.000000
 20
510.218555
 42
0.000000
  0
VERTEX
  8
0
 10
635.000000
 20
492.000000
 42
0.000000
  0
VERTEX
  8
0
 10
631.500000
 20
492.000000
 42
-0.006691
  0
VERTEX
  8
0
 10
630.154252
 20
492.018010
 42
-0.010863
  0
VERTEX
  8
0
 10
629.012104
 20
492.073438
 42
-0.004744
  0
VERTEX
  8
0
 10
628.059412
 20
492.149532
 42
-0.327735
  0
VERTEX
  8
0
 10
627.945461
 20
492.250000
 42
-0.045874
  0
VERTEX
  8
0
 10
627.920151
 20
492.454558
 42
-0.000033
  0
VERTEX
  8
0
 10
627.750576
 20
497.860937
 42
-0.000391
  0
VERTEX
  8
0
 10
627.566625
 20
503.889079
 42
-0.000239
  0
VERTEX
  8
0
 10
627.358610
 20
511.000000
 42
0.000000
  0
VERTEX
  8
0
 10
626.826297
 20
529.500000
 42
0.000000
  0
VERTEX
  8
0
 10
622.163149
 20
534.207817
 42
0.018343
  0
VERTEX
  8
0
 10
620.238488
 20
536.013390
 42
0.022589
  0
VERTEX
  8
0
 10
618.311593
 20
537.545104
 42
0.021786
  0
VERTEX
  8
0
 10
616.611386
 20
538.666074
 42
0.130009
  0
VERTEX
  8
0
 10
615.599723
 20
538.957817
 42
0.401451
  0
VERTEX
  8
0
 10
614.360694
 20
537.823473
 42
0.010994
  0
VERTEX
  8
0
 10
614.008611
 20
529.822394
 42
0.006557
  0
VERTEX
  8
0
 10
613.876476
 20
514.932078
 42
0.000406
  0
VERTEX
  8
0
 10
614.099723
 20
470.750000
 42
0.000000
  0
VERTEX
  8
0
 10
614.500000
 20
402.500000
 42
0.000000
  0
VERTEX
  8
0
 10
610.485367
 20
402.204003
 42
0.000000
  0
VERTEX
  8
0
 10
606.470734
 20
401.908006
 42
0.000000
  0
VERTEX
  8
0
 10
603.127120
 20
411.915310
 42
-0.025199
  0
VERTEX
  8
0
 10
600.354337
 20
421.854046
 42
-0.042011
  0
VERTEX
  8
0
 10
599.162465
 20
430.454205
 42
-0.047603
  0
VERTEX
  8
0
 10
599.488123
 20
438.316443
 42
-0.047175
  0
VERTEX
  8
0
 10
601.293751
 20
446.000000
 42
0.006198
  0
VERTEX
  8
0
 10
602.232970
 20
448.905082
 42
0.009806
  0
VERTEX
  8
0
 10
602.957941
 20
451.419713
 42
0.004216
  0
VERTEX
  8
0
 10
603.508938
 20
453.554016
 42
0.261358
  0
VERTEX
  8
0
 10
603.409304
 20
453.918173
 42
0.245068
  0
VERTEX
  8
0
 10
603.119119
 20
454.011699
 42
0.030126
  0
VERTEX
  8
0
 10
602.449031
 20
453.855431
 42
0.030092
  0
VERTEX
  8
0
 10
601.621867
 20
453.553952
 42
0.020433
  0
VERTEX
  8
0
 10
600.719290
 20
453.117360
 42
0.101157
  0
VERTEX
  8
0
 10
597.935359
 20
450.805484
 42
0.033794
  0
VERTEX
  8
0
 10
594.894278
 20
446.441159
 42
0.031923
  0
VERTEX
  8
0
 10
592.084405
 20
441.006680
 42
0.030845
  0
VERTEX
  8
0
 10
589.952482
 20
435.196872
 42
-0.008441
  0
VERTEX
  8
0
 10
589.077054
 20
432.434587
 42
-0.015093
  0
VERTEX
  8
0
 10
588.251537
 20
430.200669
 42
-0.010170
  0
VERTEX
  8
0
 10
587.522918
 20
428.498697
 42
-0.524226
  0
VERTEX
  8
0
 10
587.222689
 20
428.443977
 42
-0.192439
  0
VERTEX
  8
0
 10
586.992491
 20
428.980696
 42
-0.000137
  0
VERTEX
  8
0
 10
586.603719
 20
444.739406
 42
-0.001540
  0
VERTEX
  8
0
 10
586.228500
 20
462.343372
 42
-0.000938
  0
VERTEX
  8
0
 10
585.888225
 20
483.145109
 42
0.001270
  0
VERTEX
  8
0
 10
585.481927
 20
507.012190
 42
0.003457
  0
VERTEX
  8
0
 10
585.034465
 20
523.908727
 42
0.000960
  0
VERTEX
  8
0
 10
584.566407
 20
537.158391
 42
0.189254
  0
VERTEX
  8
0
 10
584.044028
 20
538.355972
 42
0.287019
  0
VERTEX
  8
0
 10
583.250636
 20
538.538718
 42
0.063638
  0
VERTEX
  8
0
 10
581.943765
 20
537.891671
 42
0.037066
  0
VERTEX
  8
0
 10
580.103403
 20
536.460601
 42
0.011029
  0
VERTEX
  8
0
 10
577.513380
 20
534.013214
 42
0.000000
  0
VERTEX
  8
0
 10
572.042698
 20
528.610488
 42
0.000000
  0
VERTEX
  8
0
 10
571.771349
 20
510.055244
 42
0.000000
  0
VERTEX
  8
0
 10
571.500000
 20
491.500000
 42
0.000000
  0
VERTEX
  8
0
 10
568.411162
 20
491.198661
 42
0.000000
  0
VERTEX
  8
0
 10
565.322323
 20
490.897323
 42
0.000000
  0
VERTEX
  8
0
 10
564.667348
 20
514.142475
 42
0.003405
  0
VERTEX
  8
0
 10
564.353340
 20
523.115591
 42
0.005359
  0
VERTEX
  8
0
 10
563.948664
 20
530.815472
 42
0.001661
  0
VERTEX
  8
0
 10
563.506001
 20
537.457557
 42
0.180815
  0
VERTEX
  8
0
 10
563.140515
 20
538.259485
 42
0.318333
  0
VERTEX
  8
0
 10
562.528362
 20
538.363947
 42
0.029927
  0
VERTEX
  8
0
 10
561.118106
 20
537.580286
 42
0.028947
  0
VERTEX
  8
0
 10
559.361993
 20
536.313511
 42
0.016451
  0
SEQEND
  0
POLYLINE
  8
0
 66
1
 70
1
  0
VERTEX
  8
0
 10
540.060280
 20
529.540589
 42
-0.005146
  0
VERTEX
  8
0
 10
543.424781
 20
528.841080
 42
-0.006951
  0
VERTEX
  8
0
 10
546.451118
 20
528.135097
 42
-0.004887
  0
VERTEX
  8
0
 10
548.964632
 20
527.485636
 42
-0.072864
  0
VERTEX
  8
0
 10
549.795505
 20
527.126385
 42
-0.245938
  0
VERTEX
  8
0
 10
550.409085
 20
526.090880
 42
-0.003781
  0
VERTEX
  8
0
 10
550.731719
 20
518.934091
 42
-0.006723
  0
VERTEX
  8
0
 10
550.974859
 20
508.822836
 42
-0.001771
  0
VERTEX
  8
0
 10
551.089034
 20
492.637256
 42
-0.001367
  0
VERTEX
  8
0
 10
551.099127
 20
479.657247
 42
-0.002231
  0
VERTEX
  8
0
 10
551.028452
 20
468.647826
 42
-0.000283
  0
VERTEX
  8
0
 10
550.916381
 20
458.857948
 42
-0.195792
  0
VERTEX
  8
0
 10
550.716278
 20
458.382944
 42
-0.488795
  0
VERTEX
  8
0
 10
550.445831
 20
458.416622
 42
-0.019284
  0
VERTEX
  8
0
 10
549.895606
 20
459.426060
 42
-0.021292
  0
VERTEX
  8
0
 10
549.266154
 20
460.843499
 42
-0.011737
  0
VERTEX
  8
0
 10
548.612469
 20
462.623941
 42
-0.046490
  0
VERTEX
  8
0
 10
547.541606
 20
467.087071
 42
-0.027380
  0
VERTEX
  8
0
 10
547.060087
 20
472.555666
 42
-0.027207
  0
VERTEX
  8
0
 10
547.172141
 20
477.810289
 42
-0.072024
  0
VERTEX
  8
0
 10
547.988814
 20
481.470578
 42
0.025536
  0
VERTEX
  8
0
 10
548.423158
 20
482.816037
 42
0.107470
  0
VERTEX
  8
0
 10
548.462870
 20
483.658879
 42
0.169801
  0
VERTEX
  8
0
 10
548.147459
 20
484.231558
 42
0.091394
  0
VERTEX
  8
0
 10
547.451568
 20
484.656959
 42
0.211316
  0
VERTEX
  8
0
 10
545.670095
 20
484.567637
 42
0.093500
  0
VERTEX
  8
0
 10
543.759489
 20
483.105941
 42
0.056325
  0
VERTEX
  8
0
 10
541.704012
 20
480.219122
 42
0.021099
  0
VERTEX
  8
0
 10
539.476572
 20
475.768446
 42
0.017904
  0
VERTEX
  8
0
 10
537.924004
 20
471.948354
 42
0.052510
  0
VERTEX
  8
0
 10
537.235073
 20
469.196421
 42
0.042755
  0
VERTEX
  8
0
 10
537.063011
 20
466.066692
 42
0.008922
  0
VERTEX
  8
0
 10
537.329084
 20
460.571318
 42
0.011409
  0
VERTEX
  8
0
 10
537.678225
 20
456.660539
 42
0.008766
  0
VERTEX
  8
0
 10
538.231494
 20
452.408399
 42
0.008877
  0
VERTEX
  8
0
 10
538.889587
 20
448.448238
 42
0.020765
  0
VERTEX
  8
0
 10
539.556302
 20
445.521105
 42
-0.024534
  0
VERTEX
  8
0
 10
540.251900
 20
442.357265
 42
-0.019952
  0
VERTEX
  8
0
 10
540.693152
 20
438.914139
 42
-0.018311
  0
VERTEX
  8
0
 10
540.885042
 20
435.150660
 42
-0.013924
  0
VERTEX
  8
0
 10
540.829199
 20
431.021105
 42
-0.037609
  0
VERTEX
  8
0
 10
539.949481
 20
423.507464
 42
-0.066109
  0
VERTEX
  8
0
 10
537.962873
 20
417.587343
 42
-0.058961
  0
VERTEX
  8
0
 10
534.323499
 20
411.953810
 42
-0.024293
  0
VERTEX
  8
0
 10
528.187461
 20
405.232825
 42
-0.039995
  0
VERTEX
  8
0
 10
519.672606
 20
398.026759
 42
-0.053460
  0
VERTEX
  8
0
 10
510.871326
 20
393.039112
 42
-0.051597
  0
VERTEX
  8
0
 10
500.966239
 20
389.913692
 42
-0.033960
  0
VERTEX
  8
0
 10
489.113401
 20
388.307968
 42
-0.009653
  0
VERTEX
  8
0
 10
481.605191
 20
387.951417
 42
-0.295769
  0
VERTEX
  8
0
 10
480.076152
 20
388.882564
 42
-0.415359
  0
VERTEX
  8
0
 10
480.567515
 20
390.277436
 42
-0.012268
  0
VERTEX
  8
0
 10
486.820264
 20
393.071375
 42
0.004661
  0
VERTEX
  8
0
 10
492.037476
 20
395.308021
 42
0.103721
  0
VERTEX
  8
0
 10
493.370576
 20
396.261805
 42
0.615113
  0
VERTEX
  8
0
 10
493.151921
 20
396.842973
 42
0.027912
  0
VERTEX
  8
0
 10
490.416667
 20
396.985934
 42
0.053954
  0
VERTEX
  8
0
 10
488.248177
 20
396.743371
 42
0.030251
  0
VERTEX
  8
0
 10
485.696087
 20
396.010380
 42
0.025078
  0
VERTEX
  8
0
 10
482.740001
 20
394.794181
 42
0.014664
  0
VERTEX
  8
0
 10
479.324410
 20
393.060095
 42
-0.013547
  0
VERTEX
  8
0
 10
476.443166
 20
391.589195
 42
-0.017522
  0
VERTEX
  8
0
 10
473.720728
 20
390.406304
 42
-0.015367
  0
VERTEX
  8
0
 10
471.417277
 20
389.580806
 42
-0.129175
  0
VERTEX
  8
0
 10
470.324410
 20
389.519041
 42
0.005359
  0
VERTEX
  8
0
 10
469.374607
 20
389.701462
 42
0.001637
  0
VERTEX
  8
0
 10
467.934358
 20
389.957238
 42
0.001639
  0
VERTEX
  8
0
 10
466.319512
 20
390.233121
 42
0.001791
  0
VERTEX
  8
0
 10
464.750000
 20
390.490193
 42
-0.029544
  0
VERTEX
  8
0
 10
463.313968
 20
390.808060
 42
-0.043039
  0
VERTEX
  8
0
 10
462.102497
 20
391.268126
 42
-0.051012
  0
VERTEX
  8
0
 10
461.251662
 20
391.790826
 42
-0.234303
  0
VERTEX
  8
0
 10
461.003183
 20
392.295313
 42
-0.117882
  0
VERTEX
  8
0
 10
461.183006
 20
393.038751
 42
-0.008620
  0
VERTEX
  8
0
 10
462.178561
 20
394.908623
 42
-0.011648
  0
VERTEX
  8
0
 10
463.470063
 20
397.113981
 42
-0.008549
  0
VERTEX
  8
0
 10
465.000000
 20
399.500000
 42
0.098611
  0
VERTEX
  8
0
 10
468.389914
 20
407.730918
 42
0.176303
  0
VERTEX
  8
0
 10
467.274768
 20
414.871167
 42
0.071833
  0
VERTEX
  8
0
 10
460.527232
 20
423.795810
 42
0.007517
  0
VERTEX
  8
0
 10
441.563914
 20
442.000000
 42
-0.016188
  0
VERTEX
  8
0
 10
436.784201
 20
446.750332
 42
-0.024365
  0
VERTEX
  8
0
 10
432.966861
 20
451.215064
 42
-0.025760
  0
VERTEX
  8
0
 10
429.759079
 20
455.832573
 42
-0.021534
  0
VERTEX
  8
0
 10
426.831418
 20
461.034872
 42
-0.017262
  0
VERTEX
  8
0
 10
424.970273
 20
465.039958
 42
-0.049276
  0
VERTEX
  8
0
 10
424.057305
 20
467.970405
 42
-0.041184
  0
VERTEX
  8
0
 10
423.651549
 20
471.301221
 42
-0.009330
  0
VERTEX
  8
0
 10
423.536191
 20
477.000000
 42
-0.009486
  0
VERTEX
  8
0
 10
423.636683
 20
482.777637
 42
-0.042874
  0
VERTEX
  8
0
 10
424.046963
 20
486.122291
 42
-0.049034
  0
VERTEX
  8
0
 10
424.997991
 20
489.135315
 42
-0.014927
  0
VERTEX
  8
0
 10
427.010592
 20
493.482496
 42
-0.047131
  0
VERTEX
  8
0
 10
431.629202
 20
500.888250
 42
-0.037547
  0
VERTEX
  8
0
 10
437.889630
 20
507.927867
 42
-0.036445
  0
VERTEX
  8
0
 10
445.355813
 20
514.165668
 42
-0.037601
  0
VERTEX
  8
0
 10
453.573979
 20
519.181408
 42
-0.018052
  0
VERTEX
  8
0
 10
461.183708
 20
522.733372
 42
-0.016483
  0
VERTEX
  8
0
 10
469.261924
 20
525.844747
 42
-0.016960
  0
VERTEX
  8
0
 10
477.230510
 20
528.316395
 42
-0.023796
  0
VERTEX
  8
0
 10
484.500000
 20
529.936371
 42
0.000010
  0
VERTEX
  8
0
 10
486.980469
 20
530.366504
 42
0.000010
  0
VERTEX
  8
0
 10
489.471875
 20
530.798640
 42
0.000010
  0
VERTEX
  8
0
 10
491.653898
 20
531.177204
 42
0.000040
  0
VERTEX
  8
0
 10
493.000000
 20
531.410880
 42
-0.047741
  0
VERTEX
  8
0
 10
499.870276
 20
531.937845
 42
-0.005216
  0
VERTEX
  8
0
 10
515.726030
 20
531.473312
 42
-0.006102
  0
VERTEX
  8
0
 10
531.514306
 20
530.652765
 42
-0.032654
  0
SEQEND
  0
POLYLINE
  8
0
 66
1
 70
1
  0
VERTEX
  8
0
 10
400.500000
 20
457.500000
 42
-0.000976
  0
VERTEX
  8
0
 10
400.445284
 20
429.463017
 42
-0.004635
  0
VERTEX
  8
0
 10
400.233931
 20
413.420727
 42
-0.003639
  0
VERTEX
  8
0
 10
399.915329
 20
402.704726
 42
-0.121079
  0
VERTEX
  8
0
 10
399.214816
 20
400.250000
 42
-0.095353
  0
VERTEX
  8
0
 10
398.154533
 20
399.014186
 42
-0.113175
  0
VERTEX
  8
0
 10
396.770198
 20
398.351995
 42
-0.049430
  0
VERTEX
  8
0
 10
394.424778
 20
398.064415
 42
-0.005966
  0
VERTEX
  8
0
 10
389.214816
 20
398.005577
 42
-0.018299
  0
VERTEX
  8
0
 10
382.112425
 20
398.270151
 42
-0.044358
  0
VERTEX
  8
0
 10
376.937720
 20
399.118450
 42
-0.059727
  0
VERTEX
  8
0
 10
373.019996
 20
400.640054
 42
-0.074042
  0
VERTEX
  8
0
 10
369.880015
 20
402.966139
 42
-0.105088
  0
VERTEX
  8
0
 10
366.924938
 20
407.516241
 42
-0.129966
  0
VERTEX
  8
0
 10
366.381509
 20
412.523750
 42
-0.102719
  0
VERTEX
  8
0
 10
368.425304
 20
418.035277
 42
-0.048535
  0
VERTEX
  8
0
 10
373.077732
 20
424.069426
 42
0.012443
  0
VERTEX
  8
0
 10
378.268474
 20
429.882223
 42
0.029884
  0
VERTEX
  8
0
 10
381.735162
 20
434.496864
 42
0.036418
  0
VERTEX
  8
0
 10
384.204259
 20
438.893060
 42
0.029560
  0
VERTEX
  8
0
 10
386.209058
 20
443.914868
 42
0.035653
  0
VERTEX
  8
0
 10
387.443552
 20
448.760566
 42
0.027723
  0
VERTEX
  8
0
 10
388.109673
 20
454.160060
 42
0.012704
  0
VERTEX
  8
0
 10
388.462901
 20
462.583978
 42
0.001563
  0
VERTEX
  8
0
 10
388.709209
 20
481.000000
 42
0.000059
  0
VERTEX
  8
0
 10
388.828252
 20
492.750074
 42
0.000094
  0
VERTEX
  8
0
 10
388.926766
 20
502.775597
 42
0.000015
  0
VERTEX
  8
0
 10
389.012175
 20
511.664346
 42
0.005799
  0
VERTEX
  8
0
 10
389.010892
 20
512.299904
 42
-0.372808
  0
VERTEX
  8
0
 10
389.265241
 20
512.601829
 42
-0.017532
  0
VERTEX
  8
0
 10
390.692262
 20
512.776739
 42
-0.021730
  0
VERTEX
  8
0
 10
392.546147
 20
512.857341
 42
-0.013028
  0
VERTEX
  8
0
 10
394.750000
 20
512.799904
 42
0.000000
  0
VERTEX
  8
0
 10
400.500000
 20
512.500000
 42
0.000000
  0
SEQEND
  0
POLYLINE
  8
0
 66
1
 70
1
  0
VERTEX
  8
0
 10
648.000000
 20
505.000000
 42
-0.099038
  0
VERTEX
  8
0
 10
647.923658
 20
504.618362
 42
-0.097945
  0
VERTEX
  8
0
 10
647.706250
 20
504.293750
 42
-0.097945
  0
VERTEX
  8
0
 10
647.381638
 20
504.076342
 42
-0.099038
  0
VERTEX
  8
0
 10
647.000000
 20
504.000000
 42
-0.099038
  0
VERTEX
  8
0
 10
646.618362
 20
504.076342
 42
-0.097945
  0
VERTEX
  8
0
 10
646.293750
 20
504.293750
 42
-0.097945
  0
VERTEX
  8
0
 10
646.076342
 20
504.618362
 42
-0.099038
  0
VERTEX
  8
0
 10
646.000000
 20
505.000000
 42
-0.099038
  0
VERTEX
  8
0
 10
646.076342
 20
505.381638
 42
-0.097945
  0
VERTEX
  8
0
 10
646.293750
 20
505.706250
 42
-0.097945
  0
VERTEX
  8
0
 10
646.618362
 20
505.923658
 42
-0.099038
  0
VERTEX
  8
0
 10
647.000000
 20
506.000000
 42
-0.099038
  0
VERTEX
  8
0
 10
647.381638
 20
505.923658
 42
-0.097945
  0
VERTEX
  8
0
 10
647.706250
 20
505.706250
 42
-0.097945
  0
VERTEX
  8
0
 10
647.923658
 20
505.381638
 42
-0.099038
  0
SEQEND
  0
POLYLINE
  8
0
 66
1
 70
1
  0
VERTEX
  8
0
 10
176.000000
 20
498.106989
 42
-0.223243
  0
VERTEX
  8
0
 10
175.616217
 20
497.290262
 42
-0.089221
  0
VERTEX
  8
0
 10
174.513420
 20
496.667218
 42
-0.092338
  0
VERTEX
  8
0
 10
173.292238
 20
496.479983
 42
-0.251406
  0
VERTEX
  8
0
 10
172.559212
 20
496.904194
 42
-0.085976
  0
VERTEX
  8
0
 10
172.414476
 20
497.264427
 42
-0.075821
  0
VERTEX
  8
0
 10
172.390517
 20
497.668938
 42
-0.077371
  0
VERTEX
  8
0
 10
172.487617
 20
498.054641
 42
-0.096382
  0
VERTEX
  8
0
 10
172.693853
 20
498.360520
 42
-0.129546
  0
VERTEX
  8
0
 10
173.558862
 20
498.864723
 42
-0.086873
  0
VERTEX
  8
0
 10
174.704307
 20
498.975921
 42
-0.106073
  0
VERTEX
  8
0
 10
175.650450
 20
498.695752
 42
-0.274485
  0
SEQEND
  0
POLYLINE
  8
0
 66
1
 70
1
  0
VERTEX
  8
0
 10
644.000000
 20
497.000000
 42
-0.191087
  0
VERTEX
  8
0
 10
643.848523
 20
496.618118
 42
-0.088204
  0
VERTEX
  8
0
 10
643.412500
 20
496.293750
 42
-0.068025
  0
VERTEX
  8
0
 10
642.765418
 20
496.073693
 42
-0.048028
  0
VERTEX
  8
0
 10
642.000000
 20
496.000000
 42
-0.048028
  0
VERTEX
  8
0
 10
641.234582
 20
496.073693
 42
-0.068025
  0
VERTEX
  8
0
 10
640.587500
 20
496.293750
 42
-0.088204
  0
VERTEX
  8
0
 10
640.151477
 20
496.618118
 42
-0.191087
  0
VERTEX
  8
0
 10
640.000000
 20
497.000000
 42
-0.191087
  0
VERTEX
  8
0
 10
640.151477
 20
497.381882
 42
-0.088204
  0
VERTEX
  8
0
 10
640.587500
 20
497.706250
 42
-0.068025
  0
VERTEX
  8
0
 10
641.234582
 20
497.926307
 42
-0.048028
  0
VERTEX
  8
0
 10
642.000000
 20
498.000000
 42
-0.048028
  0
VERTEX
  8
0
 10
642.765418
 20
497.926307
 42
-0.068025
  0
VERTEX
  8
0
 10
643.412500
 20
497.706250
 42
-0.088204
  0
VERTEX
  8
0
 10
643.848523
 20
497.381882
 42
-0.191087
  0
SEQEND
  0
POLYLINE
  8
0
 66
1
 70
1
  0
VERTEX
  8
0
 10
635.249195
 20
485.476753
 42
-0.045543
  0
VERTEX
  8
0
 10
635.443367
 20
483.498902
 42
-0.000283
  0
VERTEX
  8
0
 10
635.555846
 20
465.562476
 42
-0.001158
  0
VERTEX
  8
0
 10
635.625319
 20
445.069405
 42
-0.000738
  0
VERTEX
  8
0
 10
635.615772
 20
421.226753
 42
0.000000
  0
VERTEX
  8
0
 10
635.500000
 20
359.500000
 42
0.000000
  0
VERTEX
  8
0
 10
632.413723
 20
359.198852
 42
0.000000
  0
VERTEX
  8
0
 10
629.327446
 20
358.897705
 42
0.000000
  0
VERTEX
  8
0
 10
628.664955
 20
403.198852
 42
-0.000600
  0
VERTEX
  8
0
 10
628.411249
 20
421.644951
 42
-0.000568
  0
VERTEX
  8
0
 10
628.196708
 20
440.434975
 42
-0.000563
  0
VERTEX
  8
0
 10
628.044435
 20
457.067632
 42
-0.001992
  0
VERTEX
  8
0
 10
628.001231
 20
467.750000
 42
0.000000
  0
VERTEX
  8
0
 10
628.000000
 20
488.000000
 42
0.000000
  0
VERTEX
  8
0
 10
631.383423
 20
488.000000
 42
-0.028245
  0
VERTEX
  8
0
 10
633.197877
 20
487.897419
 42
-0.116860
  0
VERTEX
  8
0
 10
634.224074
 20
487.527917
 42
-0.147374
  0
VERTEX
  8
0
 10
634.845926
 20
486.789439
 42
-0.054641
  0
SEQEND
  0
POLYLINE
  8
0
 66
1
 70
1
  0
VERTEX
  8
0
 10
572.462082
 20
449.750000
 42
-0.001260
  0
VERTEX
  8
0
 10
572.704292
 20
434.755140
 42
-0.001468
  0
VERTEX
  8
0
 10
572.856732
 20
420.504687
 42
-0.001300
  0
VERTEX
  8
0
 10
572.918971
 20
408.448400
 42
-0.008859
  0
VERTEX
  8
0
 10
572.828823
 20
402.500000
 42
-0.004148
  0
VERTEX
  8
0
 10
572.580456
 20
396.470292
 42
-0.044545
  0
VERTEX
  8
0
 10
572.243079
 20
394.049860
 42
-0.147777
  0
VERTEX
  8
0
 10
571.601878
 20
392.932459
 42
-0.191389
  0
VERTEX
  8
0
 10
570.513475
 20
392.500000
 42
-0.317751
  0
VERTEX
  8
0
 10
568.058116
 20
394.235623
 42
-0.059866
  0
VERTEX
  8
0
 10
566.785970
 20
399.909574
 42
-0.019627
  0
VERTEX
  8
0
 10
566.064475
 20
411.584090
 42
-0.001595
  0
VERTEX
  8
0
 10
565.473039
 20
442.250000
 42
0.000000
  0
VERTEX
  8
0
 10
564.752768
 20
487.000000
 42
0.000000
  0
VERTEX
  8
0
 10
568.259643
 20
487.000000
 42
0.000000
  0
VERTEX
  8
0
 10
571.766519
 20
487.000000
 42
0.000000
  0
SEQEND
  0
POLYLINE
  8
0
 66
1
 70
1
  0
VERTEX
  8
0
 10
417.468336
 20
455.099765
 42
0.064068
  0
VERTEX
  8
0
 10
419.162027
 20
451.457754
 42
0.015845
  0
VERTEX
  8
0
 10
422.861230
 20
445.991524
 42
0.016733
  0
VERTEX
  8
0
 10
427.288213
 20
440.288521
 42
0.023075
  0
VERTEX
  8
0
 10
431.657915
 20
435.500000
 42
0.004825
  0
VERTEX
  8
0
 10
434.585714
 20
432.630713
 42
0.002113
  0
VERTEX
  8
0
 10
438.518945
 20
428.881659
 42
0.002091
  0
VERTEX
  8
0
 10
442.727762
 20
424.936929
 42
0.002796
  0
VERTEX
  8
0
 10
446.581616
 20
421.395008
 42
-0.015415
  0
VERTEX
  8
0
 10
453.290661
 20
414.909191
 42
-0.046069
  0
VERTEX
  8
0
 10
457.297682
 20
409.948108
 42
-0.077796
  0
VERTEX
  8
0
 10
459.047890
 20
406.152522
 42
-0.231021
  0
VERTEX
  8
0
 10
458.556052
 20
403.407543
 42
-0.096169
  0
VERTEX
  8
0
 10
457.526638
 20
402.453003
 42
-0.080104
  0
VERTEX
  8
0
 10
456.147769
 20
401.876419
 42
-0.047368
  0
VERTEX
  8
0
 10
454.071913
 20
401.580649
 42
-0.011716
  0
VERTEX
  8
0
 10
450.630607
 20
401.500000
 42
-0.012742
  0
VERTEX
  8
0
 10
446.523801
 20
401.604678
 42
-0.080896
  0
VERTEX
  8
0
 10
444.489218
 20
402.043456
 42
-0.093933
  0
VERTEX
  8
0
 10
442.834804
 20
403.083372
 42
-0.020125
  0
VERTEX
  8
0
 10
440.434194
 20
405.500000
 42
-0.009087
  0
VERTEX
  8
0
 10
438.809003
 20
407.339374
 42
-0.005493
  0
VERTEX
  8
0
 10
436.948195
 20
409.573438
 42
-0.005501
  0
VERTEX
  8
0
 10
435.148367
 20
411.833539
 42
-0.009615
  0
VERTEX
  8
0
 10
433.714679
 20
413.750000
 42
0.012011
  0
VERTEX
  8
0
 10
432.484383
 20
415.378253
 42
0.017343
  0
VERTEX
  8
0
 10
431.314037
 20
416.751562
 42
0.013116
  0
VERTEX
  8
0
 10
430.294726
 20
417.809745
 42
0.196958
  0
VERTEX
  8
0
 10
429.830480
 20
418.000000
 42
0.448517
  0
VERTEX
  8
0
 10
428.934663
 20
416.994058
 42
0.062930
  0
VERTEX
  8
0
 10
429.686527
 20
413.939933
 42
0.042519
  0
VERTEX
  8
0
 10
431.715828
 20
409.760970
 42
0.028225
  0
VERTEX
  8
0
 10
434.698284
 20
405.339963
 42
-0.022256
  0
VERTEX
  8
0
 10
435.561277
 20
404.093062
 42
-0.036928
  0
VERTEX
  8
0
 10
436.159576
 20
402.963445
 42
-0.043666
  0
VERTEX
  8
0
 10
436.459725
 20
402.075543
 42
-0.325158
  0
VERTEX
  8
0
 10
436.300071
 20
401.687188
 42
-0.111943
  0
VERTEX
  8
0
 10
434.421645
 20
401.045783
 42
-0.001940
  0
VERTEX
  8
0
 10
423.611285
 20
399.937025
 42
-0.001133
  0
VERTEX
  8
0
 10
412.463132
 20
398.862827
 42
-0.223407
  0
VERTEX
  8
0
 10
411.432539
 20
399.234128
 42
-0.219544
  0
VERTEX
  8
0
 10
411.252254
 20
399.723206
 42
-0.003685
  0
VERTEX
  8
0
 10
411.507165
 20
402.665130
 42
-0.008711
  0
VERTEX
  8
0
 10
411.894378
 20
406.132154
 42
-0.005588
  0
VERTEX
  8
0
 10
412.458727
 20
410.141994
 42
0.013545
  0
VERTEX
  8
0
 10
413.109014
 20
415.363118
 42
0.004882
  0
VERTEX
  8
0
 10
413.759695
 20
422.818273
 42
0.004838
  0
VERTEX
  8
0
 10
414.314010
 20
431.003500
 42
0.005727
  0
VERTEX
  8
0
 10
414.674382
 20
438.750000
 42
-0.004030
  0
VERTEX
  8
0
 10
415.150790
 20
449.798599
 42
-0.029533
  0
VERTEX
  8
0
 10
415.732585
 20
455.056555
 42
-0.360808
  0
VERTEX
  8
0
 10
416.551590
 20
455.759096
 42
-0.331369
  0
SEQEND
  0
POLYLINE
  8
0
 66
1
 70
1
  0
VERTEX
  8
0
 10
284.000000
 20
420.899704
 42
0.096263
  0
VERTEX
  8
0
 10
285.339734
 20
419.806606
 42
0.040115
  0
VERTEX
  8
0
 10
287.486366
 20
418.867883
 42
0.038357
  0
VERTEX
  8
0
 10
289.975400
 20
418.218048
 42
0.044705
  0
VERTEX
  8
0
 10
292.409259
 20
418.000000
 42
-0.015771
  0
VERTEX
  8
0
 10
294.611323
 20
417.930526
 42
-0.186707
  0
VERTEX
  8
0
 10
295.373645
 20
417.578839
 42
-0.222199
  0
VERTEX
  8
0
 10
295.628894
 20
416.838714
 42
-0.023055
  0
VERTEX
  8
0
 10
295.343963
 20
414.969816
 42
0.059601
  0
VERTEX
  8
0
 10
295.204305
 20
413.190639
 42
0.107432
  0
VERTEX
  8
0
 10
295.571316
 20
411.781370
 42
0.070589
  0
VERTEX
  8
0
 10
296.618381
 20
410.282467
 42
0.014917
  0
VERTEX
  8
0
 10
298.868963
 20
408.009871
 42
-0.010088
  0
VERTEX
  8
0
 10
300.451588
 20
406.442336
 42
-0.014400
  0
VERTEX
  8
0
 10
301.786508
 20
404.983919
 42
-0.010262
  0
VERTEX
  8
0
 10
302.823937
 20
403.731783
 42
-0.169437
  0
VERTEX
  8
0
 10
303.000000
 20
403.227146
 42
-0.154501
  0
VERTEX
  8
0
 10
302.848128
 20
402.747388
 42
-0.015926
  0
VERTEX
  8
0
 10
302.125540
 20
401.786955
 42
-0.018639
  0
VERTEX
  8
0
 10
301.163256
 20
400.676718
 42
-0.013853
  0
VERTEX
  8
0
 10
300.023115
 20
399.522146
 42
0.053408
  0
VERTEX
  8
0
 10
297.649895
 20
396.705127
 42
0.063030
  0
VERTEX
  8
0
 10
296.080203
 20
393.595680
 42
0.070745
  0
VERTEX
  8
0
 10
295.457873
 20
390.531056
 42
0.105997
  0
VERTEX
  8
0
 10
295.870194
 20
387.841416
 42
-0.043787
  0
VERTEX
  8
0
 10
296.199223
 20
386.678835
 42
-0.053102
  0
VERTEX
  8
0
 10
296.292174
 20
385.550320
 42
-0.056870
  0
VERTEX
  8
0
 10
296.146117
 20
384.495104
 42
-0.064853
  0
VERTEX
  8
0
 10
295.767485
 20
383.549001
 42
0.097561
  0
VERTEX
  8
0
 10
295.375652
 20
382.349352
 42
0.017759
  0
VERTEX
  8
0
 10
295.174526
 20
380.007681
 42
0.017581
  0
VERTEX
  8
0
 10
295.130750
 20
377.090976
 42
0.012071
  0
VERTEX
  8
0
 10
295.277265
 20
373.785266
 42
0.012656
  0
VERTEX
  8
0
 10
295.679367
 20
369.508517
 42
0.037875
  0
VERTEX
  8
0
 10
296.247424
 20
366.628931
 42
0.048864
  0
VERTEX
  8
0
 10
297.147387
 20
364.295726
 42
0.035071
  0
VERTEX
  8
0
 10
298.575140
 20
361.891572
 42
0.000000
  0
VERTEX
  8
0
 10
301.330305
 20
357.915868
 42
0.000000
  0
VERTEX
  8
0
 10
299.527306
 20
354.207934
 42
0.016035
  0
VERTEX
  8
0
 10
298.652992
 20
352.252855
 42
0.004882
  0
VERTEX
  8
0
 10
297.453869
 20
349.239206
 42
0.004883
  0
VERTEX
  8
0
 10
296.175694
 20
345.834784
 42
0.005312
  0
VERTEX
  8
0
 10
295.000668
 20
342.500000
 42
-0.007908
  0
VERTEX
  8
0
 10
293.146192
 20
337.322807
 42
-0.076207
  0
VERTEX
  8
0
 10
292.004258
 20
335.290364
 42
-0.115176
  0
VERTEX
  8
0
 10
290.462877
 20
334.050427
 42
-0.027124
  0
VERTEX
  8
0
 10
287.388515
 20
332.772787
 42
-0.029833
  0
VERTEX
  8
0
 10
284.894285
 20
332.055612
 42
-0.022347
  0
VERTEX
  8
0
 10
282.079140
 20
331.555998
 42
-0.021286
  0
VERTEX
  8
0
 10
279.072177
 20
331.289510
 42
-0.020195
  0
VERTEX
  8
0
 10
276.000000
 20
331.272787
 42
0.000000
  0
VERTEX
  8
0
 10
269.500000
 20
331.500000
 42
0.000000
  0
VERTEX
  8
0
 10
268.460507
 20
335.809879
 42
0.099591
  0
VERTEX
  8
0
 10
266.590680
 20
339.831662
 42
0.081978
  0
VERTEX
  8
0
 10
263.198227
 20
343.144217
 42
0.036422
  0
VERTEX
  8
0
 10
256.765129
 20
346.974908
 42
0.004818
  0
VERTEX
  8
0
 10
242.512319
 20
353.941379
 42
-0.001271
  0
VERTEX
  8
0
 10
235.313103
 20
357.397140
 42
-0.001905
  0
VERTEX
  8
0
 10
229.047472
 20
360.453876
 42
-0.000770
  0
VERTEX
  8
0
 10
223.689629
 20
363.103322
 42
-0.042373
  0
VERTEX
  8
0
 10
222.729143
 20
363.686236
 42
0.022243
  0
VERTEX
  8
0
 10
222.064473
 20
364.127133
 42
0.006439
  0
VERTEX
  8
0
 10
221.000993
 20
364.747865
 42
0.006461
  0
VERTEX
  8
0
 10
219.783208
 20
365.417155
 42
0.006854
  0
VERTEX
  8
0
 10
218.572110
 20
366.041371
 42
-0.039822
  0
VERTEX
  8
0
 10
217.125231
 20
366.912209
 42
-0.012225
  0
VERTEX
  8
0
 10
215.087793
 20
368.447769
 42
-0.012148
  0
VERTEX
  8
0
 10
212.883107
 20
370.284460
 42
-0.013025
  0
VERTEX
  8
0
 10
210.822110
 20
372.185076
 42
-0.033235
  0
VERTEX
  8
0
 10
207.765460
 20
375.577592
 42
-0.089829
  0
VERTEX
  8
0
 10
206.252123
 20
378.430288
 42
-0.117733
  0
VERTEX
  8
0
 10
206.050030
 20
381.149728
 42
-0.082986
  0
VERTEX
  8
0
 10
207.035184
 20
384.065741
 42
-0.074633
  0
VERTEX
  8
0
 10
208.106236
 20
385.503115
 42
-0.245662
  0
VERTEX
  8
0
 10
209.201030
 20
385.841338
 42
-0.143201
  0
VERTEX
  8
0
 10
210.547146
 20
385.163280
 42
-0.022977
  0
VERTEX
  8
0
 10
212.625439
 20
383.036077
 42
0.021060
  0
VERTEX
  8
0
 10
214.074260
 20
381.541749
 42
0.087784
  0
VERTEX
  8
0
 10
215.116801
 20
380.853296
 42
0.138706
  0
VERTEX
  8
0
 10
216.071370
 20
380.725728
 42
0.087370
  0
VERTEX
  8
0
 10
217.147235
 20
381.078798
 42
0.096950
  0
VERTEX
  8
0
 10
219.584902
 20
383.069038
 42
0.046663
  0
VERTEX
  8
0
 10
221.870441
 20
386.413037
 42
0.046728
  0
VERTEX
  8
0
 10
223.482535
 20
390.092903
 42
0.104436
  0
VERTEX
  8
0
 10
223.820401
 20
393.113396
 42
0.098835
  0
VERTEX
  8
0
 10
223.085782
 20
395.541859
 42
0.079458
  0
VERTEX
  8
0
 10
221.432419
 20
397.719619
 42
0.034895
  0
VERTEX
  8
0
 10
218.091540
 20
400.494339
 42
0.004496
  0
VERTEX
  8
0
 10
210.487554
 20
405.858078
 42
-0.011465
  0
VERTEX
  8
0
 10
208.180727
 20
407.533905
 42
-0.056849
  0
VERTEX
  8
0
 10
207.025418
 20
408.642508
 42
-0.167116
  0
VERTEX
  8
0
 10
206.735821
 20
409.408914
 42
-0.284933
  0
VERTEX
  8
0
 10
207.067432
 20
409.981364
 42
-0.095267
  0
VERTEX
  8
0
 10
208.125336
 20
410.309347
 42
-0.004035
  0
VERTEX
  8
0
 10
212.044808
 20
410.712918
 42
-0.006812
  0
VERTEX
  8
0
 10
216.723804
 20
411.092322
 42
-0.004782
  0
VERTEX
  8
0
 10
222.000000
 20
411.397214
 42
0.006159
  0
VERTEX
  8
0
 10
228.541010
 20
411.793274
 42
0.002644
  0
VERTEX
  8
0
 10
237.262500
 20
412.475658
 42
0.002616
  0
VERTEX
  8
0
 10
246.546357
 20
413.300388
 42
0.003450
  0
VERTEX
  8
0
 10
255.000000
 20
414.154844
 42
0.005405
  0
VERTEX
  8
0
 10
267.456520
 20
415.637176
 42
0.034541
  0
VERTEX
  8
0
 10
273.687759
 20
416.889335
 42
0.083167
  0
VERTEX
  8
0
 10
276.902747
 20
418.376706
 42
0.247775
  0
VERTEX
  8
0
 10
278.000000
 20
420.454988
 42
-0.079523
  0
VERTEX
  8
0
 10
278.083726
 20
420.978082
 42
-0.037914
  0
VERTEX
  8
0
 10
278.345511
 20
421.609163
 42
-0.036347
  0
VERTEX
  8
0
 10
278.726082
 20
422.241653
 42
-0.042793
  0
VERTEX
  8
0
 10
279.176206
 20
422.776206
 42
-0.163628
  0
VERTEX
  8
0
 10
280.131956
 20
423.250941
 42
-0.127593
  0
VERTEX
  8
0
 10
281.290781
 20
423.114524
 42
-0.086033
  0
VERTEX
  8
0
 10
282.606349
 20
422.321206
 42
-0.040527
  0
SEQEND
  0
POLYLINE
  8
0
 66
1
 70
1
  0
VERTEX
  8
0
 10
309.790493
 20
420.005255
 42
0.059095
  0
VERTEX
  8
0
 10
311.311858
 20
419.141116
 42
0.027676
  0
VERTEX
  8
0
 10
313.447680
 20
418.377973
 42
0.025151
  0
VERTEX
  8
0
 10
315.970087
 20
417.767267
 42
0.021001
  0
VERTEX
  8
0
 10
318.697604
 20
417.368275
 42
-0.006733
  0
VERTEX
  8
0
 10
322.651740
 20
416.904627
 42
-0.096766
  0
VERTEX
  8
0
 10
323.987517
 20
416.457335
 42
-0.245846
  0
VERTEX
  8
0
 10
324.500301
 20
415.661909
 42
-0.066259
  0
VERTEX
  8
0
 10
324.435461
 20
414.113020
 42
0.090245
  0
VERTEX
  8
0
 10
324.447877
 20
411.987377
 42
0.111139
  0
VERTEX
  8
0
 10
325.231328
 20
410.170989
 42
0.062067
  0
VERTEX
  8
0
 10
327.117466
 20
408.156727
 42
0.012289
  0
VERTEX
  8
0
 10
331.000000
 20
405.082774
 42
-0.008149
  0
VERTEX
  8
0
 10
332.852689
 20
403.640720
 42
-0.007639
  0
VERTEX
  8
0
 10
334.698255
 20
402.108241
 42
-0.007631
  0
VERTEX
  8
0
 10
336.293899
 20
400.698788
 42
-0.025883
  0
VERTEX
  8
0
 10
337.270657
 20
399.711941
 42
0.019834
  0
VERTEX
  8
0
 10
338.431415
 20
398.510477
 42
0.186327
  0
VERTEX
  8
0
 10
339.082482
 20
398.239394
 42
0.175073
  0
VERTEX
  8
0
 10
339.768215
 20
398.467039
 42
0.017103
  0
VERTEX
  8
0
 10
341.123036
 20
399.611346
 42
0.072286
  0
VERTEX
  8
0
 10
344.509370
 20
403.706707
 42
0.174745
  0
VERTEX
  8
0
 10
345.280843
 20
407.500916
 42
0.162898
  0
VERTEX
  8
0
 10
343.460799
 20
411.098507
 42
0.061034
  0
VERTEX
  8
0
 10
338.928380
 20
414.598449
 42
-0.010079
  0
VERTEX
  8
0
 10
335.423628
 20
416.775305
 42
-0.120923
  0
VERTEX
  8
0
 10
334.342049
 20
417.926662
 42
-0.337047
  0
VERTEX
  8
0
 10
334.474314
 20
418.888211
 42
-0.073262
  0
VERTEX
  8
0
 10
335.909539
 20
419.951587
 42
-0.079653
  0
VERTEX
  8
0
 10
337.018602
 20
420.334479
 42
-0.068485
  0
VERTEX
  8
0
 10
338.252864
 20
420.379799
 42
-0.051696
  0
VERTEX
  8
0
 10
339.739809
 20
420.073183
 42
-0.022285
  0
VERTEX
  8
0
 10
341.642359
 20
419.376072
 42
0.044595
  0
VERTEX
  8
0
 10
343.866564
 20
418.671811
 42
0.024475
  0
VERTEX
  8
0
 10
346.685177
 20
418.192108
 42
0.020361
  0
VERTEX
  8
0
 10
350.117973
 20
417.920630
 42
0.011904
  0
VERTEX
  8
0
 10
354.243985
 20
417.861232
 42
0.000000
  0
VERTEX
  8
0
 10
363.022330
 20
417.943862
 42
0.000000
  0
VERTEX
  8
0
 10
361.511165
 20
415.021591
 42
0.084674
  0
VERTEX
  8
0
 10
360.306511
 20
411.238846
 42
0.042000
  0
VERTEX
  8
0
 10
360.026784
 20
406.195777
 42
0.041651
  0
VERTEX
  8
0
 10
360.603667
 20
401.057058
 42
0.069285
  0
VERTEX
  8
0
 10
362.027162
 20
396.946758
 42
0.091021
  0
VERTEX
  8
0
 10
366.031633
 20
391.714904
 42
0.080094
  0
VERTEX
  8
0
 10
371.803487
 20
387.965280
 42
0.066159
  0
VERTEX
  8
0
 10
379.454753
 20
385.730708
 42
0.038025
  0
VERTEX
  8
0
 10
389.049221
 20
385.000000
 42
-0.016035
  0
VERTEX
  8
0
 10
394.229948
 20
384.833816
 42
-0.256360
  0
VERTEX
  8
0
 10
395.660381
 20
383.924917
 42
-0.207647
  0
VERTEX
  8
0
 10
395.831611
 20
382.096297
 42
-0.010576
  0
VERTEX
  8
0
 10
393.812766
 20
376.338984
 42
-0.036398
  0
VERTEX
  8
0
 10
390.103958
 20
368.277163
 42
-0.043767
  0
VERTEX
  8
0
 10
385.453128
 20
361.352284
 42
-0.049168
  0
VERTEX
  8
0
 10
380.650112
 20
356.469396
 42
-0.175620
  0
VERTEX
  8
0
 10
376.595683
 20
355.000000
 42
-0.060605
  0
VERTEX
  8
0
 10
375.348175
 20
355.151768
 42
-0.012012
  0
VERTEX
  8
0
 10
373.173474
 20
355.744625
 42
-0.012559
  0
VERTEX
  8
0
 10
370.659847
 20
356.564489
 42
-0.011389
  0
VERTEX
  8
0
 10
368.106401
 20
357.534895
 42
0.020430
  0
VERTEX
  8
0
 10
365.006014
 20
358.649445
 42
0.008331
  0
VERTEX
  8
0
 10
360.708973
 20
359.920445
 42
0.008226
  0
VERTEX
  8
0
 10
356.040029
 20
361.134886
 42
0.010400
  0
VERTEX
  8
0
 10
351.683993
 20
362.096275
 42
-0.008829
  0
VERTEX
  8
0
 10
333.529257
 20
366.043300
 42
-0.016510
  0
VERTEX
  8
0
 10
319.018723
 20
369.977354
 42
-0.015970
  0
VERTEX
  8
0
 10
308.118210
 20
373.707476
 42
-0.136497
  0
VERTEX
  8
0
 10
303.996812
 20
376.731182
 42
-0.025652
  0
VERTEX
  8
0
 10
302.424597
 20
378.955839
 42
-0.422838
  0
VERTEX
  8
0
 10
302.616589
 20
379.753692
 42
-0.280258
  0
VERTEX
  8
0
 10
303.657953
 20
379.741276
 42
-0.019558
  0
VERTEX
  8
0
 10
306.180931
 20
378.024353
 42
0.000000
  0
VERTEX
  8
0
 10
309.337265
 20
375.690775
 42
0.000000
  0
VERTEX
  8
0
 10
311.668632
 20
378.401151
 42
0.079701
  0
VERTEX
  8
0
 10
313.644353
 20
381.614261
 42
0.153126
  0
VERTEX
  8
0
 10
313.908562
 20
384.597289
 42
0.118235
  0
VERTEX
  8
0
 10
312.392110
 20
387.729148
 42
0.038063
  0
VERTEX
  8
0
 10
308.803494
 20
391.486768
 42
0.000000
  0
VERTEX
  8
0
 10
303.606987
 20
396.158874
 42
0.000000
  0
VERTEX
  8
0
 10
308.243374
 20
400.415810
 42
0.031641
  0
VERTEX
  8
0
 10
312.085780
 20
404.420032
 42
0.125015
  0
VERTEX
  8
0
 10
313.567719
 20
407.466241
 42
0.179892
  0
VERTEX
  8
0
 10
313.148390
 20
410.204852
 42
0.082226
  0
VERTEX
  8
0
 10
310.863279
 20
413.077368
 42
0.006680
  0
VERTEX
  8
0
 10
309.410740
 20
414.354835
 42
0.005489
  0
VERTEX
  8
0
 10
307.827026
 20
415.680728
 42
0.005548
  0
VERTEX
  8
0
 10
306.344991
 20
416.866853
 42
0.014626
  0
VERTEX
  8
0
 10
305.250000
 20
417.672969
 42
-0.038005
  0
VERTEX
  8
0
 10
304.389064
 20
418.371064
 42
-0.040173
  0
VERTEX
  8
0
 10
303.660937
 20
419.179477
 42
-0.043640
  0
VERTEX
  8
0
 10
303.156222
 20
419.974466
 42
-0.120184
  0
VERTEX
  8
0
 10
303.000000
 20
420.615010
 42
-0.286307
  0
VERTEX
  8
0
 10
303.638286
 20
421.638326
 42
-0.137090
  0
VERTEX
  8
0
 10
305.222618
 20
421.931418
 42
-0.082029
  0
VERTEX
  8
0
 10
307.476045
 20
421.348225
 42
-0.054472
  0
SEQEND
  0
POLYLINE
  8
0
 66
1
 70
1
  0
VERTEX
  8
0
 10
552.208499
 20
406.250000
 42
0.004680
  0
VERTEX
  8
0
 10
552.540775
 20
398.002375
 42
0.022162
  0
VERTEX
  8
0
 10
552.984311
 20
393.294943
 42
0.037310
  0
VERTEX
  8
0
 10
553.709150
 20
389.941045
 42
0.039979
  0
VERTEX
  8
0
 10
554.913269
 20
386.811924
 42
0.044204
  0
VERTEX
  8
0
 10
557.120707
 20
383.092424
 42
0.088809
  0
VERTEX
  8
0
 10
559.564307
 20
380.724443
 42
0.083513
  0
VERTEX
  8
0
 10
562.781145
 20
379.265099
 42
0.035580
  0
VERTEX
  8
0
 10
567.440880
 20
378.378003
 42
0.000000
  0
VERTEX
  8
0
 10
573.000000
 20
377.724637
 42
0.000000
  0
VERTEX
  8
0
 10
573.000000
 20
361.820160
 42
-0.015320
  0
VERTEX
  8
0
 10
572.585056
 20
348.280640
 42
-0.028607
  0
VERTEX
  8
0
 10
571.289075
 20
337.392739
 42
-0.033040
  0
VERTEX
  8
0
 10
569.310735
 20
329.368537
 42
-0.170186
  0
VERTEX
  8
0
 10
566.600296
 20
325.765313
 42
-0.111829
  0
VERTEX
  8
0
 10
565.343962
 20
325.283802
 42
-0.021025
  0
VERTEX
  8
0
 10
562.879946
 20
325.033536
 42
-0.014850
  0
VERTEX
  8
0
 10
560.413381
 20
324.960802
 42
-0.414150
  0
VERTEX
  8
0
 10
560.000000
 20
325.374273
 42
-0.076837
  0
VERTEX
  8
0
 10
560.041331
 20
325.641636
 42
-0.001707
  0
VERTEX
  8
0
 10
560.440625
 20
326.887468
 42
-0.003828
  0
VERTEX
  8
0
 10
560.925204
 20
328.343724
 42
-0.002574
  0
VERTEX
  8
0
 10
561.500000
 20
330.000000
 42
0.043982
  0
VERTEX
  8
0
 10
562.738160
 20
334.823298
 42
0.052539
  0
VERTEX
  8
0
 10
563.011888
 20
339.505965
 42
0.060349
  0
VERTEX
  8
0
 10
562.344100
 20
343.463941
 42
0.130079
  0
VERTEX
  8
0
 10
560.750000
 20
346.085096
 42
0.062158
  0
VERTEX
  8
0
 10
557.642909
 20
348.405870
 42
0.035157
  0
VERTEX
  8
0
 10
553.398824
 20
350.440798
 42
0.028042
  0
VERTEX
  8
0
 10
547.889592
 20
352.271016
 42
0.014631
  0
VERTEX
  8
0
 10
540.852053
 20
353.959025
 42
-0.008624
  0
VERTEX
  8
0
 10
526.995622
 20
357.107089
 42
-0.015067
  0
VERTEX
  8
0
 10
515.652025
 20
360.256030
 42
-0.014897
  0
VERTEX
  8
0
 10
506.992017
 20
363.229087
 42
-0.106627
  0
VERTEX
  8
0
 10
503.294824
 20
365.614267
 42
-0.044750
  0
VERTEX
  8
0
 10
502.416580
 20
366.665551
 42
-0.036880
  0
VERTEX
  8
0
 10
501.674105
 20
367.924685
 42
-0.038301
  0
VERTEX
  8
0
 10
501.164157
 20
369.192228
 42
-0.076633
  0
VERTEX
  8
0
 10
501.000000
 20
370.257001
 42
-0.102280
  0
VERTEX
  8
0
 10
501.264472
 20
371.536358
 42
-0.122067
  0
VERTEX
  8
0
 10
502.008500
 20
372.513790
 42
-0.068807
  0
VERTEX
  8
0
 10
503.481251
 20
373.396262
 42
-0.014914
  0
VERTEX
  8
0
 10
506.250000
 20
374.478468
 42
0.026844
  0
VERTEX
  8
0
 10
513.710536
 20
377.601608
 42
0.031568
  0
VERTEX
  8
0
 10
520.384339
 20
381.363155
 42
0.031237
  0
VERTEX
  8
0
 10
526.589090
 20
385.971458
 42
0.025332
  0
VERTEX
  8
0
 10
532.644270
 20
391.634241
 42
0.033346
  0
VERTEX
  8
0
 10
536.917113
 20
396.691192
 42
0.016836
  0
VERTEX
  8
0
 10
541.640004
 20
403.576652
 42
0.016834
  0
VERTEX
  8
0
 10
545.882303
 20
410.753077
 42
0.033865
  0
VERTEX
  8
0
 10
548.637814
 20
416.721690
 42
-0.014131
  0
VERTEX
  8
0
 10
549.317590
 20
418.361100
 42
-0.021332
  0
VERTEX
  8
0
 10
550.009247
 20
419.743246
 42
-0.017217
  0
VERTEX
  8
0
 10
550.644379
 20
420.800232
 42
-0.254089
  0
VERTEX
  8
0
 10
551.012107
 20
421.000000
 42
-0.387900
  0
VERTEX
  8
0
 10
551.320511
 20
420.718363
 42
-0.002433
  0
VERTEX
  8
0
 10
551.668959
 20
416.667188
 42
-0.007807
  0
VERTEX
  8
0
 10
551.980422
 20
411.905682
 42
-0.004700
  0
SEQEND
  0
POLYLINE
  8
0
 66
1
 70
1
  0
VERTEX
  8
0
 10
594.361834
 20
395.562536
 42
-0.210650
  0
VERTEX
  8
0
 10
593.875606
 20
394.205436
 42
-0.096192
  0
VERTEX
  8
0
 10
592.311262
 20
393.089258
 42
-0.083995
  0
VERTEX
  8
0
 10
590.219584
 20
392.532051
 42
-0.108088
  0
VERTEX
  8
0
 10
588.250000
 20
392.774718
 42
-0.302070
  0
VERTEX
  8
0
 10
587.334245
 20
393.988989
 42
-0.006843
  0
VERTEX
  8
0
 10
586.985412
 20
401.606262
 42
-0.012587
  0
VERTEX
  8
0
 10
586.934800
 20
408.936977
 42
-0.087255
  0
VERTEX
  8
0
 10
587.618697
 20
412.448724
 42
-0.669501
  0
VERTEX
  8
0
 10
588.441232
 20
412.468851
 42
-0.008853
  0
VERTEX
  8
0
 10
591.121475
 20
406.087398
 42
-0.012929
  0
VERTEX
  8
0
 10
593.575033
 20
399.449869
 42
-0.064344
  0
SEQEND
  0
POLYLINE
  8
0
 66
1
 70
1
  0
VERTEX
  8
0
 10
199.971040
 20
409.310287
 42
-0.236859
  0
VERTEX
  8
0
 10
200.057252
 20
409.093568
 42
-0.115422
  0
VERTEX
  8
0
 10
199.962232
 20
408.803299
 42
-0.075073
  0
VERTEX
  8
0
 10
199.690837
 20
408.478493
 42
-0.042853
  0
VERTEX
  8
0
 10
199.279595
 20
408.172799
 42
0.111012
  0
VERTEX
  8
0
 10
197.840619
 20
406.764307
 42
0.046200
  0
VERTEX
  8
0
 10
196.571891
 20
404.342995
 42
0.046160
  0
VERTEX
  8
0
 10
195.759325
 20
401.698028
 42
0.098994
  0
VERTEX
  8
0
 10
195.741342
 20
399.572750
 42
0.074531
  0
VERTEX
  8
0
 10
196.423788
 20
397.629112
 42
0.046453
  0
VERTEX
  8
0
 10
197.748172
 20
395.604571
 42
0.040963
  0
VERTEX
  8
0
 10
199.630041
 20
393.600722
 42
0.030982
  0
VERTEX
  8
0
 10
201.990975
 20
391.718875
 42
-0.064589
  0
VERTEX
  8
0
 10
203.118311
 20
390.689491
 42
-0.232152
  0
VERTEX
  8
0
 10
203.348515
 20
389.770956
 42
-0.087733
  0
VERTEX
  8
0
 10
202.816532
 20
388.460684
 42
-0.005422
  0
VERTEX
  8
0
 10
200.536054
 20
384.914833
 42
0.022455
  0
VERTEX
  8
0
 10
197.641957
 20
380.059034
 42
0.047542
  0
VERTEX
  8
0
 10
195.947609
 20
376.024151
 42
0.055592
  0
VERTEX
  8
0
 10
195.200489
 20
372.170191
 42
0.044080
  0
VERTEX
  8
0
 10
195.233129
 20
367.925576
 42
0.069305
  0
VERTEX
  8
0
 10
196.291642
 20
363.488482
 42
0.068470
  0
VERTEX
  8
0
 10
198.524875
 20
359.489423
 42
0.057051
  0
VERTEX
  8
0
 10
202.141011
 20
355.684807
 42
0.030182
  0
VERTEX
  8
0
 10
207.383181
 20
351.810475
 42
0.024550
  0
VERTEX
  8
0
 10
214.383908
 20
347.736473
 42
0.003423
  0
VERTEX
  8
0
 10
229.332239
 20
340.122586
 42
0.002561
  0
VERTEX
  8
0
 10
244.652593
 20
332.548755
 42
0.041641
  0
VERTEX
  8
0
 10
250.000000
 20
330.469937
 42
-0.029318
  0
VERTEX
  8
0
 10
253.993420
 20
329.029589
 42
-0.401725
  0
VERTEX
  8
0
 10
254.543727
 20
327.735342
 42
-0.179367
  0
VERTEX
  8
0
 10
253.194171
 20
326.187001
 42
-0.009184
  0
VERTEX
  8
0
 10
247.193991
 20
323.058974
 42
-0.004113
  0
VERTEX
  8
0
 10
233.147531
 20
316.204938
 42
-0.003032
  0
VERTEX
  8
0
 10
217.485280
 20
308.837683
 42
-0.002162
  0
VERTEX
  8
0
 10
203.058272
 20
302.233601
 42
-0.023305
  0
VERTEX
  8
0
 10
197.093450
 20
299.862505
 42
-0.037587
  0
VERTEX
  8
0
 10
192.382419
 20
298.626305
 42
-0.035289
  0
VERTEX
  8
0
 10
187.438515
 20
298.075608
 42
-0.037370
  0
VERTEX
  8
0
 10
182.919944
 20
298.230759
 42
-0.079793
  0
VERTEX
  8
0
 10
179.561076
 20
299.154126
 42
-0.163088
  0
VERTEX
  8
0
 10
175.253272
 20
303.174155
 42
-0.109399
  0
VERTEX
  8
0
 10
173.384363
 20
309.705964
 42
-0.079030
  0
VERTEX
  8
0
 10
174.223930
 20
318.335405
 42
-0.043586
  0
VERTEX
  8
0
 10
177.785590
 20
328.345568
 42
0.007408
  0
VERTEX
  8
0
 10
179.299725
 20
331.790229
 42
0.061610
  0
VERTEX
  8
0
 10
179.764081
 20
333.428132
 42
0.153191
  0
VERTEX
  8
0
 10
179.605088
 20
334.474276
 42
0.121741
  0
VERTEX
  8
0
 10
178.867817
 20
335.354704
 42
-0.099179
  0
VERTEX
  8
0
 10
178.077074
 20
336.217739
 42
-0.126520
  0
VERTEX
  8
0
 10
177.767235
 20
337.247388
 42
-0.060353
  0
VERTEX
  8
0
 10
177.895073
 20
338.842675
 42
-0.008893
  0
VERTEX
  8
0
 10
178.597532
 20
342.009137
 42
0.000850
  0
VERTEX
  8
0
 10
179.177857
 20
344.439497
 42
0.000577
  0
VERTEX
  8
0
 10
179.830794
 20
347.208934
 42
0.000581
  0
VERTEX
  8
0
 10
180.455103
 20
349.884691
 42
0.001166
  0
VERTEX
  8
0
 10
180.940860
 20
352.000000
 42
0.027069
  0
VERTEX
  8
0
 10
182.185760
 20
359.284209
 42
0.010405
  0
VERTEX
  8
0
 10
183.153068
 20
369.507936
 42
0.009762
  0
VERTEX
  8
0
 10
183.788469
 20
381.263081
 42
0.008620
  0
VERTEX
  8
0
 10
184.000000
 20
393.532630
 42
-0.002481
  0
VERTEX
  8
0
 10
184.047800
 20
403.167302
 42
-0.023598
  0
VERTEX
  8
0
 10
184.282892
 20
407.279287
 42
-0.063053
  0
VERTEX
  8
0
 10
184.780468
 20
409.402115
 42
-0.253052
  0
VERTEX
  8
0
 10
185.750000
 20
410.250613
 42
-0.065317
  0
VERTEX
  8
0
 10
188.038457
 20
410.463536
 42
-0.007088
  0
VERTEX
  8
0
 10
193.343563
 20
410.188221
 42
-0.003973
  0
VERTEX
  8
0
 10
198.878316
 20
409.778058
 42
-0.162692
  0
SEQEND
  0
POLYLINE
  8
0
 66
1
 70
1
  0
VERTEX
  8
0
 10
614.791381
 20
378.000000
 42
-0.008756
  0
VERTEX
  8
0
 10
614.751646
 20
362.533780
 42
-0.021796
  0
VERTEX
  8
0
 10
614.032091
 20
351.246929
 42
-0.029681
  0
VERTEX
  8
0
 10
612.629207
 20
342.904059
 42
-0.069502
  0
VERTEX
  8
0
 10
610.377958
 20
337.007645
 42
-0.057515
  0
VERTEX
  8
0
 10
607.484040
 20
332.940284
 42
-0.045576
  0
VERTEX
  8
0
 10
603.520514
 20
329.274410
 42
-0.047133
  0
VERTEX
  8
0
 10
599.170033
 20
326.540090
 42
-0.083591
  0
VERTEX
  8
0
 10
595.134646
 20
325.291234
 42
-0.023933
  0
VERTEX
  8
0
 10
592.869251
 20
325.097127
 42
-0.104227
  0
VERTEX
  8
0
 10
591.549276
 20
325.323827
 42
-0.118548
  0
VERTEX
  8
0
 10
590.522040
 20
326.047584
 42
-0.035213
  0
VERTEX
  8
0
 10
589.350494
 20
327.586692
 42
-0.088162
  0
VERTEX
  8
0
 10
588.333390
 20
329.963454
 42
-0.033977
  0
VERTEX
  8
0
 10
587.757683
 20
333.518238
 42
-0.016499
  0
VERTEX
  8
0
 10
587.406378
 20
339.402099
 42
-0.002442
  0
VERTEX
  8
0
 10
587.147411
 20
351.302293
 42
-0.003563
  0
VERTEX
  8
0
 10
586.997808
 20
366.646825
 42
-0.055948
  0
VERTEX
  8
0
 10
587.567641
 20
371.846472
 42
-0.387893
  0
VERTEX
  8
0
 10
589.154961
 20
372.955429
 42
-0.159562
  0
VERTEX
  8
0
 10
591.733333
 20
371.720411
 42
0.020933
  0
VERTEX
  8
0
 10
595.030318
 20
368.821153
 42
0.011201
  0
VERTEX
  8
0
 10
599.325626
 20
365.507882
 42
0.005575
  0
VERTEX
  8
0
 10
603.628440
 20
362.413354
 42
0.154291
  0
VERTEX
  8
0
 10
604.936073
 20
362.000000
 42
0.212345
  0
VERTEX
  8
0
 10
606.285005
 20
362.599929
 42
0.035715
  0
VERTEX
  8
0
 10
608.065561
 20
364.882587
 42
0.038562
  0
VERTEX
  8
0
 10
609.547485
 20
367.507435
 42
0.109656
  0
VERTEX
  8
0
 10
610.000000
 20
369.545965
 42
0.146669
  0
VERTEX
  8
0
 10
609.428983
 20
371.450707
 42
0.053857
  0
VERTEX
  8
0
 10
607.622048
 20
373.639446
 42
0.043037
  0
VERTEX
  8
0
 10
604.816783
 20
375.940768
 42
0.025521
  0
VERTEX
  8
0
 10
601.126024
 20
378.203490
 42
-0.075277
  0
VERTEX
  8
0
 10
598.968694
 20
379.840843
 42
-0.171659
  0
VERTEX
  8
0
 10
598.125640
 20
381.672776
 42
-0.162535
  0
VERTEX
  8
0
 10
598.602257
 20
383.699654
 42
-0.065946
  0
VERTEX
  8
0
 10
600.419182
 20
385.924075
 42
0.045656
  0
VERTEX
  8
0
 10
601.496476
 20
387.139171
 42
0.018068
  0
VERTEX
  8
0
 10
602.754369
 20
388.985835
 42
0.017704
  0
VERTEX
  8
0
 10
603.977450
 20
391.090441
 42
0.021198
  0
VERTEX
  8
0
 10
604.971604
 20
393.155629
 42
-0.012707
  0
VERTEX
  8
0
 10
606.385254
 20
396.224488
 42
-0.110532
  0
VERTEX
  8
0
 10
607.320709
 20
397.387807
 42
-0.157041
  0
VERTEX
  8
0
 10
608.526858
 20
397.844337
 42
-0.033313
  0
VERTEX
  8
0
 10
610.802422
 20
397.807240
 42
0.000000
  0
VERTEX
  8
0
 10
614.500000
 20
397.500000
 42
0.000000
  0
SEQEND
  0
POLYLINE
  8
0
 66
1
 70
1
  0
VERTEX
  8
0
 10
460.802743
 20
385.845315
 42
0.000000
  0
VERTEX
  8
0
 10
467.105486
 20
383.445696
 42
0.000000
  0
VERTEX
  8
0
 10
464.136401
 20
379.346994
 42
0.034056
  0
VERTEX
  8
0
 10
459.828039
 20
372.457092
 42
0.035379
  0
VERTEX
  8
0
 10
456.556463
 20
365.131347
 42
0.035025
  0
VERTEX
  8
0
 10
454.324567
 20
357.348058
 42
0.032034
  0
VERTEX
  8
0
 10
453.117520
 20
349.093287
 42
0.000000
  0
VERTEX
  8
0
 10
452.500000
 20
341.500369
 42
0.000000
  0
VERTEX
  8
0
 10
446.000000
 20
339.406902
 42
0.027225
  0
VERTEX
  8
0
 10
438.252786
 20
336.437489
 42
0.019342
  0
VERTEX
  8
0
 10
429.911869
 20
332.313996
 42
0.018278
  0
VERTEX
  8
0
 10
421.367302
 20
327.257368
 42
0.016997
  0
VERTEX
  8
0
 10
413.000000
 20
321.472519
 42
-0.026835
  0
VERTEX
  8
0
 10
389.389800
 20
305.826448
 42
-0.043877
  0
VERTEX
  8
0
 10
367.723072
 20
295.523166
 42
-0.051680
  0
VERTEX
  8
0
 10
347.510205
 20
290.299087
 42
-0.066084
  0
VERTEX
  8
0
 10
328.300586
 20
289.959557
 42
-0.027850
  0
VERTEX
  8
0
 10
322.275729
 20
290.993699
 42
-0.024802
  0
VERTEX
  8
0
 10
316.160526
 20
292.720878
 42
-0.017685
  0
VERTEX
  8
0
 10
310.961908
 20
294.679022
 42
-0.302556
  0
VERTEX
  8
0
 10
310.000000
 20
296.123144
 42
-0.320069
  0
VERTEX
  8
0
 10
310.243611
 20
296.464718
 42
-0.032539
  0
VERTEX
  8
0
 10
311.260158
 20
296.742424
 42
-0.031169
  0
VERTEX
  8
0
 10
312.645561
 20
296.936674
 42
-0.019249
  0
VERTEX
  8
0
 10
314.289901
 20
297.000000
 42
0.056867
  0
VERTEX
  8
0
 10
321.918475
 20
297.870442
 42
0.047305
  0
VERTEX
  8
0
 10
329.668438
 20
300.453859
 42
0.025824
  0
VERTEX
  8
0
 10
340.211535
 20
305.782045
 42
0.004772
  0
VERTEX
  8
0
 10
359.000000
 20
316.768222
 42
0.021293
  0
VERTEX
  8
0
 10
368.947117
 20
323.302904
 42
0.078315
  0
VERTEX
  8
0
 10
374.282015
 20
328.581904
 42
0.096015
  0
VERTEX
  8
0
 10
377.160976
 20
334.651308
 42
0.041808
  0
VERTEX
  8
0
 10
378.658211
 20
343.484875
 42
-0.008885
  0
VERTEX
  8
0
 10
379.111974
 20
347.913700
 42
-0.070829
  0
VERTEX
  8
0
 10
379.641571
 20
349.894201
 42
-0.122060
  0
VERTEX
  8
0
 10
380.602750
 20
351.170097
 42
-0.047096
  0
VERTEX
  8
0
 10
382.459548
 20
352.408282
 42
0.061604
  0
VERTEX
  8
0
 10
388.107680
 20
356.415443
 42
0.037395
  0
VERTEX
  8
0
 10
393.734140
 20
362.383598
 42
0.033906
  0
VERTEX
  8
0
 10
399.002181
 20
369.866778
 42
0.028207
  0
VERTEX
  8
0
 10
403.576050
 20
378.458229
 42
-0.027802
  0
VERTEX
  8
0
 10
406.327718
 20
383.636993
 42
-0.161617
  0
VERTEX
  8
0
 10
408.647923
 20
385.616565
 42
-0.071101
  0
VERTEX
  8
0
 10
412.475120
 20
386.569050
 42
-0.002759
  0
VERTEX
  8
0
 10
427.000000
 20
387.974135
 42
-0.004375
  0
VERTEX
  8
0
 10
441.427139
 20
389.162260
 42
-0.034091
  0
VERTEX
  8
0
 10
448.171717
 20
389.197749
 42
-0.054495
  0
VERTEX
  8
0
 10
453.562498
 20
388.262516
 42
-0.020783
  0
SEQEND
  0
POLYLINE
  8
0
 66
1
 70
1
  0
VERTEX
  8
0
 10
483.374290
 20
380.100108
 42
-0.014991
  0
VERTEX
  8
0
 10
488.457848
 20
378.721288
 42
-0.074087
  0
VERTEX
  8
0
 10
491.130995
 20
377.453849
 42
-0.137039
  0
VERTEX
  8
0
 10
492.485093
 20
375.871315
 42
-0.107177
  0
VERTEX
  8
0
 10
492.984687
 20
373.656380
 42
0.095953
  0
VERTEX
  8
0
 10
493.134842
 20
372.914217
 42
0.074773
  0
VERTEX
  8
0
 10
493.558992
 20
372.206968
 42
0.073054
  0
VERTEX
  8
0
 10
494.184105
 20
371.641358
 42
0.083655
  0
VERTEX
  8
0
 10
494.918263
 20
371.311124
 42
-0.133569
  0
VERTEX
  8
0
 10
495.916170
 20
370.737977
 42
-0.136858
  0
VERTEX
  8
0
 10
496.474980
 20
369.743298
 42
-0.058083
  0
VERTEX
  8
0
 10
496.701289
 20
367.924542
 42
-0.008260
  0
VERTEX
  8
0
 10
496.668263
 20
364.154743
 42
0.015042
  0
VERTEX
  8
0
 10
496.685397
 20
360.587752
 42
0.041534
  0
VERTEX
  8
0
 10
496.980710
 20
358.094713
 42
0.051928
  0
VERTEX
  8
0
 10
497.633703
 20
356.018289
 42
0.036988
  0
VERTEX
  8
0
 10
498.765740
 20
353.856498
 42
-0.020105
  0
VERTEX
  8
0
 10
499.951612
 20
351.766620
 42
-0.077184
  0
VERTEX
  8
0
 10
500.423142
 20
350.352561
 42
-0.096715
  0
VERTEX
  8
0
 10
500.390116
 20
349.033354
 42
-0.042349
  0
VERTEX
  8
0
 10
499.866797
 20
347.356498
 42
0.008583
  0
VERTEX
  8
0
 10
499.276524
 20
345.834582
 42
0.002388
  0
VERTEX
  8
0
 10
498.404001
 20
343.429721
 42
0.002409
  0
VERTEX
  8
0
 10
497.442460
 20
340.698053
 42
0.002526
  0
VERTEX
  8
0
 10
496.522578
 20
338.000000
 42
-0.034593
  0
VERTEX
  8
0
 10
494.613620
 20
333.391233
 42
-0.104044
  0
VERTEX
  8
0
 10
492.512765
 20
330.735058
 42
-0.127592
  0
VERTEX
  8
0
 10
489.792435
 20
329.452868
 42
-0.065321
  0
VERTEX
  8
0
 10
486.000000
 20
329.239567
 42
-0.029793
  0
VERTEX
  8
0
 10
483.936024
 20
329.517473
 42
-0.154893
  0
VERTEX
  8
0
 10
482.940418
 20
330.062350
 42
-0.135267
  0
VERTEX
  8
0
 10
482.369608
 20
331.122794
 42
-0.020762
  0
VERTEX
  8
0
 10
481.928731
 20
333.500000
 42
0.043974
  0
VERTEX
  8
0
 10
480.916325
 20
337.828777
 42
0.026326
  0
VERTEX
  8
0
 10
479.003100
 20
342.757433
 42
0.026065
  0
VERTEX
  8
0
 10
476.700348
 20
347.234731
 42
0.072490
  0
VERTEX
  8
0
 10
474.504258
 20
349.996000
 42
0.088547
  0
VERTEX
  8
0
 10
472.337580
 20
351.407982
 42
0.178138
  0
VERTEX
  8
0
 10
470.327547
 20
351.505235
 42
0.143086
  0
VERTEX
  8
0
 10
468.424591
 20
350.235305
 42
0.051065
  0
VERTEX
  8
0
 10
466.573043
 20
347.505775
 42
-0.014079
  0
VERTEX
  8
0
 10
465.800150
 20
346.162607
 42
-0.020571
  0
VERTEX
  8
0
 10
465.039313
 20
345.029821
 42
-0.016725
  0
VERTEX
  8
0
 10
464.361006
 20
344.166627
 42
-0.221342
  0
VERTEX
  8
0
 10
464.003045
 20
344.000000
 42
-0.298597
  0
VERTEX
  8
0
 10
462.868676
 20
344.743751
 42
-0.040709
  0
VERTEX
  8
0
 10
461.906993
 20
347.562896
 42
-0.037000
  0
VERTEX
  8
0
 10
461.234690
 20
351.400961
 42
-0.025751
  0
VERTEX
  8
0
 10
461.023735
 20
355.797053
 42
-0.040914
  0
VERTEX
  8
0
 10
461.485207
 20
361.192390
 42
-0.038448
  0
VERTEX
  8
0
 10
462.820758
 20
366.557695
 42
-0.035529
  0
VERTEX
  8
0
 10
465.082154
 20
372.030307
 42
-0.026042
  0
VERTEX
  8
0
 10
468.318791
 20
377.750000
 42
-0.051498
  0
VERTEX
  8
0
 10
470.623559
 20
380.659552
 42
-0.162179
  0
VERTEX
  8
0
 10
472.807429
 20
381.786536
 42
-0.088385
  0
VERTEX
  8
0
 10
476.013834
 20
381.717698
 42
-0.009276
  0
SEQEND
  0
POLYLINE
  8
0
 66
1
 70
1
  0
VERTEX
  8
0
 10
590.000000
 20
377.059017
 42
-0.089642
  0
VERTEX
  8
0
 10
589.926698
 20
376.653442
 42
-0.053229
  0
VERTEX
  8
0
 10
589.706250
 20
376.212900
 42
-0.051032
  0
VERTEX
  8
0
 10
589.382515
 20
375.806203
 42
-0.060810
  0
VERTEX
  8
0
 10
589.000000
 20
375.500000
 42
-0.139169
  0
VERTEX
  8
0
 10
588.620352
 20
375.392057
 42
-0.191142
  0
VERTEX
  8
0
 10
588.293750
 20
375.521475
 42
-0.138808
  0
VERTEX
  8
0
 10
588.073267
 20
375.889346
 42
-0.066118
  0
VERTEX
  8
0
 10
588.000000
 20
376.440983
 42
-0.062283
  0
VERTEX
  8
0
 10
588.074545
 20
377.037096
 42
-0.080552
  0
VERTEX
  8
0
 10
588.293750
 20
377.542039
 42
-0.097988
  0
VERTEX
  8
0
 10
588.618621
 20
377.879982
 42
-0.153634
  0
VERTEX
  8
0
 10
589.000000
 20
378.000000
 42
-0.092995
  0
VERTEX
  8
0
 10
589.381732
 20
377.928382
 42
-0.096318
  0
VERTEX
  8
0
 10
589.706250
 20
377.723586
 42
-0.099231
  0
VERTEX
  8
0
 10
589.923444
 20
377.418051
 42
-0.105429
  0
SEQEND
  0
POLYLINE
  8
0
 66
1
 70
1
  0
VERTEX
  8
0
 10
317.237155
 20
351.110977
 42
0.019894
  0
VERTEX
  8
0
 10
320.579874
 20
350.092822
 42
0.003529
  0
VERTEX
  8
0
 10
326.924015
 20
348.480861
 42
0.003814
  0
VERTEX
  8
0
 10
334.392338
 20
346.699588
 42
0.003427
  0
VERTEX
  8
0
 10
342.157270
 20
344.966019
 42
-0.001851
  0
VERTEX
  8
0
 10
349.683472
 20
343.310649
 42
-0.002559
  0
VERTEX
  8
0
 10
356.422576
 20
341.765968
 42
-0.001602
  0
VERTEX
  8
0
 10
362.077767
 20
340.420103
 42
-0.031630
  0
VERTEX
  8
0
 10
363.782242
 20
339.892692
 42
0.000000
  0
VERTEX
  8
0
 10
366.224256
 20
338.964240
 42
0.000000
  0
VERTEX
  8
0
 10
363.862128
 20
337.145831
 42
-0.023017
  0
VERTEX
  8
0
 10
362.540109
 20
336.221772
 42
-0.005668
  0
VERTEX
  8
0
 10
360.284500
 20
334.830530
 42
-0.005790
  0
VERTEX
  8
0
 10
357.661747
 20
333.294665
 42
-0.005763
  0
VERTEX
  8
0
 10
355.000000
 20
331.817467
 42
0.002870
  0
VERTEX
  8
0
 10
352.125543
 20
330.243901
 42
0.001921
  0
VERTEX
  8
0
 10
348.854261
 20
328.412145
 42
0.001934
  0
VERTEX
  8
0
 10
345.698008
 20
326.612693
 42
0.003810
  0
VERTEX
  8
0
 10
343.205994
 20
325.153756
 42
-0.012423
  0
VERTEX
  8
0
 10
338.287152
 20
322.386682
 42
-0.167410
  0
VERTEX
  8
0
 10
336.275700
 20
322.070661
 42
-0.356610
  0
VERTEX
  8
0
 10
335.345449
 20
323.153407
 42
-0.043411
  0
VERTEX
  8
0
 10
335.554338
 20
326.513784
 42
0.120928
  0
VERTEX
  8
0
 10
334.864549
 20
334.003623
 42
0.190191
  0
VERTEX
  8
0
 10
330.714443
 20
338.847448
 42
0.126647
  0
VERTEX
  8
0
 10
322.797769
 20
340.738973
 42
0.043634
  0
VERTEX
  8
0
 10
311.000138
 20
339.500027
 42
-0.004485
  0
VERTEX
  8
0
 10
307.496594
 20
338.852075
 42
-0.007136
  0
VERTEX
  8
0
 10
304.487053
 20
338.367528
 42
-0.002395
  0
VERTEX
  8
0
 10
301.901117
 20
338.001604
 42
-0.241199
  0
VERTEX
  8
0
 10
301.566629
 20
338.119012
 42
-0.276340
  0
VERTEX
  8
0
 10
301.301710
 20
339.300127
 42
-0.006942
  0
VERTEX
  8
0
 10
303.170503
 20
344.712527
 42
-0.012526
  0
VERTEX
  8
0
 10
305.170831
 20
349.848522
 42
-0.084983
  0
VERTEX
  8
0
 10
306.626760
 20
352.140068
 42
-0.051149
  0
VERTEX
  8
0
 10
307.427446
 20
352.860987
 42
-0.053495
  0
VERTEX
  8
0
 10
308.346370
 20
353.391927
 42
-0.059441
  0
VERTEX
  8
0
 10
309.240530
 20
353.666853
 42
-0.124930
  0
VERTEX
  8
0
 10
309.960678
 20
353.617068
 42
-0.003076
  0
VERTEX
  8
0
 10
310.875697
 20
353.310032
 42
-0.000447
  0
VERTEX
  8
0
 10
312.733114
 20
352.672176
 42
-0.000506
  0
VERTEX
  8
0
 10
314.927742
 20
351.913838
 42
-0.000433
  0
SEQEND
  0
POLYLINE
  8
0
 66
1
 70
1
  0
VERTEX
  8
0
 10
634.707782
 20
344.244354
 42
-0.012159
  0
VERTEX
  8
0
 10
634.327274
 20
339.787204
 42
-0.006921
  0
VERTEX
  8
0
 10
633.661835
 20
334.418588
 42
-0.006907
  0
VERTEX
  8
0
 10
632.841805
 20
329.028411
 42
-0.011339
  0
VERTEX
  8
0
 10
631.981718
 20
324.494354
 42
-0.027578
  0
VERTEX
  8
0
 10
629.715873
 20
316.154520
 42
-0.022648
  0
VERTEX
  8
0
 10
626.414829
 20
307.534340
 42
-0.019578
  0
VERTEX
  8
0
 10
622.853009
 20
300.163763
 42
-0.134822
  0
VERTEX
  8
0
 10
620.116016
 20
297.268673
 42
-0.131496
  0
VERTEX
  8
0
 10
616.606173
 20
296.244403
 42
-0.001094
  0
VERTEX
  8
0
 10
587.836405
 20
295.661338
 42
-0.002380
  0
VERTEX
  8
0
 10
545.318497
 20
295.095100
 42
-0.000429
  0
VERTEX
  8
0
 10
466.179704
 20
294.485733
 42
-0.000802
  0
VERTEX
  8
0
 10
431.462632
 20
294.303866
 42
-0.002610
  0
VERTEX
  8
0
 10
408.456525
 20
294.340341
 42
-0.000507
  0
VERTEX
  8
0
 10
390.788648
 20
294.478486
 42
-0.584420
  0
VERTEX
  8
0
 10
390.500473
 20
295.000766
 42
-0.099818
  0
VERTEX
  8
0
 10
390.997770
 20
295.531854
 42
-0.012128
  0
VERTEX
  8
0
 10
392.327750
 20
296.432036
 42
-0.014001
  0
VERTEX
  8
0
 10
393.982075
 20
297.429894
 42
-0.011118
  0
VERTEX
  8
0
 10
395.820769
 20
298.416588
 42
0.012812
  0
VERTEX
  8
0
 10
398.244026
 20
299.727567
 42
0.003708
  0
VERTEX
  8
0
 10
401.916101
 20
301.873897
 42
0.003726
  0
VERTEX
  8
0
 10
406.019667
 20
304.355012
 42
0.003968
  0
VERTEX
  8
0
 10
410.000000
 20
306.846051
 42
-0.006565
  0
VERTEX
  8
0
 10
425.745917
 20
316.586992
 42
-0.024301
  0
VERTEX
  8
0
 10
436.038816
 20
322.107352
 42
-0.038981
  0
VERTEX
  8
0
 10
443.708574
 20
325.044914
 42
-0.072087
  0
VERTEX
  8
0
 10
450.298699
 20
326.000000
 42
-0.028767
  0
VERTEX
  8
0
 10
453.599065
 20
325.809960
 42
-0.069809
  0
VERTEX
  8
0
 10
455.955512
 20
325.197130
 42
-0.051232
  0
VERTEX
  8
0
 10
458.455530
 20
323.843685
 42
-0.010115
  0
VERTEX
  8
0
 10
462.613318
 20
320.882917
 42
0.010371
  0
VERTEX
  8
0
 10
465.552143
 20
318.792436
 42
0.009257
  0
VERTEX
  8
0
 10
468.687377
 20
316.742640
 42
0.009329
  0
VERTEX
  8
0
 10
471.573434
 20
315.005318
 42
0.028261
  0
VERTEX
  8
0
 10
473.620307
 20
313.974048
 42
0.061341
  0
VERTEX
  8
0
 10
477.282213
 20
312.890574
 42
0.033899
  0
VERTEX
  8
0
 10
481.932071
 20
312.436383
 42
0.032369
  0
VERTEX
  8
0
 10
486.938762
 20
312.612281
 42
0.035805
  0
VERTEX
  8
0
 10
491.711188
 20
313.438448
 42
-0.032011
  0
VERTEX
  8
0
 10
493.682481
 20
313.795114
 42
-0.180676
  0
VERTEX
  8
0
 10
494.702595
 20
313.542768
 42
-0.133574
  0
VERTEX
  8
0
 10
495.474559
 20
312.635914
 42
-0.014760
  0
VERTEX
  8
0
 10
496.571258
 20
310.113514
 42
0.134418
  0
VERTEX
  8
0
 10
501.578755
 20
303.496917
 42
0.132876
  0
VERTEX
  8
0
 10
509.280143
 20
300.317586
 42
0.104743
  0
VERTEX
  8
0
 10
519.064282
 20
301.115936
 42
0.061281
  0
VERTEX
  8
0
 10
529.880544
 20
305.849853
 42
-0.002137
  0
VERTEX
  8
0
 10
539.454236
 20
311.468053
 42
-0.049483
  0
VERTEX
  8
0
 10
542.329543
 20
312.778124
 42
-0.141164
  0
VERTEX
  8
0
 10
544.491983
 20
312.882356
 42
-0.047970
  0
VERTEX
  8
0
 10
547.500000
 20
311.858163
 42
0.038479
  0
VERTEX
  8
0
 10
549.560475
 20
311.112746
 42
0.023136
  0
VERTEX
  8
0
 10
552.097124
 20
310.535007
 42
0.021843
  0
VERTEX
  8
0
 10
554.881642
 20
310.159646
 42
0.021525
  0
VERTEX
  8
0
 10
557.701959
 20
310.026224
 42
0.000000
  0
VERTEX
  8
0
 10
563.903919
 20
310.000000
 42
0.000000
  0
VERTEX
  8
0
 10
567.160500
 20
314.750000
 42
-0.006472
  0
VERTEX
  8
0
 10
571.477783
 20
320.875575
 42
-0.165396
  0
VERTEX
  8
0
 10
573.118298
 20
322.037097
 42
-0.309847
  0
VERTEX
  8
0
 10
574.623041
 20
321.550659
 42
-0.022029
  0
VERTEX
  8
0
 10
577.293860
 20
317.754794
 42
0.017789
  0
VERTEX
  8
0
 10
579.348680
 20
314.781156
 42
0.059618
  0
VERTEX
  8
0
 10
580.976582
 20
313.066112
 42
0.071372
  0
VERTEX
  8
0
 10
582.798900
 20
311.949186
 42
0.033604
  0
VERTEX
  8
0
 10
585.407681
 20
311.025848
 42
0.076970
  0
VERTEX
  8
0
 10
593.328219
 20
310.075976
 42
0.060935
  0
VERTEX
  8
0
 10
601.858739
 20
311.417658
 42
0.059853
  0
VERTEX
  8
0
 10
609.968286
 20
314.820390
 42
0.068201
  0
VERTEX
  8
0
 10
616.651533
 20
319.933142
 42
0.051042
  0
VERTEX
  8
0
 10
620.497592
 20
324.693413
 42
0.034632
  0
VERTEX
  8
0
 10
623.892467
 20
330.786401
 42
0.033624
  0
VERTEX
  8
0
 10
626.525828
 20
337.538168
 42
0.038443
  0
VERTEX
  8
0
 10
628.090730
 20
344.288310
 42
-0.004006
  0
VERTEX
  8
0
 10
629.124198
 20
350.734369
 42
-0.067445
  0
VERTEX
  8
0
 10
629.764077
 20
352.790742
 42
-0.204045
  0
VERTEX
  8
0
 10
630.767674
 20
353.692272
 42
-0.082514
  0
VERTEX
  8
0
 10
632.619676
 20
354.000000
 42
0.000000
  0
VERTEX
  8
0
 10
635.302122
 20
354.000000
 42
0.000000
  0
SEQEND
  0
POLYLINE
  8
0
 66
1
 70
1
  0
VERTEX
  8
0
 10
515.159730
 20
344.056401
 42
0.015524
  0
VERTEX
  8
0
 10
518.065284
 20
343.183167
 42
0.005264
  0
VERTEX
  8
0
 10
522.341243
 20
342.089615
 42
0.005229
  0
VERTEX
  8
0
 10
527.094435
 20
340.979738
 42
0.005990
  0
VERTEX
  8
0
 10
531.659730
 20
340.021210
 42
-0.007409
  0
VERTEX
  8
0
 10
540.187531
 20
338.205422
 42
-0.016707
  0
VERTEX
  8
0
 10
546.575342
 20
336.519645
 42
-0.013064
  0
VERTEX
  8
0
 10
551.251358
 20
334.982710
 42
-0.316778
  0
VERTEX
  8
0
 10
552.000000
 20
333.919633
 42
-0.104051
  0
VERTEX
  8
0
 10
551.926177
 20
333.568730
 42
-0.098990
  0
VERTEX
  8
0
 10
551.716578
 20
333.270142
 42
-0.096688
  0
VERTEX
  8
0
 10
551.403451
 20
333.070039
 42
-0.094242
  0
VERTEX
  8
0
 10
551.035160
 20
333.000000
 42
0.122783
  0
VERTEX
  8
0
 10
550.378948
 20
332.836390
 42
0.003169
  0
VERTEX
  8
0
 10
547.689335
 20
331.384375
 42
0.006536
  0
VERTEX
  8
0
 10
544.545643
 20
329.607572
 42
0.004396
  0
VERTEX
  8
0
 10
541.000000
 20
327.500000
 42
-0.006078
  0
VERTEX
  8
0
 10
537.427801
 20
325.392874
 42
-0.008660
  0
VERTEX
  8
0
 10
534.201164
 20
323.615625
 42
-0.005346
  0
VERTEX
  8
0
 10
531.463753
 20
322.206289
 42
-0.116716
  0
VERTEX
  8
0
 10
530.592069
 20
322.000000
 42
-0.242259
  0
VERTEX
  8
0
 10
529.981555
 20
322.314248
 42
-0.068811
  0
VERTEX
  8
0
 10
529.470463
 20
323.289592
 42
-0.044662
  0
VERTEX
  8
0
 10
529.059059
 20
324.861364
 42
-0.017738
  0
VERTEX
  8
0
 10
528.766847
 20
327.074668
 42
0.046348
  0
VERTEX
  8
0
 10
527.897404
 20
331.634234
 42
0.166398
  0
VERTEX
  8
0
 10
526.221664
 20
334.027631
 42
0.132800
  0
VERTEX
  8
0
 10
523.175697
 20
335.195541
 42
0.025527
  0
VERTEX
  8
0
 10
517.216009
 20
335.500000
 42
0.009790
  0
VERTEX
  8
0
 10
513.986848
 20
335.436769
 42
0.008955
  0
VERTEX
  8
0
 10
510.665015
 20
335.246996
 42
0.008995
  0
VERTEX
  8
0
 10
507.705340
 20
334.971053
 42
0.028710
  0
VERTEX
  8
0
 10
505.750000
 20
334.638709
 42
-0.012214
  0
VERTEX
  8
0
 10
503.595777
 20
334.199030
 42
-0.110187
  0
VERTEX
  8
0
 10
502.640503
 20
334.239730
 42
-0.251423
  0
VERTEX
  8
0
 10
502.172621
 20
334.679736
 42
-0.084011
  0
VERTEX
  8
0
 10
502.021962
 20
335.638709
 42
-0.059642
  0
VERTEX
  8
0
 10
502.152123
 20
336.627066
 42
-0.014739
  0
VERTEX
  8
0
 10
502.604159
 20
338.201683
 42
-0.014870
  0
VERTEX
  8
0
 10
503.232999
 20
339.986350
 42
-0.014400
  0
VERTEX
  8
0
 10
503.973070
 20
341.750000
 42
-0.048095
  0
VERTEX
  8
0
 10
505.641473
 20
344.648965
 42
-0.189504
  0
VERTEX
  8
0
 10
507.335202
 20
345.753545
 42
-0.118042
  0
VERTEX
  8
0
 10
509.831647
 20
345.674453
 42
-0.014083
  0
SEQEND
  0
POLYLINE
  8
0
 66
1
 70
1
  0
VERTEX
  8
0
 10
328.385934
 20
323.436655
 42
-0.165504
  0
VERTEX
  8
0
 10
328.466686
 20
321.333303
 42
-0.072239
  0
VERTEX
  8
0
 10
327.277425
 20
318.766572
 42
-0.064981
  0
VERTEX
  8
0
 10
325.201147
 20
316.340665
 42
-0.072641
  0
VERTEX
  8
0
 10
322.642922
 20
314.634845
 42
-0.045619
  0
VERTEX
  8
0
 10
320.914068
 20
314.000056
 42
-0.020693
  0
VERTEX
  8
0
 10
318.558778
 20
313.475006
 42
-0.020137
  0
VERTEX
  8
0
 10
315.986883
 20
313.118629
 42
-0.024360
  0
VERTEX
  8
0
 10
313.553416
 20
313.000000
 42
-0.017096
  0
VERTEX
  8
0
 10
310.495655
 20
313.104584
 42
-0.056534
  0
VERTEX
  8
0
 10
308.516541
 20
313.467435
 42
-0.074819
  0
VERTEX
  8
0
 10
306.979877
 20
314.197697
 42
-0.048139
  0
VERTEX
  8
0
 10
305.454545
 20
315.454545
 42
-0.063668
  0
VERTEX
  8
0
 10
303.438106
 20
318.062190
 42
-0.385698
  0
VERTEX
  8
0
 10
303.757166
 20
319.595462
 42
-0.087502
  0
VERTEX
  8
0
 10
306.391346
 20
320.883679
 42
-0.003296
  0
VERTEX
  8
0
 10
317.000000
 20
323.861896
 42
-0.030230
  0
VERTEX
  8
0
 10
321.003232
 20
324.701172
 42
-0.045919
  0
VERTEX
  8
0
 10
324.550681
 20
324.894494
 42
-0.056771
  0
VERTEX
  8
0
 10
327.220102
 20
324.488999
 42
-0.239481
  0
SEQEND
  0
POLYLINE
  8
0
 66
1
 70
1
  0
VERTEX
  8
0
 10
522.448137
 20
322.083916
 42
-0.193692
  0
VERTEX
  8
0
 10
522.692283
 20
320.669504
 42
-0.058129
  0
VERTEX
  8
0
 10
521.974920
 20
318.560343
 42
-0.057342
  0
VERTEX
  8
0
 10
520.737883
 20
316.580782
 42
-0.127517
  0
VERTEX
  8
0
 10
519.326604
 20
315.521133
 42
-0.053874
  0
VERTEX
  8
0
 10
514.361265
 20
314.078628
 42
-0.061938
  0
VERTEX
  8
0
 10
509.434818
 20
313.825332
 42
-0.075159
  0
VERTEX
  8
0
 10
505.515287
 20
314.711633
 42
-0.211044
  0
VERTEX
  8
0
 10
503.575955
 20
316.662661
 42
-0.105330
  0
VERTEX
  8
0
 10
503.361721
 20
318.020192
 42
-0.237410
  0
VERTEX
  8
0
 10
503.865159
 20
318.900374
 42
-0.071901
  0
VERTEX
  8
0
 10
505.441083
 20
319.645174
 42
-0.004863
  0
VERTEX
  8
0
 10
510.215116
 20
321.060540
 42
-0.014641
  0
VERTEX
  8
0
 10
515.007725
 20
322.280263
 42
-0.034130
  0
VERTEX
  8
0
 10
518.666756
 20
322.839623
 42
-0.045241
  0
VERTEX
  8
0
 10
521.264509
 20
322.821548
 42
-0.234102
  0
SEQEND
  0
POLYLINE
  8
0
 66
1
 70
1
  0
VERTEX
  8
0
 10
293.469336
 20
310.311763
 42
0.033160
  0
VERTEX
  8
0
 10
293.937445
 20
308.491725
 42
0.011922
  0
VERTEX
  8
0
 10
294.834802
 20
305.970016
 42
0.011766
  0
VERTEX
  8
0
 10
295.952605
 20
303.244862
 42
0.013675
  0
VERTEX
  8
0
 10
297.146103
 20
300.710572
 42
-0.006718
  0
VERTEX
  8
0
 10
298.264833
 20
298.418335
 42
-0.010777
  0
VERTEX
  8
0
 10
299.150232
 20
296.430629
 42
-0.004788
  0
VERTEX
  8
0
 10
299.839232
 20
294.744510
 42
-0.299433
  0
VERTEX
  8
0
 10
299.777181
 20
294.443848
 42
-0.198334
  0
VERTEX
  8
0
 10
298.789754
 20
294.033555
 42
-0.000090
  0
VERTEX
  8
0
 10
262.568608
 20
293.959491
 42
-0.000090
  0
VERTEX
  8
0
 10
226.345396
 20
293.898443
 42
-0.199304
  0
VERTEX
  8
0
 10
225.361583
 20
294.305084
 42
-0.485799
  0
VERTEX
  8
0
 10
225.398487
 20
294.613612
 42
-0.006366
  0
VERTEX
  8
0
 10
227.309585
 20
295.745124
 42
-0.012324
  0
VERTEX
  8
0
 10
229.722376
 20
297.054457
 42
-0.007118
  0
VERTEX
  8
0
 10
232.684576
 20
298.515851
 42
0.000716
  0
VERTEX
  8
0
 10
236.457692
 20
300.317609
 42
0.000313
  0
VERTEX
  8
0
 10
241.456990
 20
302.717539
 42
0.000310
  0
VERTEX
  8
0
 10
246.762045
 20
305.272380
 42
0.000414
  0
VERTEX
  8
0
 10
251.573261
 20
307.597976
 42
-0.004933
  0
VERTEX
  8
0
 10
258.109880
 20
310.685004
 42
-0.034435
  0
VERTEX
  8
0
 10
261.409958
 20
311.936615
 42
-0.070873
  0
VERTEX
  8
0
 10
263.744890
 20
312.294651
 42
-0.072613
  0
VERTEX
  8
0
 10
266.066660
 20
311.980882
 42
0.052274
  0
VERTEX
  8
0
 10
270.247675
 20
311.242306
 42
0.024456
  0
VERTEX
  8
0
 10
275.750364
 20
311.124030
 42
0.024302
  0
VERTEX
  8
0
 10
281.163162
 20
311.536229
 42
0.060823
  0
VERTEX
  8
0
 10
285.000000
 20
312.500000
 42
-0.023755
  0
VERTEX
  8
0
 10
289.001430
 20
313.826444
 42
-0.132119
  0
VERTEX
  8
0
 10
291.244204
 20
313.848591
 42
-0.212069
  0
VERTEX
  8
0
 10
292.622158
 20
312.755133
 42
-0.074291
  0
SEQEND
  0
POLYLINE
  8
0
 66
1
 70
1
  0
VERTEX
  8
0
 10
209.014732
 20
285.386990
 42
-0.009051
  0
VERTEX
  8
0
 10
205.854474
 20
283.985649
 42
-0.008265
  0
VERTEX
  8
0
 10
202.548934
 20
282.654857
 42
-0.008298
  0
VERTEX
  8
0
 10
199.556928
 20
281.563993
 42
-0.026487
  0
VERTEX
  8
0
 10
197.514732
 20
280.976622
 42
-0.039698
  0
VERTEX
  8
0
 10
193.093944
 20
280.318698
 42
-0.014342
  0
VERTEX
  8
0
 10
186.743063
 20
280.066406
 42
-0.009511
  0
VERTEX
  8
0
 10
180.466024
 20
280.116611
 42
-0.135752
  0
VERTEX
  8
0
 10
178.345492
 20
280.765313
 42
-0.686180
  0
VERTEX
  8
0
 10
178.403726
 20
281.054502
 42
-0.017967
  0
VERTEX
  8
0
 10
180.219257
 20
281.298090
 42
-0.015472
  0
VERTEX
  8
0
 10
182.911389
 20
281.477386
 42
-0.007598
  0
VERTEX
  8
0
 10
186.345492
 20
281.547333
 42
0.014960
  0
VERTEX
  8
0
 10
192.347952
 20
281.758032
 42
0.040160
  0
VERTEX
  8
0
 10
196.574044
 20
282.376363
 42
0.030643
  0
VERTEX
  8
0
 10
201.244514
 20
283.753956
 42
0.005906
  0
VERTEX
  8
0
 10
209.500000
 20
286.860438
 42
-0.002332
  0
VERTEX
  8
0
 10
215.010441
 20
288.979068
 42
-0.630905
  0
VERTEX
  8
0
 10
215.293856
 20
288.707920
 42
-0.205170
  0
VERTEX
  8
0
 10
214.736387
 20
288.075992
 42
-0.001930
  0
SEQEND
  0
POLYLINE
  8
0
 66
1
 70
1
  0
VERTEX
  8
0
 10
396.000000
 20
509.426676
 42
0.099154
  0
VERTEX
  8
0
 10
396.121465
 20
508.820192
 42
0.133817
  0
VERTEX
  8
0
 10
396.463530
 20
508.380696
 42
0.126354
  0
VERTEX
  8
0
 10
396.998290
 20
508.159635
 42
0.083236
  0
VERTEX
  8
0
 10
397.667134
 20
508.176676
 42
0.100818
  0
VERTEX
  8
0
 10
399.099763
 20
508.769787
 42
0.210781
  0
VERTEX
  8
0
 10
399.729914
 20
509.770795
 42
0.297834
  0
VERTEX
  8
0
 10
399.327282
 20
510.642779
 42
0.140740
  0
VERTEX
  8
0
 10
398.083333
 20
511.000000
 42
0.066422
  0
VERTEX
  8
0
 10
397.248452
 20
510.888599
 42
0.095670
  0
VERTEX
  8
0
 10
396.581040
 20
510.561201
 42
0.111791
  0
VERTEX
  8
0
 10
396.153230
 20
510.054646
 42
0.120240
  0
SEQEND
  0
ENDSEC
  0
EOF
